<mxfile host="app.diagrams.net" modified="2021-02-26T09:13:03.789Z" agent="5.0 (Windows NT 10.0; Win64; x64) AppleWebKit/537.36 (KHTML, like Gecko) Chrome/88.0.4324.182 Safari/537.36" etag="LAng3dJ1KhwAUKBVVfXt" version="14.4.3" type="github">
  <diagram id="Vf9AiiPR7Wviq1b5NcDG" name="Page-1">
    <mxGraphModel dx="3139" dy="1220" grid="1" gridSize="10" guides="0" tooltips="1" connect="1" arrows="1" fold="1" page="1" pageScale="1" pageWidth="1169" pageHeight="827" math="0" shadow="0">
      <root>
        <mxCell id="0" />
        <mxCell id="1" parent="0" />
        <mxCell id="x99btNPnGnlGqi2Zv7ce-22" style="edgeStyle=orthogonalEdgeStyle;rounded=0;orthogonalLoop=1;jettySize=auto;html=1;fontSize=15;" parent="1" source="x99btNPnGnlGqi2Zv7ce-12" target="MWNhhg4DmTbggFdNVIW7-77" edge="1">
          <mxGeometry relative="1" as="geometry">
            <mxPoint x="440" y="730" as="sourcePoint" />
            <Array as="points">
              <mxPoint x="-20" y="970" />
              <mxPoint x="-981" y="970" />
            </Array>
          </mxGeometry>
        </mxCell>
        <mxCell id="x99btNPnGnlGqi2Zv7ce-23" value="New Temporal event" style="edgeLabel;html=1;align=center;verticalAlign=middle;resizable=0;points=[];fontSize=15;" parent="x99btNPnGnlGqi2Zv7ce-22" vertex="1" connectable="0">
          <mxGeometry x="-0.4068" y="1" relative="1" as="geometry">
            <mxPoint x="-164.57" y="-1" as="offset" />
          </mxGeometry>
        </mxCell>
        <mxCell id="x99btNPnGnlGqi2Zv7ce-12" value="" style="shape=image;verticalLabelPosition=bottom;labelBackgroundColor=#ffffff;verticalAlign=top;aspect=fixed;imageAspect=0;image=data:image/png,iVBORw0KGgoAAAANSUhEUgAAAfcAAAICCAYAAADSwoQQAAAgAElEQVR4XuydCXQUVdbH7+sEISgBBERlFUbBDRh0FAZwWJSAypZ0dSABl0EWAVFw3OBjF9QBQRFkRyUEkq5OWFQWUUQWBxVBcAMdEVBkF0FkS9LvO69NZSpFJ6nea/nXORyFeu++e3/3df/rbdWMcIEACIAACIAACFiKALNUNAgGBEAABEAABECAIO7oBCAAAiAAAiBgMQIQd4slFOGAAAiAAAiAAMQdfQAEQAAEQAAELEYA4m6xhCIcEAABEAABEIC4ow+AAAiAAAiAgMUIQNwtllCEAwIgAAIgAAIQd/QBEAABEAABELAYAYi7xRKKcEAABEAABEAA4o4+AAIgAAIgAAIWIwBxt1hCEQ4IGJlA27Zt42vUqFGfMVbT6/UmOhyOeCK6yBg7lZeXdyg3N3e/kf2HbyBgFgIQd7NkCn6CgAkJJCcn1655ZXlnQoLj/oqXOa6uUinuijo1y1WoXjn+iisSHBXi4igur4Dyz/xRcO7Iybw/fj6Wf/70H97T584X/Pzb7/nuM+f4clmWT5kwdLgMAjElAHGPKX40DgLWJDCoX9rjlS539L7umsuubtPs8to3XVchoEAv5nH6au95+mj77wcOHc//6dDJvOmLF7vdARlBYRCwMQGIu42Tj9BBIJwExo4d6/jt6HdTr0yM73x/q8Qb/tooIWzmN+44c+79bWf2nvwt780Z87KmhM0wDIGARQlA3C2aWIQFAtEkMKBfr0HXVI0f6rq7SqMb6wc2Sg/Ez0+/PluwYvOpr7/bf/5Zj8ezOpC6KAsCdiIAcbdTthErCISZQI8ePa5qWLuiJ+nOSs3uvqNSpTCbL9Fc1rqTRz779ux/ps5Y0iNabaIdEDATAYi7mbIFX0HAQAScTmeHWxsmzBzkrN6oemWx6T26139/vkAL3/l1596Deb2ys7O/jW7raA0EjE0A4m7s/MA7EDAkgf6PpD56y3UJzz4m1agbSwcv5nOanHHkvzv/e36ALMvrY+kL2gYBIxGAuBspG/AFBExAYEi/nv+6/ebLhz1475XXGsXdfy8+uu/z3ecGut3utUbxCX6AQCwJQNxjSR9tg4DJCPR9qOc/WzWtOOHh+6oZRtgVhC9lHPlx27dne3s8no9NhhXugkDYCUDcw44UBkHAmgRcLlerO26qmPlkWo16Ro1w3IIju3fvv9ghKyvrF6P6CL9AIBoEIO7RoIw2QMDkBCRJSmhcr/y28f2vucnIofz2ewG98NaRrf+entnSyH7CNxCINAGIe6QJwz4IWIDA8MFpa57oeVVSnZrlDB/Ntt1n+ZI1J1+Z9vqS4YZ3Fg6CQIQIQNwjBBZmQcAqBCRJus91d5U3nO2q1DBLTFOXHtu/9as/kmRZ3mMWn+EnCISTAMQ9nDRhCwQsSOC54b2/mDTwmqZmCu33swU0fsGRDVNey2xnJr/hKwiEiwDEPVwkYQcELEhAnGd/oHP1aa1urVjebOFlrv318Nubz/TIzs7eajbf4S8IhEoA4h4qQdQHAQsTMOOoXUnH+Yte+r85hz98+bXM9hZOEUIDAb8EIO7oGCAAAn4JuFyudg90quq5r3XilWZF9Jp87MDHX55viaNxZs0g/A6WAMQ9WHKoBwIWJzBscPrq5wdc3aliBYdpIxXvn39NPvbC9FlLR5g2CDgOAkEQgLgHAQ1VQMAOBMY/+8B3o/5Z83qzx/rs679sf+mVzNvMHgf8B4FACEDcA6GFsiBgEwKSJLV88L4r373v74lVzR7ydPnYgQ8/+63p8uXLfzN7LPAfBPQSgLjrJYVyIGAjAk8M6vXS8F41nzbDS2vKSst/dv2RNy37WA9Zlt8tqyzug4BVCEDcrZJJxAECYSTwr8fSNkx+rNY/AjGZufIb6v2vP/VzQM+m9H+DWtLqjT9SP1eTQMyEvezRk/n0YsbR16fNyBwcduMwCAIGJQBxN2hi4BYIxJLAyOG9dz0/8Jpb9fqwZftBGjz2fcp+tQs1uu5K2vPjr5T6+NuUknQDjRoc+9e8/2v6LxtenoEX2ujNJ8qZnwDE3fw5RAQgEHYCz4944L8jH6rZUK/hCTP/4yuqFvITv52j3Pe+LzZyn+feRckdr6dqVRL0mi5Wzp9NPYaem3Vox4vTFjfXUxZlQMAKBCDuVsgiYgCBMBJo27ZtfNf29X8Y1rNGXb1mxZT85PmfFY3c/dUTo3vxEJD58n1Bi7u/hwg9Po6Zd+ib8ZMX36ynLMqAgBUIQNytkEXEAAJhJNC9e/cqnVpe+eWAHtVq6zUrRtTpT75Lazf96FtvnzaiPSVUiC+qLkR59Kubi/4+/vHWvlG+9t83Z6VRq+a1SLGX1Lo+rd28j34+/DtVrVyBNm/7uciGUlaPj+MXHv5uzIsZjfSURRkQsAIBiLsVsogYQCCMBNLS0qq2bVZhV7/u+sVdNH/ufD4Nm7Se5mTt9HmjCLjimhjdZ6z4pmjkrh3JC6E/eOR3GjXo79R35Brfg0JSm+uKyiv2a9WsFPA6/oQFR74f/dKiG8KICaZAwNAEIO6GTg+cA4HoE+jSpUvFji2q7R4i1agTTOsljeK14q7YVj8UKKP+s+fzfDMBfbrdROldb/IVDUXcxy44vHvcSxk3BhMP6oCAGQlA3M2YNfgMAhEm8OL/PbD3mQdqXqe3mXVb9lHzm2sWW0tXjsYp0+f+xF2M1nPWfudbq9/25WHatO1n35R+uMV95JzDuya9nGGqn63Vyx7lQMAfAYg7+gUIgMAlBEY/1eebcf2u1j3SFcJdv3Zl33q5cikjeLG2Lv5dK+7i74qYi/V59d/DLe5Pv/bLfya/lvl3pBoE7EIA4m6XTCNOEAiAwFOPp2/99+Br79RbRTtKF/VKWmOfPzGJPv/qCJ05e7FoDb5ihXK+9XpxlTRyF/eU3fKuexv5pumb3XhVmS6ePe+lUXMPyVNnLHGVWRgFQMAiBCDuFkkkwgCBcBIYPiQ9Y/Q/a/aufEWcLrPKtPzrmV8U7YpXb4YTRpQX24j/F9Pw4hIvutm5+yg1bXwVdWxdnybP/5Tat6hHRJzWbz3gK7N4yn1F6+7KQ4S/HfklOfrNj+dpuvv44DkLlr6uKxgUAgELEIC4WyCJCAEEwk0gLc2Z/LhU033HzRX1qXu4HQijvaz3Th7O/ehUW1mW94TRLEyBgKEJQNwNnR44BwKxISBJUuW/33r5ricCeJFNbDwtu9Ux8w5/O35yxp9b7nGBgE0IQNxtkmiECQKBEnh6aPonLw259o5A6xmp/KkzBTRu4ZHcaTMyU4zkF3wBgUgTgLhHmjDsg4BJCTzav9cTA7pVm9b0+uDeA2+EsJdvPH1iydpfu8uy/L/X4xnBMfgAAhEmAHGPMGCYBwGzEujfv3+5ejXOfzviQf0/IGO0WEfMPrTzhamLmxnNL/gDApEmAHGPNGHYBwETExg2JD1jWM8avetcVc50UXzy9dmCN1efGD57btZ00zkPh0EgRAIQ9xABojoIWJlAjx49rmpxS+LWp/tcpfttdUbhMWru4a+en5Kh+zfpjeI3/ACBcBCAuIeDImyAgIUJPDE4fcYjXa4cfHODCqaJcu0nv5/KXvfr428scr9lGqfhKAiEkQDEPYwwYQoErEpg5PDeu54feI0pRsG/nSmgiW8c3TzltcVtrJoPxAUCZRGAuJdFCPdBAATI6XS2veeOxIz+Af4MbCzQTXzzyA87vz/XXpblP19xhwsEbEgA4m7DpCNkEAiGwOODek1J/keVR+/66xUVg6kfjTqL1/56+IPP/njyzUVZS6LRHtoAAaMSgLgbNTPwCwQMSGDY4PTVfbtc2cmI6+8ffPb7mXe2nF7wyutLnjAgOrgEAlElAHGPKm40BgLmJ/DkkPSP+nWrdlejeuUNE8ymL86cX77x9LKpMzLTDOMUHAGBGBKAuMcQPpoGAbMSeHJI+ofpnaq2/esNsX97ndgZ/94nv789dUZmH7PyhN8gEG4CEPdwE4U9ELAJgeFD0txtm19xd5fWlavGKuSFb584uOuHcxmvvr70uVj5gHZBwIgEIO5GzAp8AgGTEBDvn69X87LHhzir1788wRE1r385lkfzVpzY882+C8PdbveqqDWMhkDAJAQg7iZJFNwEAaMSSE1NvaFezfg3Ovyt0s0d76xUOdJ+it9n/+zbszt/OpqXKsvyqUi3B/sgYEYCEHczZg0+g4ABCTz8gKv3tdUve7rjnYl/ueuvl4d1Md7Lid7dfOrXLbv++OHHQ3nPuN3uDw2IAC6BgGEIQNwNkwo4AgLWICBE/qqq5YY2rl+hVrvbrri23tWXBR3Ynv0X6L3PTh84cChv//7DFyfIsrwuaGOoCAI2IgBxt1GyESoIRJOAJEmNal1Vrn+FePaPapXjqt9yfUKVBteUr3zVlfFU5Yq4Yq6IkfnJ0/l0+Nd8+u/PF098u/f8qZO/5x89d4G/e/DY+QW5ubmHouk72gIBsxOAuJs9g/AfBExAQPw2/KlTp267spKjRUKC41bOqTZ5eaWTvxc0qF4lbndBAZ3ljB04czZ/+6kz3k9lWf7CBGHBRRAwLAGIu2FTA8dAwNoEevTocUN8fHyWLMvNrR0pogOB6BOAuEefOVoEARAgopSUlMYOh2OWLMvtAAQEQCC8BCDu4eUJayAAAjoJSJJUg4i+lmX5Kp1VUAwEQEAnAYi7TlAoBgIgEF4CEPfw8oQ1EFATgLijP4AACMSEAMQ9JtjRqE0IQNxtkmiECQJGI1C45v6BLMu1jOYb/AEBsxOAuJs9g/AfBExKACN3kyYObpuCAMTdFGmCkyBgPQIQd+vlFBEZhwDE3Ti5gCcgYCsCYlo+Li7uA7fbjWl5W2UewUaDAMQ9GpTRBgiAwCUEMHJHpwCByBGAuEeOLSyDAAiUQqBwQ93bsixfD1AgAALhJQBxDy9PWAMBECiDgMvlmk5EF71ebwJj7CHG2CwiimOMLcnOzv4MAEEABEInAHEPnSEsgAAIBEDA5XJlc85d2ioFBQV1cnNzfw7AFIqCAAiUQADijq4BAiAQVQKpqalNvV5vFhE1VjW8Az8gE9U0oDGLE4C4WzzBCA8EjEjA5XLN4pwPVPn2hCzLrxrRV/gEAmYkAHE3Y9bgMwiYnEDh6H0ZEV1HRDsKCgruy83NPWTysOA+CBiGAMTdMKmAI1Yn0LVr10oixvLlyzfUxirL8hfivs3ujSeiLkT0xIULFxbaLHZfF1DnnXNekXN+7vLLLz+waNGiE1b/PCC+yBKAuEeWL6yDgO93y2+88caB9957b4MmTZrUev/99y/5idNu3bodP3v2rGPdunVXapFZ9d7BgwcrfPLJJ1Vffvnl3RUrViywU+xKjtW5zcvLY4yxvMOHDx88cODAuz/++OPLsixfxEcIBIIhAHEPhhrqgIBOApIkNbv99tuntmvXrt3f/vY3nbVQzO4EfvjhB2rYsGEfxthiu7NA/MERgLgHxw21QEAXgYkTJ77Vrl27B1q2bKmrPAqBgJrAwoULe/ft2zcTVEAgUAIQ90CJoTwI6CQgSdI9PXr0mNerV696OqugGAgUI7Bw4cLP1q1b1z0rK+sXoAGBQAhA3AOhhbIgEACBOXPmXNOpU6df6tatG0AtFAWB/xFYu3btsfnz53f3eDwfgwsIBEIA4h4ILZQFgQAIcM5rENHRAKqgKAgUI/DOO++cycjI6ON2u5cDDQgEQgDiHggtlAWBAAgMGjRowKBBg2bffPPNAdRCURD4H4GNGzeefu2117p5PJ4N4AICgRCAuAdCC2VBIAACEPcAYKGoXwIff/zx6WnTpkHc0T8CJgBxDxgZKoCAPgIQd32cUKpUAscYY5e8FwHMQKAsAhD3sgjhPggESQDiHiQ4VCsi8Pnnn5968cUXxYY6TMujXwREAOIeEC4UBgH9BCDu+lmhpH8CWHNHzwiWAMQ9WHKoBwJlEFi8ePFN999//9eVK1cGKxAIigDEPShsqEREEHd0AxCIEAEchYsQWBuZhbjbKNlhDhXiHmagMAcCCgFMy6MvhEoA4h4qQfvWh7jbN/eIPMIE9Ij7iRMnKD09ndauXXuJN0lJSZSZmUnVqlXT5emWLVto8ODBlJ2dTY0aNdJVRyl07tw5GjZsGLVp08bnjxEuEXvv3r1D5hJoLBMmTKDRo0f7qi1evLhUHkr+Ro0aRa1atfLVEXkQNgLJXUk+4ihcoNlDeYUAxB19AQQiRECPuCtNCyHYtGkTTZs2jRISEmjPnj2UmppKV199tS6REILSunVratq0acDirgj7nDlzyhSzCKEq0axWPJW/iwrhEE9tw8KmuMQDjvj/jIyMEttRP5ht3ry5SNzDzAhH4cIM1C7mIO52yTTijDqBUMRdES8xctUrHFYbuQsGJY2MxYNMWaPqshK+YsUKaty4cdEsh/KQ06dPH91C7c+/stoN5D6OwgVCC2XVBCDu6A8gECECEPfQwfoTT2VWIyUlhcR0eDCXsDF06FCaPn16kbgHI9TB1AnEX6y5B0ILZSHu6AMgEAUCgRyF007LK9PsAwYMKJqqV1xWr0Wr7ysj93HjxtGYMWNo586dpL6vXd9Xr+n7W3PXrnkrI2WlbK1atah9+/a+5QBxqWcY1FP94t748eOLCXFJMWjTonfkrvVV7YsyvS7iHT58ODmdTvJ4PEVNCUYul4s6dOhQrHnFRmm2/fmnzaV6FkZpQO9sDMQ9Ch9UizaBkbtFE4uwYk8gkKNwWgEpaTOdek1YRCg2bolLjGC1DwQHDhzwrdsrI1x1WUWUxBS0WF/Wirt2ZKsI5IIFC3xtivV5tWiLfzt48KDvQURc6s15il9qsRRllI17ar/KEnfF78OHDxftLdCKqcJStLdv376iTXnqaXx/Sxh6hFptW2yg09ZR7qsfqkrzT9mEV1JvhbjH/nNsVg8g7mbNHPw2PIFgp+W3b9/uGw1rR3cl7axXHgR27959yW55f5vClGltMbLXjsb97ZZXdo8r7VSsWNEn3mLkrkyLqwVM+C82oimbA9WJKisG7ckAf+XVmwb9CbJ6ZkH454+BHnHXY7usB4KzZ8/6HmLUu+m1/pXWkSHuhv+YG9ZBiLthUwPHzE4gWHEXu+WFoAoBUu8IF0IyZMgQGjt2rN+jbv4ES30sSxkt169fnyZOnEgjR44sOvpW2rS8eMhQZgmEP2WJe25ubrGd/1pxLy2Gskbu2vvKg8rMmTOLbYJTzyQIf7S73vWIux7b/sRb/aCjzJ6U5p/Id0kXjsKZ/Vsgdv5D3GPHHi1bnEAo4q6MCMW0rTI6Lmvzlj/BUoRm0qRJNGLEiBLFXCvu2rPa6r+XJe5i5F7SOe+yYghU3P1xUh5ExH/DMXJX50BrW+/IvTQbZXwMcBTO4t8TkQoP4h4psrBrewKBirt2dKmMHFu0aFE0xS3EevLkycXOsosjXR07diTtdL565Nm8efNiU+nKvaeeeqrYmrsy1a59UFDPJJQl7spoVi1ooj2xbNCtWzffbERJMWhHsdq9Af46lXYdvKT9AupZEHUZ4Zfgp/it7EMQbZVl259/2mWAsmyU9kHBUTjbf40EDQDiHjQ6VASB0gnoEXd/a8rand7KW9qUHefqN6gJD9Tllc1r4t+1L7RRb9rr2bOnz/msrCzf6Pbo0aPFNskNGjSo2JvzRNvirW233nor3XTTTb6HC3GJf2/QoEHRpjVlXV7cU795T7tBsLQYFKraTYb+Tg74K6uOW21D7YP2BTTCjrLrX/y/uqzahr/1fuXtgmL/griUfOmxUdZnCGvuZRHC/ZIIQNzRN0AgQgQCOQoXIRdg1uQEIO4mT2AM3Ye4xxA+mrY2gUCOwlmbBKILlgDEPVhyqAdxRx8AgQgR0DMtH6GmYdYiBCDuFklkDMKAuMcAOpq0BwGIuz3yHMkocRQuknStbRvibu38IroYEoC4xxC+dZrGUTjr5DKqkUDco4objdmJAMTdTtmOTKw4ChcZrnawCnG3Q5YRY0wIQNxjgt1SjYo19xkzZrxOROKXbr6UZfmipQJEMBEjAHGPGFoYtjsBHIWzew8IPf7c3NwzWVlZW4moBhHdSkS7hchzzr8S/42Li/sqOzv7h9BbggWrEYC4Wy2jiMcwBDjn1YjouGEcgiOmI/DBBx+cmjNnTrosy+8SEUtJSbmVMSb+3FIo9uK/VYnoK8ZYkejn5+d/tWzZshOmCxgOh40AxD1sKGEIBIoTSE1NveXBBx/c2LlzZ/HliwsEAiYgy/Ke5cuX91yyZMkXJVVOS0urmp+fL0b1t3q93ltUwn9ajO4ZY2KUn8g5F7/TK6b2CwJ2BBVMRwDibrqUwWGzEOjVq1fN5s2b5/Tv379VYmKiWdyGnwYhkJeXR++8886LycnJzwXjkiRJ1wnBF2Lv9Xo7McbEQ+bNYpSvntp3OBwn3W73lmDaQB3jEoC4Gzc38MwCBCRJuq9r166vdOvW7S+VKlWyQEQIIRoETp06RZUrV36DMfbPcLbXtm3b+GrVqmmn9sWovzwR7eKc73Q4HDvFf2+++eZdY8eO9YazfdiKHgGIe/RYoyWbEnC5XF1atWo1onPnzs2uv/76Cvv27buEhPg1tJo1a1Iw986fP0+c87DaDNYX1As+txcvXiTx56effjq9Z8+eTzZt2vRgbm7uoWh8bCRJupox1pRz3kT5b+EofycRiT9VGWOvCtGXZfnXaPiENkIjAHEPjR9qg4AuApIk3VSuXLlDmZmZtUaMGNFLW6lly5b/6dKly88jRoyQ9N779ddfbz537lzdvLy8WjVr1sxJSEg4qa4bjE1RH/UCy0O4mOXn51/mcDhO7d279+v4+PhNS5cujelmzM6dO5dPTExsUlBQ0JQx1pWIqogfGyQisVFPjO6/UEb5siz/qOuDgEJRIwBxjxpqNAQCoRNwuVztOOcdiOghIvqac/6Gx+PJCt0yLICAPgKpqak3FAq+EHrlT0XRHxljWzjnW/Pz87cuW7bsqD6LKBUJAhD3SFCFTRAIMwFJksTI6WEiEuL+Fud8QU5Ozq4wNwNzIBAUAbF5NC8vT+wPuIwx1oKIxJ/DnPNPHA7HViH4siyXuOM/qEZRqVQCEHd0EBAwKIGuXbtWqlChwtOccxcRHeOcv8kYewNHmQyaMLhVjIAkSWLjXguv19uiUPBrE5F4Ic9Wxtgn8fHx/1myZEmxpSQgDB8BiHv4WMISCISFgCRJfyGiR4loIOdcJqLNHo9nfliMwwgIxIhAr169qufl5Qmhf1y8kEds7yCi7wun8sVRvM2yLB+IkXuWaxbibrmUIiCzEnC5XK2EqHPOuzDGZjscjllZWVmXbr82a4DwGwQ0BCRJuoMx1opzLvp+ayI6xRjbyDnfGBcXtyErK+snQAuOAMQ9OG6oBQJhI+ByuVI45xOIKJ6IZhPRLFmWz4WtARgCAZMQEFP5RPQPxthdnPO2RCQ25X1IROsvu+yyDzIzM8Vb93DpIABx1wEJRUAgEgRcLlcvzvkTRFTAOZ+OXe+RoAybZiYgSdJtRNS+8I84JfIxEa0Tf2RZ/tTMsUXad4h7pAnDPghoCLhcrns55+KVouLz929ZllcCEgiAQOkExNv1atSocTcR3UNEHcWLdTjnax0Ox1rxX1mWT4Hh/whA3NEbQCBKBAo3yo0jotsYY+PcbvfSKDWNZkDAcgRSUlKudzgcSUTUmYjuJaJVRPROQUHB27m5uT9bLuAAA4K4BwgMxUEgGAKSJA0hoslE9IIsy+ODsYE6IAAC/gk89NBDFc6cOdOFiLoyxrqL43ac82XlypXLWbp06RE7coO42zHriDlqBCRJupJzPosxdrXX630ML56JGno0ZGMCLpdLCLyz8B0R7zDGstxut9tOSCDudso2Yo0qgdTUVPECj4WMsbfdbvczUW0cjYEACJAkSZcRURoRpYsfwmGMZYg3PMqy/I3V8UDcrZ5hxBcTAi6XK4lzLkYKj8uy/GZMnECjIAACRQRSUlIax8XFPcw570tE4iz9PI/Hs9qqiCDuVs0s4ooZAafT2YYxtppznu7xeFbEzBE0DAIg4JeAy+XqxzkfRER/ENFrsixnWw0VxN1qGUU8MSUg1tiJ6D+MsQlut3txTJ1B4yAAAqUScDqdyYyx4UQUxzmf7PF4cq2CDOJulUwiDkMQcLlcMznnebIsi5fT4AIBEDABgcK3RI4kol8cDse47Ozsz0zgdqkuQtzNnkH4bxgCPXv2rF9QUPBNhQoVamRkZIjpPlwgAAImIuB0Oh9jjE1kjM1wu90jTOT6Ja5C3M2cPfhuKAKSJGWKt2bJsixeqIELBEDAhAQkSarBOZ/KGGtMRENlWf6PCcPwvf4SFwiAQJAEJEl6hTGWX1hd7JA/xDn/inOenZOT80mQZlENBEAgxgRcLtc/OedzGWOPut3ueTF2J+DmIe4BI0MFEPgfAafTuZQx1lPLpKCgoH5ubu5+sAIBEDAvgZSUlL86HI5Mxph4B85YM0UCcTdTtuCr4QiIn6hkjGVzzm9UObdDluXmhnMWDoEACARMoEePHtXi4+NXcs43eTyeZwM2EKMKEPcYgUez1iHgdDpnMMYGKxFxzv/l8Xhetk6EiAQE7E1AkqQriGgNY+x9s4zgIe727rOIPgwExOidiJYRUUMi2kFEXWRZPhgG0zABAiBgEAK9evWqnp+f/xERvSrL8lyDuFWiGxB3o2fIAv716NHjFsZYjbi4uJPacGRZ/kKSpEZElGDmey6Xy805l4hoKhFlKLFYJT5Vjq5wOByHsrOzf7BA10QIIBAQgcI1+E8cDsdd2dnZWwOqHOXCEPcoA7dTc+KHU2644YbH6tate0vt2rUrX7hwIU4bf7du3Y7v37+//BdffFHJzPfWrl17ZWZmZq1OnTodvfzyywuUWKwSn5Ijh8ORf/z48WMHDx7c8Pnnny9Zvnz5F21q06wAACAASURBVHbq04gVBAp30Q+QZflOI9OAuBs5Oyb2LTU1tWPLli1faN26dfPbbrvNxJHAdX8EPv30Uzpy5MiSrl27il/bwgUCtiIgSZLMGNvmdrtfMmrgEHejZsbEfvXp0+fyW2+99W2n09nuuuuuM3EkcF0HgT6MMbxDXwcoFLEOgZSUlJsdDsfHFy5cqL1y5crfjRgZxN2IWbGATydPnjxZpUqVKhYIBSGUQmDr1q0/TJ48uVdubq7p38WNRINAIARcLtdCr9e72+Px/DuQetEqC3GPFmkbtbN379676tWr95HD4bBR1PYMddu2bbRo0aIHX3vttUX2JICo7UrA5XK1Em+wk2X5ZiMygLgbMSsm9+mpp556a9CgQQ/Ur1/f5JHA/bII7Nq1i+bNmzduxowZpnp7V1lx4T4I6CEgSdIuzvlAj8fzsZ7y0SwDcY8mbZu0NWrUqFmPPvrowGuuucYmEds3zD179tDcuXOfnDp1qjgCiAsEbEVAkqTnOefM4/GIn4s11AVxN1Q6rOEMxN0aedQTBcRdDyWUsSoBp9PZljH2gizLLY0WI8TdaBmxgD8QdwskUWcIv/32G61fv/6OlJQUbKjTyQzFrEOgf//+5U6ePHmBiCrIsnzRSJFB3I2UDYv4AnG3SCL1h1GfMYZfwNPPCyUtRECSJPHK6UdkWf7cSGFB3I2UDYv4wjlvR0TrLRIOwiiFAKbl0T3sTqDwhTay+E1YI7GAuBspGxbx5fvvv+9y7bXXrqxYsaJFIkIYJRGAuKNv2J2A0+l81eFw/OB2u6cbiQXE3UjZsIgvmJa3SCJ1hAFx1wEJRSxNwOl0jnE4HMxoPwULcbd0t4tNcBD32HCPRasQ91hQR5tGIuB0Oh9zOBzXu93uoUbyC+JupGxYxJdgxH3Lli3UunXrIgIDBgygiRMn0ubNm6lbt24WIfNnGJmZmdS7d+8SY2ratCllZ2dTo0bil3CDv06cOEHp6ek0atQoatWqVfCGSqkJcY8IVhg1EQGn05nucDg6u93ukj/UMYgH4h4D6FZvMlBxnzBhAuXk5BQTNCEaqamp1KJFC5o2bRolJFzyc++mxSjibd++vU9wtQJ87tw5GjNmDPXt2zckcVfsrl271veAFClxx1E403ZDOB4mAi6XayznvIMsy23CZDIsZiDuYcEII2oCgYi7GMVOnjzZ70hVCF1GRgb16dPHkOI+b948Sk5OpmrVqgXUAVasWEEdO3b0xeRvdP3FF1/47plh5F4YOI7CBdQDUNhKBCRJ6kpEfWVZNtQUI8TdSr3MILHoPQqnCJsYVYqpYzNdYhlBjMDFw0mg4q6OM5JT55G0rcSAaXkz9Vr4GgkCEPdIUIVNQxLQexROWWdfvHixb21Yz6WebhbllSln5d/FKF9cYk1bu3ZdVt2kpCQS09iHDx/2zSSISywN7Ny50/f/Yh+AWCKYMmUKjR49usjd8ePH+x5OSrJfWlwlCbCYtRg2bBglJibS6dOnac6cOb5Yq1ev7tcnZdlCvXdh+fLlNGvWrGJr7ur7Il7l4UTxQ8Q+c+ZM+uabb6hfv35lpgTiXiYiFLA4AYi7xROM8P5HQO+0fEnirgibEDTlEsLWuHFjGjlypG+jnRgtC2EZOnQoCXEV69RCmMUlHhbEdLkQx1q1ahUJb1l11WKn+NCmTRvfg4eyB0AIn5hpEKIolgzU4ujP/vTp00udXvcn7ur41Q8oZfmk8FDanDt3Lr3++us+sRY+C97r168vmiURvm/atKnogUXsA2jevHkxbmX1a4h7WYRw3+oEJEl6nIh6yLLc1kixYlreSNmwiC+hiruCQYjR4MGDi9bjS9plLsS8U6dOPhEWI3dlFkBMm4tLjKoDratOhXq0q8wUaMW9NPulzUqUNXJXHk60XcOfTyLeBg0aFMWvfiBRRFv9wCRsKg8P4uVaBw8eDHjzIsTdIh9ahBE0AYzcg0aHimYjoFfcFWETv/vub0e8dl1bCOjevXv9rs+rp+VLEvdA6grmijimpKTQoEGDih0r8yfuJdkPZVpeK+4l+SRmNbQPN+oHB0XcxcOPv53zil2xBBHIUTyIu9k+nfA33AQg7uEmCnuGJaBX3EUAYrQp1q/9rbv7E3dlGll7NE6PuAdSVzui1v7dn7iXZD9c4l6aT/6m0/2Ju7LMUJJP6rV3PWftcRTOsB9DOBYlAhD3KIFGM7EnEIi4q9eXlY1p6ml59Y50f7vrxchR2KhTp06p0/KB1tU+LCjT4Mq0vPLgMX/+fPr88899L+ARI2f1zn/Ft2bNmpWYFH8PJaKwwkU9ci/LJ2VpQL10oLwsR/ybuISf6nPv69at862zL1q0iO69917f/gDRzpAhQ2js2LF6j+PhKFzsP3bwIEYEIO4xAo9mo09A71E4tWfaN9SJe/6mh9XTx6KM2MEu1tTFS1/UG+rEFLmyo13Z5X7gwIFLdpr7q6ue1lfb2Ldvn68NMctw++23+2yJSxnh+vOttBfwaNfpFT+FTbEZUFkfVz/0KDMdSuxqn4Tf6vtTp071+at+Q522TWXGRPi5Zs0aeu+993wx6T3BgGn56H++0KKxCEDcjZUPeBNBAnqPwkXQBZiOEgGIe5RAoxnDEoC4GzY1cCzcBAKZlg9327AXXQIQ9+jyRmvGIwBxN15O4FGECEDcIwTWgGYh7gZMClyKKgGIe1Rxo7FYEoC4x5J+dNuGuEeXN1ozHgGIu/FyAo8iRADiHiGwBjSLo3AGTApciioBiHtUcaOxWBKAuMeSfkzaxlG4mGBHo0YgAHE3QhbgQ1QIBHMULiqOoZGwE8C0fNiRwqDJCEDcTZYwuBs8AXEUrk6dOivLly8fvBHUNAUBiLsp0gQnI0gA4h5BuDBtLALjxo2b+sADDwwT74zHZW0Cn3zyCbnd7iFTp06dae1IER0I+CcAcUfPsA2BQYMGDUtJSZkqfkIUl7UJrFu37o+5c+dKHo9ntbUjRXQg4J+Ay+XqxTnvI8vyvUZihJ98NVI2LOJLcnJyi06dOs3v16/fzRYJCWH4IXDx4kWaP3/+5k2bNqVmZWX9AkggYEcCGLnbMes2jnnYsGGPt27delRycnI1G2OwbOher5ccDseWRx55JH3BggX7LRsoAgOBMghA3NFF7EaAjRw50vn88893zcvL6/3VV19R1apVizEQa/LHjx+nM2fOXMIG94zJ5fTp0yJf+ceOHXu/W7duXRljeXbr2IgXBNQEIO7oD7YlMHPmzDo///zzg0SUoIYwadIkee3atVd/9NFHbbRwzHbv/fffv+fgwYPp9evXX6DEYrYY9OSBMXZ2//79OwsKCnZmZWX9ZNtOjcBBoJAAxB1dAQQsTCAtLa1qXl7eD7IsX2nhMBEaCICAhgDEHV0CBCxMQJKk64jII8vybRYOE6GBAAhA3NEHQMA+BArF/T1Zlq+3T9SIFARAACN39AEQsDABTMtbOLkIDQRKIQBxR/cAAQsTgLhbOLkIDQQg7ugDIGBPAoXT8lmyLN9pTwKIGgTsSQAjd3vmHVHbhABG7jZJNMIEAQ0BiDu6BAhYmADE3cLJRWgggGl59AEQsCeBwmn5N2RZbmtPAogaBOxJACN3e+YdUduEAEbuNkk0wgQBTMujD4CAfQhA3O2Ta0QKAmoCGLmjP4CAhQmIaXnO+VKPx9PCwmEiNBAAgUtH7s9zzu822mcfv+eOrgoCYSCAkXsYIMIECJiQAEbuJkwaXAYBvQQg7npJoRwIWIsAxN1a+UQ0IFCMQOFu+dWyLDcGGhAAAfsQgLjbJ9eI1IYEMHK3YdIRMggQEcQd3QAELEwA4m7h5CI0ECiFAMQd3QMELEygcFp+iSzLLS0cJkIDARDQEIC4o0uAgAUJSJL0CmMsn3NennPez+FwzPB6vQ7OeXZOTs4nFgwZIYEACKgIQNzRHUDAggScTudSxlhPbWgFBQX1c3Nz91swZIQEAiAAcUcfAAFrE5Ak6VbGWDbn/EZVpDtkWW5u7cgRHQiAgCCAkTv6AQhYlIDT6ZzBGBushMc5/5fH43nZouEiLBAAAYzc0QdAwPoExOidiJYRUUMi2kFEXWRZPmj9yBEhCIAARu7oAyAQRgK33XZbufr169ePi4u7hnN+WmtaluUvJElq5q/JSNxjjA0SG+qIaCoRZajbjUR7Omz+hYiuqFq16tdz587NCyN6mAIBEMDIHX0ABMJPoGfPnne2aNFidO3atRucPXu2SmJiYr66lYYNG5675ZZb/li9evWVFy9edETjXl5eHnvllVeuS0pKOnr55ZcXKG3GwhcR+8cff5z43Xff5R06dOj7HTt2zJRleU34MwGLIAACGLmjD4BAGAhwzhv9/vvvywoKCm6sUqVKGCxa28T+/ftpy5Yt/12/fv3zCxYseMva0SI6EIg+AYh79JmjRYsRkCTptsmTJy+sV69eE4uFFtFwvF4vrVmz5tP58+ffu2zZshMRbQzGQcBmBCDuNks4wg0/gZdeemlRenp6n1q1aoXfuD0stmSMbbVHqIgSBKJDQJKk54motSzLbaPTor5W8Hvu+jihVIwJiHe3t2nTZtXAgQNbxNgVUzZfUFBAq1evntelS5f+pgwAToOAQQlg5G7QxMAtcxDo2bPntXfeeed7TzzxxM3m8Nh4Xr744osfP/fcc62M5xk8AgHzEoC4mzd38NwABHr16lX973//+/ohQ4aIM+W4giAwbty4bWPHjv1bEFVRBQRAoAQCEHd0DRAIgYAQ98ceeyyjZcuWnUIwY+uqEHdbpx/BR4gAxD1CYGHWPgQ4528S0YP2iTi8kULcw8sT1kBAEIC4ox+AQAgExMjd5XLldu/evU0IZmxddf369W906NDhn7aGgOBBIMwEIO5hBgpz9iKANfew5HssY2xcWCzBCAiAgI8AxB0dAQRCIABxDwFeYdWlS5fmpKWlOUO3BAsgAAIKAYg7+gIIhEAA4h4CvMKqWHMPnSEsgICWAMQdfQIEQiAAcQ8BHsQ9dHiwAAIlEIC4o2uAQAgE9B6Fy8zMpN69e/ttacCAATRt2jRKSEgIwZM/q4p2MjIyfP+tVq1ayPb0Gjh37hwNGzaM5syZ46vStGlTys7OpkaNGpVpAiP3MhGhAAgETADiHjAyVACB4gT0HoU7ceIEpaen06hRo6hVqz9fyKb8myLMoQiy8gCRlJQUdXEXDyf33ntvkZhPmDBB/OqbLj8g7vhEgUD4CUDcw88UFm1EIJCjcP7EXaASIti6dWvavHlzkegHi1DPyH3evHmUnJwc0shexJKbm0v9+vXzuSrEXFziwUWJafDgwbpG7zgKF2y2UQ8ESiYAcUfvAIEQCASy5l6SuO/Zs4dSU1Ppqaee8o3sQ7nKEnfxICGEONRpe62Ya30W9jdt2qR3uQFH4UJJOuqCgB8CEHd0CxAIgUCo4q6sVe/bt6+Y4GrX6BcvXlwk/Nr17fHjxxeNmNXiLsISDwtr164lMVX/17/+lV588cWiaJV6ykOHKCcu9QyCEPHRo0eTaP/s2bPUtm1beuyxx3w2lUs74yDsDRkyhMaOHatrzR1H4ULogKgKAiUQgLija4BACASCEXe1MIqmtRvqxEh+6NChNH36dJ84qgW7YsWKvo1rbdq08Qm3dkpfXXb37t2+zXXqzXrakb0Q4pEjR9LEiRN90/Tqto8fP07r16/3PTj480H8fr0yDa9GKHwSDyt6ZyGw5h5CB0RVEChZ3B8noh74PXd0ERAIgkAw4q7eUKcehatH54oryshZ2STnT7DVbisiLMqfOXPmEvHVintJu/iFL/Xr1yd/6+aKz/7EXdwTDxR9+vTRvfsf4h5Ex0MVECiDAEbu6CIgEAIBvUfhRBMlrbn7m5pXRFdMeYtLWSdfs2ZNqWvZarH2t2ven7jv3bvX7whcO/2vPHyUJu4iRvHnhhtu0E0V4q4bFQqCgG4CEHfdqFAQBPwTCOUonLCoFXcxOldvelNvgtPe03qkiPf8+fPp+eef990ubVpe78Y39dq72Gkvlgb8jdx//vlnX5u1a9fW3V0g7rpRoSAI6CYAcdeNCgVB4FIC4TgKpwinssFNiLl6Olx9Zlx4INayxTl5Zb1brJML0e/WrVuxtXGlrJgiV9a/lQcFIf6ff/657wieP3vigeOPP/4otnYu/GjQoIGvvLJb3uVy+R5OmjVrFnT3wFG4oNGhIgiUSADijs4BAiEQ0LvmXtob6kTz6vV27e51Ifpix7ry1rfq1asX7YIXdZXpdzFlr7wFT/yb2JAnNuapd8GLuuLYnbiUN8gpR/F27tzp+3dlg9/27dvptdde85VT/7t4k54Sj3ozYEk7/3XgxVE4HZBQBAQCIQBxD4QWyoKAhoBecQe4kgngKBx6BwiEnwDEPfxMYdFGBCDuoScba+6hM4QFENASgLijT4BACAQg7iHAK6wKcQ+dISyAAMQdfQAEwkggkKNwYWzWUqYg7pZKJ4IxCAGM3A2SCLhhXgJ6j8KZN8LIeg5xjyxfWLcnAYi7PfOOqMNEIJCjcGFq0nJmcBTOcilFQAYgAHE3QBLggjkJuFyuuzjnUuPGjbuMHz++njmjiL3Xs2bNWrthw4atBQUF7+Tk5GyLvUfwAATMTwDibv4cIoLoEWAul+t+zvn9RNSFiH4hovXNmjXrMWLEiL9Ezw1rtTRlypSPPv3000+JSHC9jDH2ttfrfcfj8XxgrUgRDQhEjwDEPXqs0ZIJCXTv3r1KuXLlughBZ4wJ8dnKGHuncJT5fVpaWoO777476+GHH/6bCcMzhMtTp079cOvWrZ1kWb6Ympra1Ov1Cs7iz18UoRfMxX1DOAwnQMAEBCDuJkgSXIwugeTk5Hrx8fFihN6TiO4koneEuOTl5b2zbNmyoxpvHK+88srb/fr1u1f8HCuuwAgcPHiQFi1a9NaIESMe0tbs2bNn/YKCAkXo2xPRp5zzBYVCfyywllAaBOxFwOVy9eKc95Fl+V4jRc6M5Ax8sT6BlJSUJnFxccM5543EiFEIOuf8+B9//PF/q1evvlAagSlTpiQNHTp0Vbly5RzWJxXeCNesWXNi4cKFD8qy/G5pltPS0qrm5+e/4PV6q6pmUE5wzp+RZfnH8HoFayBgfgIYuZs/h4ggSAKSJLVkjIkpd7F+fjkR7eOcTwxmrZdzPuCnn36aXadOnSC9sV+1L7/8klasWLHggw8+GLJhw4bzARBgkiSJnD1KRLcR0XdEtMLr9S7Pycn5PgA7KAoCliUAcbdsahGYPwJOp7ODw+HowTm/j4h+55y/HRcX93Z2dvbWUIilp6cn3nTTTa/edNNN7evUqVM3Li6OqlSpQvXr16cLFy7QoUOHLjFvx3u//fYbVa5cma677roPz58/P/6BBx7YJcvyr6Gwd7lcSV6vtztjrBsRHeWcZ3POl+Xk5OwOxS7qgoCZCUDczZw9+K6LgNPpFOu2XRljXcXonDG20uv17vZ4PLm6DOgsNHbsWMeuXbuaXX/99X+7ePFikwoVKvw2adIkef/+/Qlz5swRPhS77HgvPz//Ms75ztOnT2fPnTs3Tyda3cUkSXqKiOoSUQ9xmoExtpxzvlyW5W90G0FBELAAAYi7BZKIEC4l4HK57vV6vSmMMbGL/YQQdPEnOzv7B/CyBwFJktozxrpzzsVMzTHG2LwKFSosysjI+MMeBBClnQlA3O2cfYvF7nK52hUKegoR/ZdznhMfH5+TlZX1k8VCRTgBEpAkSSzD9CEiMX2f4fV6F3k8nk0BmkFxEDANAYi7aVIFR/0RKNwUJ8Q8hXN+knMux8XF5WRnZ4tNVrhAoBiB5OTkaxwORx/G2ANEdIExtvTixYvzly9f/htQgYCVCEDcrZRNm8QiSVIzxpgQcycRFRBRjtfrzcnJydllEwQIMwwEXC7X3ZxzIfJpnPOF4gx9Tk7OJ2EwDRMgEHMCEPeYpwAO6CEgSdIVhdOqYmq1PGPsfTHtLsuyeG0pLhAImkCPHj2uiouL68sYe4SI9jLGZrvd7pygDaIiCBiAAMTdAEmACyUTKPxxFjG6EqK+jDG2yO12rwIzEIgEAUmS0grPzycyxma43e55kWgHNkEg0gQg7pEmDPsBE5Ak6WoxVUpEDxMRJ6IM8UeW5cMBG0MFEAiCgNPp7MgYe4yIbiSiV2RZnhGEGVQBgZgRgLjHDD0a1hJwuVytiOghzvlDjLElRLTA7XZvBCkQiBUBp9PZhjE2jIiaEtEUWZZnxcoXtAsCgRCAuAdCC2UjQsDlconNcf2IqJFY7yxXrtyszMzM0xFpDEZBIAgChctD4gU59TjnkzweT1YQZlAFBKJGAOIeNdRoSEtAkiSxjj6kcOp9uizLYrSOCwQMS6DwvPxoIjrmcDhGZ2dnbzess3DM1gQg7rZOf2yClyQplYiGE5H4sZB/l/WLYLHxEq2CQMkEJEl6nIhe4Jy/5PF4xoEVCBiNAMTdaBmxsD+F65fPEtHVjLGxbrf7bQuHi9AsTqBnz551CgoKpor+7PV6h+bk5OyweMgIz0QEJEl6nnN+t8fjaWEkt/F77kbKRoi+9OnT5/Lz58+PIaL+jLFn3W737BBNojoIGIaA0+kcxBh7TfRvWZYXGMYxOGJrAhi52zr9kQ/e6XS2ZYxN4Zx/9ccffwxYvXr1hci3ihZAILoEUlNT/+b1et9gjL3rdrufiW7raA0ELiUAcUeviBgBSZIeEsfZxPE2WZbFWXVcIGBZAl27dq1Uvnx5sSn0pCzL4sVLuEAgZgQg7jFDb+2GXS7XP8VmI6/X2xFrkdbONaIrTsDpdL7JGKsky7L4QSNcIBATAhD3mGC3dqMpKSm3OxyOrUR0uyzLX1g7WkQHApcScDqdCxhjl8uy3BN8QCAWBCDusaBu8TbFyMXhcHzrdrtfsnioCA8ESiQgSZLMGDvkdruHAhMIRJsAxD3axC3YXkpKShOHw9GPMXbB6/VWZYyJ18dO83q9iR6Pp78FQ0ZIIFAmgbZt28bXqFHjP5zzNzwez+tlVkABEAgjAYh7GGHa1VR6enrixYsXj4qfYtUweFeW5fvtygVxg0BqampTr9e7w+v1NsvJydkFIiAQLQIQ92iRtng7kiRtI6LblDA553s552k5OTmfWDx0hAcCpRIofJtdZ1mWOwEVCESLAMQ9WqQt3k5qauoDXq9XvJwmQYTKGMt0u929LR42wgMBXQQkSdrMOZ/l8XgydVVAIRAIkQDEPUSAqP4ngbS0tKp5eXnrCkfvB7xerwujdvQOEPiTQOEPzkyQZbk5mIBANAhA3KNBOfxtsO7du9eLj49vyBg7oTUvjp9JktTMX7ORvMcY68I5Fz+iIX6D/QnRfiTb0xtffn7+FSdPnvzvhg0bDoc/FbAIAvoISJL0ceHPxb6jrwZKgUDwBCDuwbOLSc3k5OS77rzzzsdq1Khxc8WKFStXqFDBq3YkMTExv127dr9t27at0sGDB4ttcIv0vb179yasWrWqZpMmTU41bNjwbKTb0xvfmTNn4po2bfrLLbfcsvyZZ555/4MPPvj8888/z4tJAtGobQm4XK6BXq/3Lo/Hk2ZbCAg8agQg7lFDHXpDDz/88E1333233LJly5uuu+660A3a0ML7779/4qOPPlq0efPmpzds2JBvQwQIOUYEJEmqQUQ/yrJ8RYxcQLM2IgBxN1GyOedv5ufnPxgfH28ir43n6qpVq44tWbJkeGZm5mLjeQePrExAkqStjLGn3W63WLrCBQIRIwBxjxja8Bp+5ZVXej/44IMZVapUCa9hG1o7duwYvfHGG6ufeeaZe20YPkKOIQFJksRPw/5XluVXY+gGmrYBAfF77kTUWpbltkYKF7/nrsnGK6+8svShhx7qWblyZSPlybS+zJ8//+tVq1ZJy5Yt+9a0QcBx0xEQv/3ucDiauN3ugaZzHg6bigBG7iZJ1/jx49c//fTT7cqX174EziQBGMzNr7/++uNx48a5ZFk+aDDX4I6FCTidzg6MsZGyLLe3cJgIzQAEIO4GSIIeF8aNG7fh2Wef/cdll12mpzjKlE1gDWOsc9nFUAIEwkegZ8+e9QsKCjbKslw3fFZhCQQuJQBxN0mvgLiHN1ErV678cvHixd1kWf4xvJZhDQRKJyBJUn7VqlUT5s6di+OY6CwRIwBxjxja8Bpevnz57M6dOw/AyD08XBctWvTdO++80wniHh6esKKfgCRJex0Oxz3Z2dk/6K+FkiAQGAGIe2C8Ylaacy7e+DYtZg5YrGGIu8USaqJwJEnayBj7PxyHM1HSTOgqxN0kSVuyZMnClJSUhzFyD0/CIO7h4QgrgRNwuVxuIvK43W7xX1wgEBECEPeIYA2/Uay5h5cpxD28PGFNPwGn0zmDMbZbluUZ+muhJAgERgDiHhivmJWGuIcX/Y4dO7a+8MILaVhzDy9XWCubgCRJ4zjnXo/HI35kCRcIRIQAxD0iWMNvFOIedqY4Chd2pDCoh0BKSsqwuLi4um63e5ie8igDAsEQgLgHQy0GdUoT93PnztGwYcNozpw5fj1r2rQpZWdnU6NGjWjPnj00dOhQmj59uu/vSt02bdpQenq6r35mZiZt2rSJpk2bRgkJCcVsnjhxwldu7dq1JVIYP348jRo1KmRKpfkRqnEchQuVIOoHS0CSpL6c8797PJ6+wdpAPRAoiwDEvSxCBrmv5yjcli1baMKECT5xrlatWpHnK1asoMaNG/vEXH2pHwoWL17sE21Rt3fv3jRgwAC/4i4eDhYsWEDjxo3zCb9WgIUP69evD1ncy/Ij1LRgzT1UgqgfLAGn09mTMdZdluWewdpAPRAoiwDEvSxCBrmv5yhcSeJeWgiBjtyFuIs6zZo18zvKF/fee+896tatW8jkIjlyh7iHnB4YCJKA0+nsxhh7WJbl7kGaQDUQKJMAxL1MRMYooOconFbce1gY0wAAIABJREFUxRR6bm4u9evXr8QgAhV3raFICnAkbUPcjdGv7eiF0+nszBh7TJZl/CqhHTtAlGKGuEcJdKjN6NlQpxV3McpetWqVbz1eubRlIiXuop3BgwfToEGDfFP8yjT/lClTaPTo0UX+bN68mVq1auX7u3qZQJRv3rw5bd++vWh5QLu3QFlKEHWVaXyx3t+kSRO/yxDqHEDcQ+2RqB8sAafT2ZEx9qQsy0nB2kA9ECiLAMS9LEIGua9X3Fu3bl3MY/XmNiG44n5SUlLRunwkxF1pRziibV+9J0D8/8GDB4vEW/xdXGIznngwERv6xKX8d8yYMdS3b1/f3gFlY58oW7169aJ9AOJhQDxUKBsIS0ofjsIZpGPb0A2Iuw2THoOQJUl6nIh64PfcYwA/kCb1irtaPI0wcvcnstoRuhDvAwcO0NixY2nGjBlFmwHV4i9EW/vgojw8uFwuSk1NpZkzZxbNAuhgi6NwOiChSPgJQNzDzxQWLyWAkbtJekUw4u5vc1u0p+W14i4EOycnxzey3rZtW9GRO7E3ICMjo9hOf/WauxB3cd/f8TyRQmFXme7XcxQPR+FM0vEt6CbE3YJJNWBIEHcDJsWfS6EchVPbi6W4azfIacVbO52uve/vmJ+WlXrtvbSz9lhzN0nHt6CbEHcLJtWAIUHcDZgUfy7pPQpX1nqzstFNGVErU+S1atUqOpsuBFI7ii4JU0llte2I+uqyFStWLNroJ0bjZ8+e9Z2zr1+/vm90rvxdvCxHbK6bNGkSjRgxwueGMnoX6+5iRF+3bt1iGwdFO3v37i31rD3E3SQd34JuQtwtmFQDhgRxN2BS/LlU2lE4f2+oU+8kV+ypN7qJt9a99dZbNGvWrKI324np7AYNGvheYiMu9cY7rU/+3lSn7HzXtqN+O55YG9+5cyeJ9jt27EiTJ08uauf48eO+tXNxX7Qt/igb68QLc7RtKv6JekLwlTf0lea3EgfE3SQd34JuQtwtmFQDhgRxN2BS/LmkZ83dJKEYwk2IuyHSYEsnIO62THvUg4a4Rx15cA1C3IPjVlItHIULL09Y008A4q6fFUoGTwDiHjy7qNaEuIcdN47ChR0pDOohAHHXQwllQiUAcQ+VYJTqQ9zDCxpH4cLLE9b0E4C462eFksETgLgHzy6qNfUchYuqQyZvDGvuJk+gid2HuJs4eSZyHeJukmTpOQpnklAM4SbE3RBpsKUTEHdbpj3qQUPco448uAb1/CpccJbtWQvibs+8GyFqiLsRsmB9HyDuJskx1tzDmyiIe3h5wpp+AhB3/axQMngCEPfg2UW15r///e+3Bw4ceH+lSpWi2q5VG/vyyy8/fvLJJx9at27d91aNEXEZkwDE3Zh5sZpXEHeTZPT5559/1eVyDb3++utN4rHh3ZzMGHva8F7CQcsRcDqdyYyxwbIsd7BccAjIMARcLlcvznkfWZbvNYxTRMSM5IwRfHE6nR3S09MXde/e/Voj+GNmH3bs2EEffvjhoCeffHKWmeOA7+YkgJG7OfNmNq8xcjdRxpYtW9a/e/furxNRnIncNpSru3btorVr13742WefPS7L8peGcg7O2IIAxN0WaY55kBD3mKcgMAc453ds3rz59cTExNvy8vKoWrVqPgNiLV78/759+y4xiHvV6JtvvqGvv/76yA8//LBx+/bt02VZ3hwYeZQGgfAQgLiHhyOslE4A4m7CHtK1a9cmDRs2/Gu5cuVujouLyxMhtG/ffuPdd999ZMSIEZI2pGje27dvX982bdo89+ijj+6ItS9qLmPGjPmrEPeKFSt+lJGR8YcJ0w6XLUIA4m6RRBo8DIi7wRNkNvckSRK7zzvLsvxfs/kOf0EgGgQg7tGgjDYg7ugDYSUgSdLnnPOnPR7PB2E1DGMgYBECEHeLJNLgYUDcDZ4gs7knRu6c84EQd7NlDv5GiwDEPVqk7d0OxN3e+Q979JiWDztSGLQYAYi7xRJq0HAg7gZNjFndgribNXPwO1oEIO7RIm3vdiDu9s5/2KOXJOkTzvkITMuHHS0MWoQAxN0iiTR4GBB3gyfIbO5h5G62jMHfaBOAuEebuD3bg7jbM+8RixriHjG0MGwRAhB3iyTS4GFA3A2eILO5J0nSBs75BEzLmy1z8DdaBCDu0SJt73Yg7vbOf9ijx8g97Ehh0GIEIO4WS6hBw4G4GzQxZnUL4m7WzMHvaBGAuEeLtL3bgbjbO/9hj97pdG4lopGYlg87Whi0CAGn0/kcEXXzeDwtLBISwjAgAUmSnuec3220fobfczdgZ9HjEkbueiihjJ0JYORu5+xHL3aM3KPH2hYtQdxtkWYEGQIBiHsI8FBVNwGIu25UKKiHgCRJuznngzEtr4cWytiRAMTdjlmPfswQ9+gzt3SLGLlbOr0ILgwEIO5hgAgTZRKAuJeJCAUCIQBxD4QWytqRAMTdjlmPfswQ9+gzt3SLkiT9h3P+f5iWt3SaEVwIBCDuIcBDVd0EIO66UaFgSQRSUlKaOByOfoyxC5zzvkSUwxj7zev1Jno8nv4gBwIg8D8CEHf0hmgQgLhHg7LF20hPT0+8ePHiUSIqrwn1XVmW77d4+AgPBAIiAHEPCBcKB0kA4h4kOFQrTkCSpG1EdJvyr5zzvZzztJycnE/ACgRAACN39IHoEoC4R5e3ZVtLTU19wOv1ziaiBBEkYyzT7Xb3tmzACAwEgiSAkXuQ4FAtIAIQ94BwoXBJBNLS0qrm5eWtKxy9H/R6vSkYtaO/gMClBCDu6BXRIGBJcZck6QpZls9IktRMC1GW5S/Ev+FecTLh4MIY68I5H0dEG4noiXDYRP7+R0APz2h8aaCN0AhA3EPjh9r6CFhK3CVJalSnTp3BjRo1uq1///5xK1asqKXF0K1bt+Pi31asWFEd9/5HIBxcLly44Fi1alXNJk2anGrYsOHZcNhEjnTn6NipU6f2Tp8+/dyXX345R5blzfq+AlAq2gQg7tEmbs/2LCPukiTd2qxZs5fuvvvuznfccYc9s4mobU9gx44dtGnTpi82btw4MicnZ5XtgRgQAMTdgEmxoEuWEfcRI0YsSElJ+Wfz5s0tmCaEBAL6Cezfv59kWd64adOmXitXrvxFf02UjAYBiHs0KKMNS4h7cnLyNampqWtdLtetSCkIgADRmjVrLrz11ltPZGVliRMMuAxEQPyeO2MsSZbltgZyC65YjID4PXciam20fhbw77lzzk8TUSWL5QfhgEBQBE6cOEGfffZZWufOnZcGZQCVIkYAI/eIoYVhFQFLjNxTU1NvmTx58pd16tRBckEABP5HoDNjbA2AGIsAxN1Y+bCqN5YQd6fTef+zzz779m23Fb0gzar5QlwgoIvA0aNHafbs2fPGjBmDd/vrIha9QhD36LG2c0sQdztnH7FbloAQ95kzZ74xfvz4f1o2SJMGBnE3aeJM5jbE3WQJg7sgoIcAxF0PpdiUgbjHhrvdWoW42y3jiNcWBCDuxk0zxN24ubGSZxB3K2UTsYBAIQGIu3G7AsTduLmxkmeWEHeREM45t1JiEAsIhEJAiPtXX33Vr0OHDvNDsYO64ScAcQ8/U1i8lIAlxB1H4dC1QcAvARyFM2DHgLgbMCkWdMkS4o6jcBbsmQgpJAI4ChcSvohWhrhHFC+MFxKwlbiLt3alp6fT2rVrS+wA48ePp1GjRvm9v2XLFpowYQJlZmZStWrVYtqJhC+tW7e+xIemTZtSdnY2NWrUKGT/RKyjR4/22Vm8eLGPnZ0uf/1l8+bN1KpVK8NjwJq7cVMEcTdubqzkma3Efc+ePbRgwQIaN24cJSQk+ER606ZNNG3aNN/fhWCuX7++RHE3WuLPnTtHw4YNozZt2viEV/n71q1bQxZ4wUZcwq74/4yMDEM81EQrByLm3r17k1rMRf9JTU2llJQUw/cRiHu0ekrg7UDcA2eGGoETsJ24CwFs1qyZj5RW3MW99957j7p16xY4yRjU0Iq7cCEcAqTY7dOnjylGqeFGrzB86qmnLpmtKO1euP0IxR7EPRR6ka0LcY8sX1j/k4CtxF2bdK24m61T+BN3ZSq5fv36RTMSgcal2BDLE2aYgg40vrLKi+UIMYvjb/lFYb5v3z5Dz2RA3MvKcuzuQ9xjx95OLVtC3EXCgjkKV5K4iy/2wYMH06BBg2jAgAG+P2LqPjc3t9g0vmhXvS6tdJykpKSiL/6y7ivTv6Ku0o6yZCCmwoWt4cOHk7+9AHpH7ur1ebVv/uJ0uVzUoUOHYp8BZWpa7asooJ6yVqbu1f62b9/ex/HNN98U7zmnOXPmFMU4ZcoU33q+2h9lNkVMhyuXeq1faWP69Ok0dOhQ394JLRe1j6XZVrNWB6vn4UjkNCcnh9566y2aNWuWLy7FD6V9tX0lT6KcuERMycnJviWVYOrq2fuAo3DG/RqHuBs3N1byzBLiHuxROH/irhZCtXD4+9JWr0VXrFjR92UtLmUNX899UV75shaiIa4GDRr41nsVISjpy7ykNXchGIrwavcRKDGrRVwrkP5G7lpW6jVpMYrV+qvmqGzyE/GINeudO3f6/GvevHmxPQNiyluIthBvsSFQzW/NmjVFbSiivXv3bt/Dg7KBUO3j2bNnfVzFzIOYgVDvIVAeysR/tZsn9Yi7OnYlhlq1ahXZUvsh2hgzZgz17dvXF5OabSh1dc6o4CicAb+tJUl6lIj6yLL8dwO6B5csQkCSpMeJqIepf8892KNwZY3ctbvOteUVMVYEQrvxrLT7iqhrd+4rwiXErKxNbNoRodInFWEv6b4itsePHy8mjkp9rbj7E3vFtiJq/jbdKTMDCketHa0N9WdKmfFQj761bagfBqpXr05DhgyhsWPHXnJSoKRTEtqRvWhfr7hPnjzZ91BRt25d3wNKSeK+fft2v6caxAPVv/71r6DrlnSiQ2GIo3DG/YbGyN24ubGSZ5YYucdK3LUjTa2Yl3ZfiEhJYiQ6mJ4d6v6m5dWds6yNcVrxLUnclU1kM2fOLLYGL+I9ePBg0ZKF9mEkGHFXj4qVEbay9l2auIuy6lG/mkNZrP0xK2lNXbvmrszYlCbugosym+OvrWDqlvUlhDX3sgjF7j7EPXbs7dQyxF11FE5JfEmi52+kr15T97eOW9L9sjathVPclaNy2o6tV9wVX5UpbsWO+mEmHCN37XsEtH8va+QupuH9bQIsi7U/LuIdAv7O9mt3y/ubfVD3EzFyL+ndCKHULetLCuJeFqHY3Ye4x469nVq2vbj7m/ouTdzV5bXruNqOo+e+Mr2rvHRmxYoV1LFjR9/mPb3T8uqRX0lCpd78tm7dOt96t3bNWjtyF0fhlPV+9YhaiHxp6+PKC34CHblry2t3rZcm7oKftrwQT8FQxCF4lsRabGDUXspDmb9z7i1atCg2ElfPYChr/WK5RTzsTZo0iUaMGOEzr4zexcOGEP177rnH57My+xFo3dK+qCDuxv0ah7gbNzdW8syW4l7am8f8bQRTNncpm8bUG7r8vSVOGfGV9BY59YhQu5teiIl6g5q/dWHRAbW2Syonyqp3kIu/i/bFUTnFd/Vb7Uqzq7ajrqP+d39sRFkxpS9iVfYYiE1/QuCUHeRiDVqcTlC/QVD8m9hRL+oL9uLcubhEG2KELjbTic154lJE2B9PZfNZaff8faj95a+00bzwRfgm/oiHH7WYq+NS50qZCQimLsTdnF/FEHdz5s1sXltC3AX0YI7ChZosMcpu3LjxJRu4lJGxEJzS7sf6Fbahxm+X+spDQUnH54zIAUfhjJiVP32CuBs3N1byzBLiHuxRuFASqZ2WVmyJfxfT3ULU/W3wUu6b5S14oTCyUl1lFB/Od/dHgQ+OwkUBcqBNQNwDJYbywRCwhLgHu1s+GGDqOtrpbnFP+yIa9QtZtPdDbR/1o0/ALCKPo3DR7xt6W5QkqQcRPSbLcnu9dVAOBAIlkJKS0svhcIj3KdwbaN1IlmeBGI+VuAfiI8qCQDQJYENdNGkH1hZG7oHxQungCGDkHhw31AIBQxOAuBs3PRB34+bGSp5B3K2UTcQCAoUEIO7G7QoQd+PmxkqeQdytlE3EAgIQd8P3AYi74VNkCQctIe4iE7E4CmeJHoAgLEkAR+GMm1aIu3FzYyXPLCHuqampN06cOPGrhg0bOqyUHMQCAiES6MgYWxeiDVQPMwGIe5iBwpxfApYQ95SUlHtdLtc8l8t1LfIMAiBAvjf3rVy5MnX06NFu8DAWAafT+RxjrKMsy+2M5Rm8sRIBSZKeJ6JWRutnAR2Fa9u2bYWkpKQVaWlpHcVPcOICAbsTWLhw4berV69+xOPxfGx3FkaLHyN3o2XEmv5YYuQuUuNyubq0a9ducnJycqOrrrrKmtlCVCCgg8CKFStObtmyZdLkyZOn6CiOIlEmAHGPMnCbNmcZcRf5czqdyS1bthw2YMCAW8qXL1/l559/viSt4gdTfv/9dxI/HqO9cA9czNwnxA8Ovf/++7t279698OWXX37Vpt9phg8b4m74FFnCQUuJu8hI165dK61cufL3L7744o7s7Oxu2ixNmjRJ3rZtW5Xc3Nx7cO9/BMLFZd++fX1r1qyZm5CQcDJcNtV5gs0S+677008//fnFF1+svWzZsj9/Kg+XIQlA3A2ZFss5ZTlxt1yGTBaQJEnfE1FnWZb/azLX4S4IRIUAxD0qmG3fCMTd9l0gvAAkSfqcc/60x+P5ILyWYQ0ErEEA4m6NPBo9Coi70TNkMv/EyJ1zPhDibrLEwd2oEYC4Rw21rRuCuNs6/eEPHtPy4WcKi9YikJqa2tnr9Q6XZfmSfT/WihTRxJJA4U8L/1OW5S6x9EPbdkDn3I3kuN19gbjbvQcg/rIIYOReFiHcDwcBjNzDQRE2ighIkvQJ53wEpuXRKUDAPwGIO3pGNAhA3KNB2UZtYORuo2Qj1KAIQNyDwoZKARKAuAcIDMVLJwBxRw8BgdIJQNzRQ6JBAOIeDco2akOSpA2c8wmYlrdR0hFqQATwwzEB4ULhIAlY4odjgowd1SJAACP3CECFSUsRwMjdUuk0bDAYuRs2NeZ0DOJuzrzB6+gRgLhHj7WdW4K42zn7EYjd6XRuJaKRmJaPAFyYtAQBiLsl0mj4ICDuhk+RuRzEyN1c+YK30ScAcY8+czu2CHG3Y9YjGDPEPYJwYdoSBCDulkij4YOAuBs+ReZyUJKk3ZzzwZiWN1fe4G30CEDco8fazi1B3O2c/QjEjpF7BKDCpKUIQNwtlU7DBgNxN2xqzOkYxN2ceYPX0SMAcY8eazu3BHG3c/YjELskSf/hnP8fpuUjABcmLUEA4m6JNBo+CIi74VNkfAdTUlKaOByOfoyxC5zzvkSUwxj7zev1Jno8nv7GjwAegkDkCUiSlMkYO8Q5r8cYu118ToiossPhGJ+VlfVT5D1AC3Yg4HQ6lzgcjl845w2J6BbG2Aqv11vV6/X+X25u7qFYM8BPvsY6AwG0n56ennjx4sWjRFReU+1dWZbvD8AUioKAZQmIX0wkojs0AR6TZfkqywaNwKJOwOl0bmeM/VXT8GFZlq+JujN+GoS4GyELAfggSdI2IrpNqcI538s5T8vJyRFfaLhAwPYEnE5nZ8bYIiKqrsBgjK1yu9332R4OAISNQGpqajev1/smEVVRGV0uy3KPsDUSgiGIewjwYlE1NTX1Aa/XO5uIEkT7jLFMt9vdOxa+oE0QMCKB/v37lzt58uRaImpX+Bn5xev1PoD9KUbMlnl9kiRJfAevI6JWhVGIJZ8+six/ZISoIO5GyEIAPqSlpVXNy8sTHUqM3g96vd4UjNoDAIiitiBQOHrPJqJKGLXbIuUxCbJw9L6EiCoSkWFG7b6H2pgQCaLRzp07JyYmJtYqKCiozhj7XW0iPj7+0NKlS49IktRMa9qK9xhjXTjn44hoY3x8fKqdYveX9+7duzesUKHCRbNvliqh//68dOnS47hX/JMdHx9fKpdKlSqdOnny5FdEdB0RDSGiT4WFsuqBtd/v0GKsHQ5HbSL6Ljs7+7sgvsoNUaV///51f/31V7HhspiWCOdkWf7C3+fN3z2Hw1HB6/VmEpFg0pGITvkLMECb3Ov1/iTL8q+hwDKFuE+ePPm+hISEf9WsWbNufn5+hYSEBK866DZt2vx25ZVX5q9YsaJojU25b8V7Fy5ccKxatapmkyZNTj300EO/2Cl2f3l/5513qv7000+/Hj169KNvv/12SXZ29mehfCiiVVc8sP7lL3958rHHHqt5/fXX37JixYp62rbvuuuu36pWreq3b+Ne6VzGjRvX4MCBAxW7du16WOEKZmHpS/zMmTMnDh48+Pm2bdueDlWEovV5E+389NNPCbVr135848aNvQ4cOFCjUqVKBer2b7zxxj9uuOGGc/60pKR727dvTzxy5EiF2bNnfxNIPdGuP5uMsfxjx44drl279pROnTqJkx5BXYYW97Zt28Z/+OGH94snI855xbi4uKCCRCV7ENi8eTNt3bp106effvovWZZ9IzWjXg899FCVevXqzbnzzjt7JCUllXM4HEZ11bR+FRQUEL4zIpe+o0eP0lVXXbWIMfZg5FoJn+XRo0eP79KlS9/bb7/92vBZJbp48SJddtll4TSptvVMjx495i5fvvy3QBswtLg/9dRTwwYOHPhigwYNIkYuUGAob2wCP/zwA23YsGHWI488MpiIuFG9HTp06Etdu3Z9skOHDnhiNWqS4JcuAmvWrHHPmzfvydzc3J91VYhBodTU1OTU1NQZPXr0MMQxNb0IfvrpJ1q8ePEbI0aM+KfeOko5w4q7JEk1/vGPfyx79NFHW2FUE2habV9+F2OsqVEppKWlNWjZsuWSIUOG3GlUH+EXCOgl8Nlnn3kXLlz4wOzZs8XasyGvF154YfmDDz7Y7ZprTKXtPpZut/uHZcuWPZyVlbUpELhGFvc70tLS5O7du9cNJCCUBYGTJ0/SW2+91XrYsGFbjEhDkqTrhg8f/kGLFi3EZi9cIGBqAgcOHKAlS5a8+txzzz1hxECSk5Prde7cedkjjzyifeGMEd29xCex3Dh37txHMjIyFgTisGHFPSUlJSk1NXWxJEmXbJILJECUtR+Br776iubNmzdu+vTpY40aPef8ByJqYFT/4BcI6CVw6NAhmj59+ooXX3yxu9460SyXnJxce+DAgfI999zTIprthqutjz/+mN54442n58+fPzkQm4YVd0mS7nj44YdXdu7cuWYgAaEsCHz//fc0Z86cZ15++eV/G5FGampqi+HDhy+74447rjaif/AJBAIh8Ouvvwpxzxo3blyvQOpFsyznXOw6T45mm+FqSwxWZs2a9cjrr79ujZG7JElXzp8//9PExETxUn5cIKCbgBnEXTy4JiUl1dAdFAqCgEEJCHH/+OOPn+nSpYshH6YlSao1YsSIjGbNmvneWGjSqxpjLKBz74YduYsEcM73ENENJk0G3I4RAYh7jMCjWTsTSGGM5RoRgBD3pKSk9/r27XuTEf0ryydx5HDx4sXNn3zyyR1llVXfN6y4Y1o+kDSirJqAEPc333xzyKRJk2YakYyYlsfI3YiZgU/BEBAj9zfffHPWk08+OSiY+pGuY3Zxt+K0PNbcI93rrW2/IWNsrxFDhLgbMSvwKVgCRl9zh7gHm9kI1cPIPUJgbWBWjNyzsrIeHD16tPjZT8NdQtwfe+yx5a1atcJmUcNlBw4FSgDiHiixwMpj5B4YL5S2MAGjr7kL9DgKZ+EOaLPQzCDuPXv2XJmcnNzcjKmBuJsxa/A5IgSMLu44CheRtMNojAgYXdwLH6ZxFC5G/eOSZgM5CjdhwgQaPXp0kY3x48fTqFGjjBJK1P3YsmULtW7d2m+7SUlJlJmZSdWqVQvZL9HO4MGDKTs7mxo1ahSyvXAZMIO4l7ah7sSJE5Senk5r1671i2TAgAE0bdo0SkhICAqZyH/v3r19dbX94dy5czRs2DDxngDf/WDb0tM3xOdWXOH+rK5YsYJEH3jqqadK5BNsXHqAi9hFbMrnTPt3tQ0tb3/2w+Xrnj17aOjQoeJMelg/r1Y5CldaLgygKfY9Cic6bmpqKs2cOZNatWql5zNo6TJKR23Tpo1PKMSl/NvWrVtDFmTlAaJp06Yh2wp3Iswu7goPIQ6bNm0qJuRKP9+5cyeJ11KG0tcVkff3xSXyu2/fvqK+E0iOYtk3RB/PyMigPn360NmzZ33+i4cHNSdRZsqUKTRo0KCwPOSWxkZhUdJDtXiQGzlyJE2cONHni/ZBQOR7wYIFNG7cuKAf5oR/Sr8R/x+hh3HLHIXz93AmBkuxEnjbH4WL1FNpIF9q0SwrvhRyc3OpX79+fpv1J+7qD7kY1SiiH6zfekZnYhTVuHHjkEcK8+bNo+TkZF1fxlY5CudP3EWulJG9+P9QZmFEbo4cOeIbnS9evLhYfxC5FZfehwdtf9TTN4Ltd6XVE98Du3fvpm7duhVx0op7JNotS+DVI3l1WcFt+/btdM899/j+2d8oX+SpY8eOIYm78tmP1MjdSkfh/OVA5C8nJydSD0aldknbr7nbTdzLmtIsSdwVYRBf2qFOh5b1BR6unJQ2rVnKp8L0R+FKEndFBMRoQivKgQiX8uDldrsv+eIKVNy1/bGsvhGIn4GUVT9MKn1dLe7ic/Hee+/5xD9aVyD9N5Cygfofrs+jtl2jr7kHehTOXw6UWa5QZ8sCzZkoD3HXrCcp4larVi1q37590Rq0OjnaNRZl2kX598TERDp9+rRv/VGpp17PVk+1KV9mb775Js2ePdtXR1krE1OAYk9AWeubyhd1ab6LUbB2PdZfhytJ3P09gaqnekVn0q7xlbRGq/4Cr1u3btFarZiqF2u66jVPxaYyVaqsJ6t9V08TN2nSxDfiF8IT6H4KqxyFK03clZylpKQUPaRp91qUJfwvVFbXAAAgAElEQVSKECq5E9Pw6nVi9chd+1lR+rIo468/in8X+zH8fR7EXgFt/1SEWEyni0v0H+2Sj7afKl+U6s+NWrj9ibt2hqG0z1r16tV9S31iCUTNUrsnQvu51uYtEMEuqazSpmhLfHYOHz7sG0Vu27ataP+E4KHNufKZEizF1P7rr79ebM1d/dlWf+7Fv4vlDdHe8OHDS52StoO4a783tfu8yvoeE3uSlP579dVX+z6zx48f1/WQCXFXibtaaESHV0RbJOTgwYO+NUxxiY1Dypq08sX4wQcf+ARFiLP2y0WUWb9+fdGXqfIhdrlc1KFDB59NpY74f+WLQSS+efPmxdoTXypjxoyhvn37+qaslQ/v008/XdR+Wb6LB5eSRt//396ZgEdRZHH81SThTCAgEDmCgIKsICAbWBWElUVOwZBMzYREVl1WBIVlUVxcUJd1EXVVlEMRBAQhJJkOEXQFFFQExOUWFARUQAU5w32EzFH7vTiVbduZpCdMZnp6Xn/ffDmmuurVr7rrX8erKn/OIf4aGJKD1ndBXVFJYZa9frW4o60TJ06EGTNmlA6da3tv2vlFdU8C75dzizhMqXbUkxWN3iFoo8+5Y171LIUrS9zl89KsWbOS5xmZaZ24yuvZq3u52saCuueuFWL5t2wM1KhRo+TZVj+P2nl3+T6gT4x8F/AdQzHq06fPLxoI+D+cglHHqRZ/bEzI+NWVKuYBbevQoUPJu+jPMVHbiJfOg+p6AhuUUuy0bNWjFFq7pFiqhfJqxV2dD/X7q+2Ja98TdbpYRtjJQF7SoQ7Dy8YZ/pT5atGiRWmDobwGIt4XCeIeyFI4f3PuZT0PUlfw+Ftf9RhqkqzvsdGIzzA2ZPVMjZK4l9FzlwKorizxhcWWqS+vY3VrXt7rTyylmGMrTC1I2l6DNk5tL0v2QrCCGTt27K8qS7XtsmGiR9zVDnXyBcaKy58TlfSyx0oAe84jR44sEW1f3vBSvNExCXlqWWrFXd1LUA9PYQWSkpLi1yHSbOKudymc3p67fF58lbWsdHx51mv9IeQzieWBjQbZc/clTupGoBRrrbjreR+kzVqRVIsNvoNaIfMVftWqVSUNB7kSxFfPHeNZvnx5yfuFl6933VfP29eqEPVIgloEK7Pn7k8QZE9Sir9scGF46Tehfh+lwGhXZMj7V65cWVI/6mlQG13cvY1p3UvhfNXNvlYsqDVBfo/i7sux29dzpq4Dy/rdjOIe0Klw2pe/vJcWndG0nsgScFnirn5Z1AXiq5eq9tT1Je6BNC6CJe6y0lQ7h6h7bSjU0m6sAMpywFG/BL685n2J+/79+/2ONqiHutSNDzOKu5695fXOucuer7biL4+bL2dHOfyIz0GbNm1KhMFXPGpx1fay8RnT+z7oFXc9Yq91MNUz515ePYGNIn95wQYQermjt7u6YRVKcVfPBUtG+D/sbGhFRl1H4rtdVsO9vGdHXfeZZSmczJOekRb1MD1Ojai1xF895m9KV6fIR/dSOLUQlffSaofa1IDLEndt70j9QOjpqcjeTVkPUHm2X03PXSvusgUvnY7UFaKc3/fnbayu9HAqA/9Wt/R9ibu/BpWav6ywpMAHUtFgPEYflte7t7w/cdd6y8teGuZdPXpSVuMAw/oSd3VvROtnoh4CVz8noei5o73aOXe1PeppBPks+RJ39XfYGMC5fe2UQlk9dznlJ+sBX74toRJ3X8PHcmoG86kd+tWKu69lgpJPoO8cAJh2KZxWfLXl6+8909ZjMh713LuekRFaChfgsLx2/lhWHriMBpedaF942RvBYWt1pSKHAvG+QMRdVgrqClkui8E0yqtw5PwYzver5xm1ow/axoh2TlBykL0+7VwmpqMWbUxLriNWz43LSk89NKuuTJAPDr2jj4HaU1/Ok2IPST1cinbKXr6sxObMmQNbt24t1wnFzEvh/K1XVg+pY6VdlrDJZ8TfMkWt34V2jh2HvbUVmvZ5vHjxYkDvQ3nD8lp/DW2F62uppD8GMj/4zPtqmOgRd/mcS1bqpaVaYdQ2csvqqfkL64uPNqz2XfXnBCZH2bDH+eKLL/5ieZdcdocNn0CG5c22FK6szbnU5attWOOwvK96DKfO1Hsr4HOj9VHy91yYcVhe96lwWs9F7Glia0ftKKN2EvHn6Yv/R2cIjE/rZKNu0crdvfB/cn5SzlXji4NOQxiHnM/CuFAItXH68rr1lb4v23FODO3wNRfkbz5f5kE7367mh/GhoxTaLucRfXmGYlzqPKu9oiUXtaOUbBD588zHlwJ7nZKR1nEIhxjxCmADjohdCufPEcxf+alHj9Q7E/pbtqON35//BcYr52u1Pif+VlTg/7UOptr3Yd68ebBx48bSsn7iiSdg+/btpe8LPnfYsJOrJDDOyZMnw/jx40vvkXnG52T69OmwZs2aX+z5IBux/ipMf++69l0bMWIEpKamlkSjFkVZB2RkZJR8l5ubW+LHor0fRxP79+//i/t9+a/48umR75+2vPz9H9NHZtJOrWMxvls4Hafeoc7Xu43vv78dDH3xNPqcu96lcGWVgTrf6joMWWNnEBtJ+EzhioS33nrrV/WYdGhE/rj6Ai+9y+qiWtzLagnTd9FHwCxL4aKv5PznWLuETYaUo11yExhiFnoCZhH30JPTlyKJuz5OFCoKCBh9zh2LQM9SuCgoKt1Z9LdpUyA7F+pOjAIGRCASxD2QpXABZT4EgUncQwCZkogMAkYXd71L4SKDdmis9DdVoXdoMzRWRmcqRhd3b2Na91I4o5WiGcU9oKVwRisQsid8BCJB3PUshQsfQUqZCOgnYLalcPpzHtKQ0bsULqSYKTFDEyBxN3TxkHHmJGCapXBGK56oXwpntAIhe8JHwCxL4cJHkFImAvoJYM/dTEvh9Oc8NCHNOCyveylcaBBTKhFGIGKXwkUYZzI3ygkYfc5d71I4oxYjibtRS4bsCjkBPDFr3rx5gydMmJAb8sR1JIgOdaNGjVrapUuXJB3BKQgRMDQBEvfKLR7TiXtaWlq3oUOH5vbr169h5aKj2M1GYPPmzbipyONTpkx5yah5E0LsA4CWRrWP7CICegnghkP5+fmzx40b95Dee0IZrkePHtc//fTT87t37941lOkGKy2sz+bOnXvfrFmz3g4kThZI4FCGveeee5I55+9lZWW1D2W6lFbkE1i5cuXluXPn2vLz8/9jxNwMGjSowfDhw9/r1atXZyPaRzYRgUAIYM8yLy/v0UmTJv18lrYBLyHEPwHgaQOaVq5JX3755bFnn312QF5e3uZyA6sCGFbc0cajR4/ak5KSDDm0GghkChs6ArhX/ty5cz/fsGGDPTc398fQpRxYSpMmTZrft2/f+3Bvc7qIQCQTKCws/GTEiBFDFEU5bNR8LFiwoG/btm2XR+j79k/G2MRA2Rpa3DEzhw8fniOEGIoHNdBFBMoi4HK58KSzA8uWLRu3cOFCxci0OOfdu3fv/mJqamoneraNXFJkW1kEfvzxx8Lk5OTujLFdRibFOb8xJSVl6sCBA3vjaZeRcJ0/fx7PYNh51113VWj02vDibrfbO6WkpExs06bNrU2aNKnLGIP4+HjAs5TxgANfF30XXVwuXLgAycnJxbVr135z+PDh82fNmrUlEl5em83WrWPHjk/efPPNnXr37p145swZwBdae+HzjDu00Xe/JENcwvNMnDhxArdPhq+//nrnt99+O3vSpEmvRcL7hlrStm3bx1u3bt21VatWDZOTk6FOnTo+dQRPPkxISAj5d3iAFo4+nj59umjLli3b1q1bN01RlLyK8DW8uGOmUlNTE6tWrdq5cePGv2OMXZOcnLxr9OjRmydNmtT70qVLtdQZT0pKOhgN32VmZr6flJS0rHr16qdl/qMl79pyj42NPXvy5MllM2fO3FuRlyCc99x///2J58+fb5qfn1+0evXq5h9//HE3rT2TJ09WVq9enUTf/ZJMeVyeeeaZvvv27XuwadOmOeo7y7uPWJf9DHo8Hmxsfn/+/PkteXl528L5/gSa9sSJEy27du3q1bBhw1uHDBmyJiUl5cz48eO5Np60tLRVer87c+ZMy3PnznVo2rSpEsh96jTlfU899VSq0+lkBw4c2OVyudYVFBQcCTSPMnxEiHtFM2fm+zjn3wBAX0VRvjVzPilvRKCiBKxWay/G2GOKovSuaBx0HxEojwDnfCAADFUU5Z7ywobyexL3UNIOYlqc87UAMF5RlPVBjJaiIgKmIcA5fwIArIqipJgmU5QRwxGw2WzPA0ALh8NhM5JxJO5GKo0AbOGcrwCAdxRFmR3AbRSUCEQNgfT09ActFsv9iqJ0iZpMU0ZDTsBqtT4JADi1NizkiZeRIIm7kUojAFtsNptNCDFBUZQKeVIGkBQFJQIRSYCG5SOy2CLOaM75F4yx1Q6HY6yRjCdxN1JpBGiL1Wqdyhi7PS4urtfixYtLHesCjIaCEwFTEiBxN2WxGipTNpttGgBca7QheYRE4m6oRyVwY2w221ghxCTsxefn578ceAx0BxEwJwGr1fp3xlh/RVEicttRc5aKeXJls9kWCCHqut3uEQUFBYeMljMSd6OVSAXs4ZzfxhgbI4TozBh7xuFwzKtANHQLETAVAeq5m6o4DZMZq9V6O2NsLmPsU4fDMdwwhmkMIXE3aslUwC6bzTYAAIYIIfowxmZaLJapubm5P1UgKrqFCEQ8ARL3iC9CQ2UgIyMj2ePx/FsI0Z4x9oLD4VhgKANJ3I1cHMGxLT09HTf7GcQYw80ZjjPGFhw/fnzOmjVrXMFJgWIhAsYn4B2W76MoSnfjW0sWGpVAenp6a8bYBMZYT8bY9JiYmNk5OTknjWqvtIt67kYvoau0j3NuBYD+uNEfAGwTQuRcvHhx4YoVK65cZdR0OxEwNAHquRu6eAxvnM1m6y2EGAMANwDAHLfbveBqdowLdYZJ3ENNPIzpWa3WLAC4izHWBwDwxLT3vGvlvwyjWZQ0EagUAiTulYLV1JEOHjw4yeVy4bn0QwFgP2NsscPheDMSM03iHomlFgSbOefYm8fhyjsBoCUArBJCfMAYW2HkoxuDkHWKIkoIcM6xgn6AvOWjpMArmM0BAwbUqF69+h+FENj5aQ4A+YyxAofDgbuARuxF4h6xRRc8w+12+288Hg96gHYRQuCyoZoAsEYI8UlsbOzq3Nxc38fMBc8EiokIBJ0A9dyDjtQ0EQ4ePLie2+22CyFw2rK9EOJdxth/ioqKlr/33nuXzJBREnczlGKQ88A57wAAuKzuViHEbQDQAADWM8bW4fKPvLy8zUFOkqIjAkEnQOIedKQRHaHdbm/v8XjwcBc86KWREAK38F7JGPtQUZSzEZ05H8aTuJutRCshP5zzG4UQKYyxTgCAn995nfM+Z4xtcLvdnxlxE4dKQEFRRhABEvcIKqxKMLVv375VExIS7vZ4PP0YY30B4IQQ4kOLxYJbxX5QCUkaKkoSd0MVR2QYk5mZWae4uLgjAPwWP4wxPHWrNgBsEkJsZIxtdDqd/126dOmZyMgRWWkmApzzzwEAe2L1AKAZAGwBgAQAGKsoCn5Hl0kJ4DJgi8WCR/z2AoBbAGA1Y+wjnGJUFCWqHIdJ3E36kIc6W3a7/XqPx3OLEOIWxhi+VCj8uNxuK2NssxACh/I3mXH4K9SsKb2yCXDOl3mHXtUBDyiK0oLYmYsA+gu53W5cf94TAHoAwG7G2BoA+FQIsVZRlAvmyrH+3JC462dFIQMkkJ6e3sZiseBuTuiwgvP4KPoo+LjefptX+LcoinI0wKgpOBHwS4Bzjk6hiwDgOhlICLEoPz9/CGGLbALp6ektGWMo4j0YY78HgELG2FqPx4P+QOsURfkhsnMYPOtJ3IPHkmLSQcDrmd8OAG5GL1XvB73z8djE7R6PZ3tMTMy2vLy8r3VER0GIgE8CnPN8AEj3fvkdAGQqirKJcEUWAewgxMTEoIh3F0J0w+kWIcR6r4PvBkVR9kZWjkJnLYl76FhTSn4IZGRkNHO5XG0ZY229oo/Cj79jpYxOezs9Hs9O/Em9fHqM9BDw9t5xk6ZEAFioKMof9dxHYcJLAA9lAYCujDEcfcHPaSHER+i4i3UBibn+8iFx18+KQoaQAOe8thAiDZO0WCzthBDY28dPMQDsFELsQLG3WCw78/LyvgqhaZSUwQl4/T8aAsAb3g2aHsOeXlxc3PeLFy8+bXDzo8Y8znkVr4BLIcefu7Gs5Ica8xV/HEjcK86O7gwDgbS0tOtiY2NLxB4/jDEUfHSUQsFHsd+h6uWfCoOJlGSICXDO+zRpUGVotaqsZWJ8TO2mSXHVG9SNi//xmLP6noOXLXffkXjl1FnnpcMnnBeOFbouXbjsOX65GFYUnnUvys3NxW2Y6QoBAdw4xul0PmKxWKp6N8tCMd8gh9ldLtd6WmETvIIgcQ8eS4opTASGDBlSs6ioqETsNb38LwDgghACewO78afT6dz97rvvng+TqZRskAhwzpsnN6j6r8R4S+eut9RslNK6Rs2EGhbdse/9/gqs2Xbh0P7DVw4dLix+OTtbwTl6uoJIwG63d/R4PLgnRmfcG4Mx1lgIsZcxthx75kKIzxRFuRzEJCkqFQESd3ocTEvAarX+wWKx1ACAm/AjhMCfbQAAvfNLBF/9ieZlM5HyEAwaNOia5o1qvHldo7jf8jsTmzasF3fVpn+05fyFjzdf+Pbbw8VPOxwOnKenK0ACGRkZjTweT2chRKmYA8ABIcQm3PfCYrFszMvL2xFgtBT8KgiQuF8FPLo1MglwzvEIxxLBV31Q9H/yij166pcIf2xs7Pc5OTnHIjOn5rJ6xIODRzWuF/uX++++5obG9a9e1LV0ln569uT6HRd2HjkFVpqbL/PZYenp6Z0tFksX734WKOjouLjR+9kUFxe3kRiG9/0jcQ8vf0rdQAS8a2hLBZ8xhr/jEH6yd3OMEsFnjO2uUqXK7oULF140kPmmNmXMI1kr7uocf2vf22qhiFTadbTQBW8sPbln9/6iRxRF+bjSEoqgiL1+LiU9cm/PHH//yrsb5XGLxZJLS1eNV6Ak7sYrE7LIYATsdnsr75C+engffz8k5/Llz+Li4t1mOVXKCMWAqyZaNKq6aujAup1aJlcNmUnTlBM/7P6u6LlZ83LR4z5qLu9+7Fohj1X3yqtVq7aRGrbGfyRI3I1fRmShQQlI0RdC4JC+eogfd8kqnc8XQniuXLnyDol+YAWJwn5Dk6pr/ppRv0ODOqgvob3mv3/qp027Lr04c07Oq6FNOXSppaent4uJiUnBg6G8zzBuFLNRM1eO+03QFWEESNwjrMDIXOMTwFP0VE58bRhjuOYaj87FOf09Qog9jLGSj9Pp3PPOO+8cN36uQm/huNFZmx7NbNApHMIuc/vm0sJDa7df+OuiHMeS0BMIboroa4IibrFYpJjj+Q+HhBBbGGN4uE5xnTp15syePdsZ3JQptnAQIHEPB3VKMyoJeCvX1haLpbUQojUAyI9HK/oul2tPQUHB/qgEBQBjHs5cPjytXt9WTUM3FO+P9XPzj+/fuvdC/yVLluyJlPJA73UhRKrH40kCAOyV46cIT8iTYh4XF7eFnN4ipUQDt5PEPXBmdAcRCCoBzvm1KPY+RL+BV/TPMsY+8fb29547d27PihUr8AAeU17D/mwfMbBL7cn9u9SuVOc5vfCuFAv4x5yjW154dVEnvfeEMlxqampilSpVZG8cRRx75PEo5Iyxrzwez3qPx7O1oKAAfUToihICJO5RUtCUzcgjwDmP93g8KPq45Ki+qqePPf4Dfob4CyMvp/+3GOfZb76++uan/pTU0kj52Lrnkli48tQLU1/P+Xs47erbt2+thISEm3F4HT+MMRTypl4hx6H1rW63e8uSJUu+CaedlHb4CZC4h78MyAIiEDCB9PT01jExMSjyN2qG+HHotWReHwBwNzD8eUFRFNyv2/DXoyMzHaPt9XnTJNx23FjXcwuO79++71InRVFCta0xrif/LQq4d54cfxdCCJd3jlwK+U5jkSJrjECAxN0IpUA2EIEgEeCc4xaf2iF+9OSvjWLv3f6zRPjxU7NmzT3z58/HBkHYr7S0tCZd2id89ujgBtgTNdz1/dFimJZ3cv6U17IfqAzjOOcDGWP1cFhdCIE9cvzsEkJsxR45/rx06dIXZp6SqQyu0RoniXu0ljzlO6oIZGVl1XK5XNjLlz199OjHD/b+8fAUFH4U/QaMsTdjY2P3hHpnvjEjM+c9mtHggSYNgr/7XLAK+9n5x75zVWnRauLEiegEWeHLbrf/Rgq4Ssi/F0J8iUebophfuXJlKy2frDDiqL+RxD3qHwECEO0EcGc+1RD/XQCA+/Gj8MfgED9jbK/H4ykd5q+sM7Un/m3Inn/8+VpM17DXtr2XYdayEw/PnpM3E4202+3tPR7PVCFEW8ZYP0VRNmmNxyNoVUIuHd5OoIDLT5UqVbZkZ2efM2zGybCII0DiHnFFRgYTgdAQ4JzX987n3+j15Je9fTxiF4f1S4Qff3e73Xvcbvfe8o7s5JzjkPt/8ahPAJggGwo2m+3OoQPqLu31u4RaocldxVN5fMZPG16alt2Fc96fMfY8CjvG5vF4hlgslrXe4XQ5rI4/8eSzUiGPjY3dkpOTc7LiFtCdRKB8AiTu5TOiEESACKgIcM7R2+0Xw/uMsRLnPu9e/Gpnvr0Wi2Vvbm7uQYyCc45itxQAmgDAl4yxCXgS25hRWW8/eV/SkLq1cLDA2NcLbx87sG1f0RwhxDAAuE5lLZ41gGcRlAg5Or1ZLJatubm5uHkRXUQgpARI3EOKmxIjAuYmkJGRkex2u0u9+Bljsrd/Dfb00XMfAG4HgJL9ZBljPwohCpo1rHrnv0c2bFcWnex3d8O9Y9/3G+ShjPbwyvgeUL1a4FvVYtzrthwq936XW8Colw+5T55xWRhj2vpzq6IoOOxOFxEIOwES97AXARlABMxPQOXQ97gQgmtzHBvD3K/8tXFMUt2yhbnwzGXIeux9eOqR26BLx8al0VwucsFLczfDw1kd4JrE6gEBlY0GvY2DJZ+chYJPzmx2uoUTvduFEDjVUA0A8KjgHoqiHA3IAApMBCqBAIl7JUClKIkAEfBNwGq1LmSM3ev9Foew8ZCd4y0aVuk04U9J8Qk1yh6W9yfuV8tbb88d07l8xQNPzjqiTJmx2OZ1RsSDg/oDQE+Hw9H8am2h+4lAMAiQuAeDIsVBBIiALgKcc3TAcwkhNgNAfmxs7Da3293w/rvrru6n46x2X+KOvfYP1x+Ee3reoMsGX4ECEXe8//Hphz99afri31c4QbqRCFQyARL3SgZM0RMBIlA2AavV+vtRvP6KbrfE49B2mZcvccf/FXz4DTxo+3nKHsV+zOSPoXFSAvS4rSl0zVhc8v/1uZmlQ/kyzKzcHYDD8R3bJMG2XcfKnXOXxo2b8dN//z0tG0/6o4sIGJIAibshi4WMIgLRQ4Bz3uMv9vrLu7arWe4RcFLcP1iHW+v//3pmdNeSeXi1aOO38v//eu1zOHzsfKl449944T17D5yCV97CbdlBt7j/7bWfNr44NfvW6CklymmkESBxj7QSI3uJgMkIcM5vG5Z6zYc9OyXgSWZlXr567ijOy9fshzEP/Oyoru65o3jjpR52/+HIOZg47TOY8Y+epc53WvEvz47HZxxZ/9K0RXeUF46+JwLhIkDiHi7ylC4RIAIlBNApzd6z7nr+h0Q84jZgcdfOuZcn7gUf7oOFy3ZD9sv9S8U9kDl3jwAYO/XwildeX9yvPHvpeyIQLgIk7uEiT+kSASJQQgA3xbm1bY1v9BwYU5a3vJx7v3fgTaVz7r567tt2H4NHJq6GvKkD4MbmdX/Vsy9vnfzRQie8sOjEq6++lj2GipAIGJUAibtRS4bsIgJRROCpx4d89cyD1+KSsoB77niD7K0PSW0DHW9KKlPcLxU5S9bKN2tcq2SOXf6N8/h61rpv3HXRPSXn5CDcWa88e+l7IhAuAiTu4SJP6RIBIlBK4LGRWateHNWo56/2fFMxKm+Hut53NIe5k3sDzp+jFzxe6FDXIrl26c52GAaH40+evgz20e/Bjj3HAf/Xu2uznx3rdOxwN+udwkOffnE5JdSn5tHjQgQCIUDiHggtCksEiEClEBg21P7Qw2n132jfMrDd5SrFmHIinTDzyM7JryxqH460KU0ioJcAibteUhSOCBCBSiOQmpqaeMcttXfomXevNCN0RHzouBOmLD7xxiuvZ4/QEZyCEIGwESBxDxt6SpgIEAE1gcdGZn36wsiG3WIsxq2W5rxbeHj15os98vLy9lHpEQEjEzDuW2RkamQbESACQSdgs9l6ZvZKzLunW+2fXdgNdrk9Ap54/SitbzdYuZA5vgmQuNOTQQSIgGEIjBudten5Rxp1MoxBKkNyV50+9s6n52wOh2OtEe0jm4iAmgCJOz0PRIAIGIYA57z7wDtq59zbp05DwxgFAKfOuWHygmOfvDw9u4eR7CJbiIA/AiTu9GwQASJgKAKPPpK1bCSvN7B5oyqGseu5Bcf3b9936U5FUfCIWrqIgOEJkLgbvojIQCIQXQQ45zGtmlb9YtJDDdsaIef/WX/21PLPz0+c+WbOdCPYQzYQAT0ESNz1UKIwRIAIhJRAenp6Sqeb4pVxQxo0C2nCmsS+2HcZ3l5xOv+V17J5OO2gtIlAoARI3AMlRuGJABEICYFMuzXttnbxr47k9ZNDkqAmka8PFsHcd0+teXlG9p3hSJ/SJAJXQ4DE/Wro0b1EgAhUKoH77rUNbt+y+vNjBjdoWqkJaSLfvu8yZH9wmhzoQgmd0goqARL3oOKkyIgAEQg2Ac55j7bXV5s5itdvVSchJtjR/yq+ZWvPnlq34+Lql6dn2ys9MUqACFQSARL3SssSJHwAAAIMSURBVAJL0RIBIhA8AhkZGY2aNIhRBnSt1aFbh/gawYv5/zGdPOuC2UsLv/vhqHPKrLk5r1dGGhQnEQgVARL3UJGmdIgAEbhqAg8PG/xYUt3YYbY/JLZqfV21q44PIyh2ClA+OnNk2zeXd/94tPg+RVEOByViioQIhJEAiXsY4VPSRIAIBE5g2LBhcTVjL7xQOz6mX49OCc26tKtZtSLb0R88UgwrPz936NtDxfu/P3rl7/n5+RsCt4buIALGJEDibsxyIauIABHQQSAz08qvvabqiMR4S3Lb5tUSb7yuWr2G9eJAOzdfVCzg+GknHDxSXLRj3+UTRwpdJ4ucnjVHTnqm5ebmHtSRFAUhAhFFgMQ9ooqLjCUCRMAfgfT09Hb1asfdXqOGJYUBS7YwqA7AmAeEE4Q45XbD1z+ddK51Op2bly5deoZIEgEzEyBxN3PpUt6IABEgAkQgKgmQuEdlsVOmiQARIAJEwMwESNzNXLqUNyJABIgAEYhKAiTuUVnslGkiQASIABEwMwESdzOXLuWNCBABIkAEopIAiXtUFjtlmggQASJABMxMgMTdzKVLeSMCRIAIEIGoJEDiHpXFTpkmAkSACBABMxMgcTdz6VLeiAARIAJEICoJkLhHZbFTpokAESACRMDMBEjczVy6lDciQASIABGISgIk7lFZ7JRpIkAEiAARMDOB/wEiD0PCMd8NswAAAABJRU5ErkJggg==;fontSize=15;" parent="1" vertex="1">
          <mxGeometry x="-130" y="290" width="503" height="514" as="geometry" />
        </mxCell>
        <mxCell id="x99btNPnGnlGqi2Zv7ce-13" value="Strategy Step Function" style="shape=image;verticalLabelPosition=bottom;labelBackgroundColor=#ffffff;verticalAlign=top;aspect=fixed;imageAspect=0;image=data:image/png,iVBORw0KGgoAAAANSUhEUgAAAXwAAAKACAYAAACfX8M1AAAgAElEQVR4XuydCXQUVdbHb4WwC4osgiwio4KAgriMDjAKCrgNS9LVCZvLh4gsoqi4gCyCoCMoI4KAioNCkOR1AnFhEQcZAUVFBlQQRmUQwYVFEGUnXd+5PbxMpajurk6qu6uq/3XOHIfUq/vu/d3q/3t13+tqhXCAAAiAAAikBAElJaJEkCAAAiAAAgTBx00AAiAAAilCAIKfIolGmCAAAiAAwcc9AAIgAAIpQgCCnyKJRpggAAIgAMHHPQACIAACKUIAgp8iiUaYIAACIADBxz0AAiAAAilCAIKfIolGmCAAAiAAwcc9AAIgAAIpQgCCnyKJNobZs2fPc4LBYH1N084OBoOVFEXRNE07VK5cub3p6ek7cnJyDqYoGoQNAp4lAMH3bGpLBubz+a5veE7FvhXKKy2qVUmrUa9meqW6NctXOeuM9KoVK1B5TSM6fDR47Jffig79sOfE4b0HTh4+dETbd+xk0Uc7fz6ek5+f/68UQYUwQcCzBCD4nk0tkaqqVzWoU/7xGtXLXfynllXrXta0yhlnVy8XU8Tf/3ycPtl8eM/Gb47u/u1w0Qc/7Qs+tWDBgu9jMoLGIAACjiAAwXdEGux1gmfz559bcUKbiyo3vqlt9XPOrBqbyIfzZsdPx2nRP3/d8d1Px7/67qdj9+bn539tr+ewBgIgEE8CEPx40k2wbVVVzz+vbvm//7HFGRf7Op5ZJ17d/3KwiOYu+WXHjp+Pr3xu2vzb49UP7IIACNhLAIJvL8+kWRvcv9cjDeumDxjQo9b5Z51hz4w+WjD/3nGM5i7Zv2nrjqNDhRArorXHeRAAgeQSgOAnl78tvT8wuNfSLldX+1PnP1avZovBGI28tGjfzs3bj817/sWcx2K8FM1BAAQSSACCn0DYdnelquqZTc6tsLxf15pXXtiwot3mY7L33qe//b74o4PvTpk2PzOmC9EYBEAgYQQg+AlDbW9HqqqefUGDiv+4P7t26zo10u01Xkprn205TPOX7V/23PT5N5bSBC4DARCIIwEIfhzhxsv02LFj044c+PrTh3rXaVPrTGeIvYx1/dYjlLN0/8LnpudkxCt+2AUBECgdAQh+6bgl9aqH7u21coha+9rz6lZIqh/hOl+x7rff31p1cObfZswf7kgH4RQIpCgBCL7LEn//oF5/y7qhxqCrW1Yp72TXX3lz365law/+XyAQeNfJfsI3EEglAhB8F2VbVdVrOl5xRu49PWo1dIPbY176cfMH63a2Wrly5Uk3+AsfQcDrBCD4LsrwY/f3+WzioHpt3OLyt7uO0YzALwuenT6vp1t8hp8g4GUCEHyXZHdg/54P9Lnx7Kf+dEkVZxbuw3Cckb/3+39uOHxzbm7uly5BDTdBwLMEIPguSe2o4X03j+tf92KXuFvs5m+Hg/TEKz+ueHba/Ovd5jv8BQGvEYDguyCjd9+VPbjfrTWfv6p5lcS8M8FmJrMW7tu5/JNfO+JlazaDhTkQiJEABD9GYMlo7rbavZHRj/tO0KR5u+dOmT7/tmTwQ58gAAL/JQDBd/idkJmZ2aL7tTWW97mxRj2HuxrRvSdm/7Rl7F/nuq4k5Wbm8B0EjAQg+A6/J3jf/QM969zX8BxHb7uPSnHxRwf3z3n7l65CiNVRG6MBCIBAXAhA8OOC1T6jj97Xe91Tg8+93D6LybG0e/9J+uvrP7/y3PT5/ZPjAXoFARCA4Dv4HuB35lQO/ufbh/vUaexgNy279uiLP67769/mXWn5AjQEARCwlQAE31ac9hpTVfXy228++91b2lY/26rlfQeOUO8H36Flq/4TumT1gl6095cj1OwPZ1PT8y2bsdpdTO0mzvn525ETX78gpovQGARAwDYCEHzbUNpvqN+dPe8allXr5RZNKlkyfuToSRo2cQXVP6cajRp8Teia8dM/ovxl/6bc5/+SdMF/7Z1ffnxz1f6rCgoKdloKCI1AAARsJQDBtxWnvcaGDer9/KO31xlq9X33W//zCw0d/w+aOur6EuJe+N43JWb43G7Lt79QtxtKP9k22rQSOf9IyqyFe7sEAoEPrbRHGxAAAXsJQPDt5WmrtQcG9wpMHHhuZsUK1tIkyzlt29QvnuEbHZJPAe2vaEC9uzYvlb/hBpZoxvhd+ZPn7+7xxht5i6K1xXkQAAH7CVhTEvv7hUULBPi3ap+9r34XC02Lm+S8uZn6PPRO6N9cv2fxlwcLddZ9b9HGLbtDf2rVrE6o1LPui5+Kr+G/z5t8S/FgwPbmFm6mLu0a0wNPvU++Lk0psGxrsc0B2a1oyoiOVLlS9B9i2fyfozQld89dr7y6YHYsMaEtCICAPQQg+PZwjIuVB4b0Xvbs0HM7x2p8zfpd1C57fglRlwu28imgb7fmIVE3ztalwOc8ewst/eA/xQOBfhBg+4PHvhfzusCW7Ufp2Td2D3jl77kvxRoT2oMACJSdAAS/7AzjZmHY4F5vThpy7l/KlStdmsxm+0bB1zvPC7yjn19NXdqfTyz4Nc+qTPoBgP/NR2kF//NvjtCzC/b2fv31Bf8djXCAAAgklEDplCShLqZuZw8M7j17VL9z/u+sM6y9M43FfP2mn6lT2/9t25cC37h+9VDp5fDRE6Ftm3KGz3TlwMAlID5Y+OMh+Ks/P3Ts+QW7bwkEAv9I3awichBIHgEIfvLYR+15yN09Hx3Ws85TTepbewU+i/uLORvooX5Xlqips6CvWrfTVPB5tq4XeOO/7Zzh579/YM8b7/7y5/z8/C1Rg0cDEAAB2wlA8G1Hap9Bn893/b1q7bf/fNkZljbiG2fzvJBqLOHod+m0uLAWffXtPvrrS58U1+NZ/Fn0I83w9XV/3t7ZuV1jS4u2z87f893bK7dfgJ88tO8egSUQiIUABD8WWgluq6pq7RuurLb+7u41G1jpWpZ0Gp1bvcRuHP2CqyzZcK1+3H3taFDv1iW+mct/43O8g6dPt+Y0/K8rQ13r6/r6b/MadwJF8vPxWT9+OeHZeZdYiQVtQAAE7CcAwbefqa0WRw3v++W4/nVb2Go0CcaOn9To0ek/Lp0yPeemJHSPLkEABPA+fOffA7xT58kB9f5SpVKa852N4OFnWw7TjIJ9t82es2CuqwOB8yDgYgKY4Ts8eT6f76ZBvtqiQ5szqjrc1YjuTZ6/57tV63+55M033/zNzXHAdxBwMwEIvguy98SjfbeO/r+6F7nAVVMXNY3o4ek/fDB5as61bo0BfoOAFwhA8F2QxWGDe895sFft2+vXduevXr378W8HZ7/1S8+8vLzFLsANF0HAswQg+C5Iraqqjf50SdVV92fXbuQCd09zceSMHz+fOGVeKzf6Dp9BwEsEIPguyeYDg3sXPNi7do9za7lrlr9i3e+H5i375d6/v5b7d5eghpsg4FkCEHyXpLZnz57nXNKkwoeP3V6niUtcJq7dPzrjx3XP4GcN3ZIy+OlxAhB8FyV46D29xmTdUGPEny6tYu1dC0mObWbB3p3vfXrQl5+f/3GSXUH3IAAC2Ifvvnvg4aF91jx6e50/1ahm7YVqyYqQ993PX7Z/xnPT5w9Klg/oFwRAoCQBzPBddkdkZ2efe/F55VeM7le3qVNd373/JD2bs+fDZ6bOa+tUH+EXCKQiAQi+C7Pu8/muu6Zl1dce6FXHcbt2jp3QaPyrP3256dvf2y9atOiAC/HCZRDwLAEIvktTe3sff8+rWlT966DMWg2dEsKJkxpN+PvPW77cdrhrfn7+107xC36AAAj8lwAE38V3wh23Zfe65A8Vn3qgZ/Jn+gd+L6Ln5u/evPk/RzLxvnsX31Rw3dMEIPguT6+qqh1b/qHSjPv8tS860+IvY9kdMv9W7ZzF+9dt23XsL0KIn+y2D3sgAAL2EIDg28MxqVays7MbNqpTLq9HhzOvvLpF1YRu3xH/OLD7o02HVk+ZNj8zqRDQOQiAQFQCEPyoiNzTYOjgnhPPPbtCz/+79ezGtWukx9Xxzf85SrnL92/+985jjy9YIBbGtTMYBwEQsIUABN8WjM4x0q1bt4ZNGladdWH9ii0zO57VsI7Nwr/1u2OU//6Bb/ceKHpnyos59zkncngCAiAQjQAEPxohl57PzMy88Lx6lSecXT2tzfVXVGt0ZfPK5cullS7dvCD74ReH9q/98vAPB38PLt628+DYt95667BL0cBtEEhZAqVTgJTF5c7A+/bNyq5zZnq/6lXSGjZpULH6xY0r1uOXsNU8M50qlC95Cxw+GqQ9B07S9z+fOLZp29E93+8+fuDIseBX3/98YroQ4p/uJACvQQAEmAAEP8Xug4yMjCYVK6ZfVqdGuWvKKWlNKI3O2v/ryYsqVlAOVqlc7gclqOw5URTc8sPe4x8pivIvIcSeFEOEcEHAswQg+J5NrfXAVFVdqijKxry8vEesX4WWIAACbiMAwXdbxuLgr6qq7xPRt0KIu+JgHiZBAAQcQgCC75BEJNMNVVX5x0n+KYSYk0w/0DcIgEB8CUDw48vXFdYh+K5IE5wEgTITgOCXGaH7DUDw3Z9DRAACVghA8K1Q8ngbv9+fp2naWiHEcx4PFeGBQEoTgOCndPr/Gzxm+LgJQCA1CEDwUyPPEaOE4OMmAIHUIADBT408R4wSJR3cBCCQGgQg+KmRZ8zwkWcQAAG8WgH3QKiGz683XieEmAAeIAAC3iWAGb53cxsxsl69etU4ceLE84qi7CaiLpqm7VQUZZOmaQ2EENkpigVhg4CnCUDwPZ3eyMGpqvodETUytPpKCNE8hbEgdBDwLAEIvmdTGz0wv9//mqZpt+laHieiQUKI2dGvRgsQAAG3EYDguy1jNvqblZV1ZTAYnE9EF5wyu/7kyZOdFy5cuM/GbmAKBEDAIQQg+A5JRLLc0M3yi4hoAGb3ycoE+gWB+BOA4EdhrKrqBYqiNNQ0bb+xqRBig6qq5xPRmW49l5aWVj4YDL6vadpBRVF6EtGvMhYvxMcx9O7du/rx48cvJaKt+EGX+IsKenAuAQh+mNx07979rKuvvnpcrVq12tWuXbumpmlpxqbdunXb+8MPP1T49NNPq7v53H333descuXKRddcc02JQc0r8e3bt6/8e++9d8aePXt+3L59+wc7duyYKYT4j3M/lvAMBOJDAIIfhqumaX/bsWPHfY0aGTexxCcRybRaVFREhw8fpmrVqiXTjYT0/cknn9Dy5cvf/uKLLx7Mzc39d0I6RScg4BACEHxDIm666abqjz766BN//vOf73dIjuCGzQQ2btxI33zzzR0+n+81m03DHAg4mgAE35Aev9/fYeDAgfnXXXddDUdnDs6VlUCeoihZZTWC60HATQQg+IZsjRo16tHs7OynmjfHd4/cdCPH6us333zz64gRI/4khNgc67VoDwJuJQDBN2Ru+PDhL/fv3/+uCy+80K05hd8WCPzzn/88MW3atOxAIFBgoTmagIAnCEDwDWl8/PHHn7v77ruHNWzY0BMJRhDmBNauXXviueee6yqEWApGIJAqBCD4hkxPmjTpkaysrKch+N7+CEDwvZ1fRGdOAIJv4KJp2tVE9BFuGG8TgOB7O7+IDoJv6R7429/+NiwjI+M5zPAt4XJto6+//vr4qFGj2uXm5n7q2iDgOAjESAAzfNTwY7xlPNP8qKIolT0TDQIBAQsEIPgQfAu3ifeaoKTjvZwiougEIPgQ/Oh3iQdbQPA9mFSEFJUABB+CH/Um8WIDCL4Xs4qYohGA4BsIxbItc9++fdS7d29atmxZyMqAAQNoypQpNG/ePMrIyKCaNWtG42/5/Pjx42n06NGh9q+++ip9/PHH1L59+1D/Zge352PUqFGW+4hXwyNHjtCwYcNo1qxZoS6YTzi/t27dSllZWcTvu+nSpQvl5OTYylHGCMGPV7Zh18kEIPiG7FjdlslC1KdPnxLiJcWqbt26tgoV98UHiyT//7lz50a0LweHcePGOULwJeI1a9ZQu3btigfGypVPXzNNlO8QfCfLEnyLFwEIvoGslW2ZUtiHDx9+2kyVZ/0jR46kCRMm2DIzlbPjvn37Utu2bS3fB06a4esFf8WKFaEnldWrV58WD3PlJ6Rff/2Vbr311rBPAZYhRGiIbZl2UIQNtxGA4BsyZuXVCiymPFsNV24oLCykZs2aUdOmTct8P8iyEZdmvCD4/N79/Pz8EBcWd/0sn3keOnSI1q9fH7FcVWao/zWAbZk2gYQZ9xCA4Mco+FKAGzdufJpgmaXdWL/W16Xlufr161PHjh1D5Q4+5OxXlkD0dvkcDyZc3tEPAvr1BC7lyEPW8I3rDbKPaD6wHWMM+lJRLPV5jkceHKt+li+fjB5//HF68sknSwi+vq7P18u1Eh4s+NzQoUNDTw08EPN6iv58uI8iSjruESl4ah8BCH4cBV+KoVxclf/evn07zZ49OyRQciFTiij/bdeuXcWDiXGGrxduo2jLfjZs2ECPPPJIaABhwTeWmaRIPvPMMzRjxoyIPjAeXnCVtuUgxH23adOGxowZQ/369Qs9zUR7GpGCz9exTf0sn88xF17s1vdnZCjFf/r06aHr5SApB9K9e/eGFn0zMzMjrl9A8O0TEVhyDwEIfhwFn0WMBVxf+tELlhQ+nuHLmTi3XbVqVVjBZ3eNwsr98EKuLJHoZ+1sVy4wG29LuZuIBTacD1xe0dvW2zB7AuHz4RaLpeBzaYr//+DBgyk3N5f4ZyTlwMH/Xy/44frTPwVJO7KEZmVhG4LvHpGCp/YRgOAbWEbblqmfpUfbMmgmPFKseRFWzmbLKvjGpwIOSb9oy35s27bNdMZrHBz4Wv2gU1BQUGIAMgpwuMHA7BbVC77kwOLP5SxezOXByTijZztykORZ+6BBg0qUs/QDhxR8s4HW6A8E3z4RgSX3EIDgG3JlZVumnNmG20/Ogsk1fllyMNaqZf3drhm+2cBiFHz9U4M+5GiCzzN841OKvN6KsBoHCP63XHxmvydNmkTnnHNOqAbPfzcKfriSlly/MBN841OS2ccRgu8ekYKn9hGA4BtYWtmWKWfQLFJG0dfvmTd7GtCLEduJVE7hRUn9E4H8spLxb/oZMAuhfpGTyytyVsyCKktH3Ib941lxJB94Vw33a7x2y5Yt1Llz59Nq8ewbDxKdOnU67S6VdXpjHPoFcOMAZIxVv4YgS0Ncx5d5iLaOIJ3Ctkz7RASW3EMAgm/IlZVtmfoZrlw0lH8zDgDGXSxyB4kUe/2ibZMmTUJf5uKDFyF598ktt9xS7CH/7YUXXqB77723+Nu9sj99PZ37qF69OlWrVq2EwMtvsLJBbjNx4kQaMWJEiUVbow/6AUx+o1i/08i4+8fs27HhGPCAJp+G9OItA5a2XnzxxeJvGbPfvLjLvnDsPFhwDZ8HH35a4CPSN3l16ca2TPfoFDy1iQAEvwyCb1MOYKYMBMxKOlbMoaRjhRLaeI0ABB+C7+p7GoLv6vTB+QQTgOBD8BN8y9nXnb6M1apVq9AWT6vfbsYM3748wJJ7CEDwDbmKti3TPamFp5EIQPBxf6QiAQi+IetWtmWm4o3itZgh+F7LKOKxQgCCb6BkdVumFbho41wC2Jbp3NzAs/gRgOCjhh+/u8vZlrEt09n5gXdxIADBh+DH4bZyvsnPP//8+JNPPnm9EGK1872FhyBgDwEIvoHj6NGjJ2ZmZj526aWX2kMYVhxJ4B//+MexmTNn9goEAgWOdBBOgUAcCEDwDVDvueee3v369Zt3xRVXxAE3TDqFQG5u7o5FixZ1X7Bgwb+c4hP8AIF4E4DgGwhnZGScN3r06OmtWrX63zsN4p0F2E8ogR07dlBeXl7h8OHDM4gomNDO0RkIJJEABN8EvqZpdTRNW6koysVJzA26jgMBfq9Pbm7uxsWLFw9B/T4OgGHS0QQg+GHSM3r06JsaNmw4/pJLLrm8YsWKdNZZZ4Va8su6+OVdZgfOOZNLMBikEydO8I/K769Vq9bz2dnZ83Jzc7919CcTzoFAHAhA8CNA7dmzZ4sqVapcUrt27ZaKoig1a9bc9eCDD3741FNPdfztt99q6i9187ldu3bdWrFixR1NmzZd4sX4NE0rl56e/vOmTZveWbhw4b/j8DmCSRBwBQEIvivSFF8nVVX9OxH9UwgxJ749wToIgEAyCUDwk0nfIX2rqrpM07TPA4HAcIe4BDdAAATiQACCHweobjOpqupCIlonhJjgNt/hLwiAgHUCEHzrrDzbEiUdz6YWgYFACQIQfNwQBMHHTQACqUEAgp8aeY4Ypaqq7xHRl0KI+4EDBEDAuwQg+N7NreXIMMO3jAoNQcDVBCD4rk6fPc5D8O3hCCsg4HQCEHynZygB/qmqupKIvhFC3JWA7tAFCIBAkghA8JME3kndYobvpGzAFxCIHwEIfvzYusYyBN81qYKjIFAmAhD8MuHzxsWqqv5DUZRNeXl5Q70REaIAARAwIwDBx32Bffi4B0AgRQhA8FMk0ZHCREkHNwEIpAYBCH5q5DlilKqqFhLRZ0KIccABAiDgXQIQfO/m1nJkmOFbRoWGIOBqAhB8V6fPHuch+PZwhBUQcDoBCL7TM5QA/1RVXaFp2uZAIDAkAd2hCxAAgSQRgOAnCXyyu+3Vq1eNEydOPK8oym4i6qJp2k7emqlpWgMhRHay/UP/IAAC9hOA4NvP1DUWVVX9jogaGRz+SgjR3DVBwFEQAAHLBCD4llF5r6Hf739N07TbdJEdJ6JBQojZ3osWEYEACEDwU/geyMrKujIYDM4nogtOYVh/8uTJzgsXLtyXwlgQOgh4lgAE37OptRaYbpZfREQDMLu3xg2tQMCNBJIq+O3bt6/doEGDpidPnvzdCE8IsUFV1dZmUHHOPi6aprVQFGWGpmm/K4rSk4h+1TMHa/tYM9doPHv06FFn//79v6xcufKkGwUFPjubQDIEX+nfv/81L7300p83b96c8dlnnzWsXr16iZv74osvPnTRRRcdKSwsrGXEh3P2c5k1a1bD8uXLa9dcc81+PW+wtp91tPt60aJF2hdffPH9559//logEChwtnzAO7cRSLjgP/zww5Ovvfba2zp37lw7PT3dbbw86W9RUREdPnyYqlWr5sn43BbU119/TStXrvz3e++9NzkvL+9lt/kPf51LIKGCr6qqr1evXlO7d+9ez7lI4BkIJJ8AD8CvvfbahpUrVw7Jy8tbk3yP4IEXCCRU8CdOnLjwtttu616/fn0vsEMMIBBXAl988QW9//77Pe+7774Fce0IxlOGQMIEv1evXk3at29fcM8997RKGboIFATKTqCfoiivlt0MLIAAUcIEv2/fvnUeeeSR+S1atLge4EEABKITOHbsGOXm5r52++233xG9NVqAQHQCCRN8dkXTtHwiyojuFlqAAAiw4D/99NMrx44d2wE0QMAOAgkTfFVV6/fq1auwe/ful9vhOGyAgNcJQPC9nuHEx5dQwe/Spcu7/fr1w4u5Ep9n9OhCAhB8FybN4S5D8B2eILiXugQg+Kmb+3hFDsGPF1nYBYEyEmDBf++996bdeuut95bRFC4HgRABCD5uBBBwNoH7FEWZ6mwX4Z1bCCRU8B977LF5l1122XVugQM/QSCZBLAtM5n0vdl3wgSf8WFbpjdvIkQVHwKo4ceHaypbTZjgW9mWuW/fPurduzctW7bstJzMmzcvdM7OIycnh1atWkVTpkyhypUr22k6rK0jR47QsGHDaNasWaE2Xbp0IfZj9erV1KxZM2ratGlC/NB3In1q37697YwTHkyYDo331oABA0J55/sqIyODqlSpEsoLv/Zj1KhRtrkt2ZbGLgTftjTA0CkCCRV8q9syjULM/+7Tp0/ow2mX6Eub8oOfCMFfs2YNtWvXjsaNG1csKlKIfvrpJ/5WZcIFXz8A2cnXSZ8ws/tn69atlJWVRXXr1qXZs2fT+PHjQ4OwPjdljUHPtjR2IfhlzQCuNxJwheDLD8727dtDs+GaNWvakkk7Z/gs3AUFBdS/f39T36Swt23b9rQZJMc3ZswY6tevX8IFn52NdYYfLVZbkmOTESnsw4cPP22ywHGMHDmSJkyYgBm+TbxhxtkEXCH4jJBnYPn5+bbOgu0UfPaPj3DlAO5r0qRJYf3n2T8fPCAk+ohV8KPFmmj/I/XHvjLbcBOFwsLCUCmtUaNGjizpYFumk+4m9/viCsE3zvC3bNlCgwcPpkGDBhGXZGRZhtNhVh+XTwT6R2y+pk2bNrR+/XqaOHEijRgxosQjvVnJx1h/58d09sG47sD1eL1wx/qEEq7Oz3Hoa8IdO3YMlYj44D5r1aoVKlNs3LixRPmLZ7lDhw6l0aNHhwZOXiPRl7LMBN/oA5d7brzxxrCxynIV+yLXJdhf+WTTt2/fkJ9cmmvVqlWJgc9YX9fzY3/Zb+6f3xHP9Xa2K/PDObj00ktN1z+k3caNG0ddp4nEVebSjIksMZrdGzz4G2v4ek4WyzzYlul+nXVMBAkVfKvbMsPV8PkDohc5/QfGKFpmIqufmbII8qIdH/K/xkU7vR9yMJELm/KDy+LEA0ekBb9YBD9SHPpaM/sj45eiKEWcBzH+G/vPg6McFKQQ7927NzQwZGZmhp5IzPrUl5ikcHJbs1iZxYoVK4qfbiQ3bs9lKrkILxdI9az0ZRUWcjk4TZ06ldhPaZdtzp07NxQT/51ZPPHEE6EBmwd/s/WP0gi+vo7PDHft2lV8f0RjYuXeYJtNmjSxtBaFbZmO0UnPOJIwwWdiVrdlytmbnrJe3FlgjB9y/psUOTmjl/Xb6dOnh2a/Y8eOpWnTphWvARg/0JEEn4WFBcdsR0+0nRixCH60OMwE1zhAGvmY8dILqNyhYhQs413OOXjooYdKDG7Gma28Rs7imTvPgnmGL2fD+oHXLNdsgwcHnpmbibk+r5FKYKURfP1uGj1Xzr8cOI33JU9Cot0b1atXp4MHDzVCFcMAACAASURBVIY4WC3bYdHWMzrrmEASJvhWtmVKKtFq69EETAq+sZwgZ4jyvNkMPtwHnhdkw23hjCb4HJfVNQi9EJvFwSWNSAMT7zayIvj6gcVM8KMJmOQkYw8nZPochBP8bdu2ma59RCqhyKca/ZOO8VMVy0BrlkOj4IdjEul+DVfqsaIAEHwrlNAmFgIJFfzSbss0BhRuhs8zMH39V1+KYBvG2WIsgq8vkxh3CVkRfDkrlWUUs5h4FxLPaiPFYecMXw5gZuUq49OS9NcYa7QFXyuCb+W7EPpavn5rrr6Wb7ZgLktv4bac8vXMPBrXSPk3eyoz4+X3+0OlNLMdQ2YfWgh+LFKGtlYIOFbwjbNxfTBmgm82m9MLOi/4sVDIBTz5b/0C5uTJk4trtsbzsh6t31bJIs418m7duoVm8Hzwh5p9ad269Wn8w4mTvgYeLQ4pzuGeRMLN8HkQkaKnHwg5nnAizn3JEhZfw6LXqVOn02I9dOjQaYPU8uXLQyLKR6SSjtl2VebKPrFdHgT1TwZc/77iiito8eLFoScdPphruKcE+XQlF36Ng4X0L9oMX3I3Y8Jxsl2ze6Nz584lnsjM7t1wH1QIvhUJQ5tYCDhK8M2+aWvc8aLf5WDc7WF8fDZ+qUrOsnkXCy9g8v/k4i0LZbTzRv/0u1GsfpFL34dMlHG3Rrg4pOjIb+nydSyAvPOFD/Zn4MCB1L1799C/JR9e5OSnGxYf3hrKhxT/cCWHWGM11uLNdvXw31iYWXz5kPnZsWNH8e4i/d95gHnhhRdCC7LG9jwQGb+tHOn7Gfr7RnKPxMDIleOTg4NchDbbjaQ/Z7bIrt90oL/e7EOLt2XGImVoa4WAowTfisNoEzuBWGaVsVvHFXEmgG2ZcQacSuYTKvhWt2WmUgISESsEPxGU7e8D2zLtZ5rqFhMm+Aza6rbMVE+KnfFHKoHZ2Q9s2U8ANXz7maa6xYQJfizbMlM9KYgfBJgABB/3gd0EEir4Vrdl2h0k7IGAGwlA8N2YNWf7DMF3dn7gXQoTgOCncPLjFDoEP05gYRYEykoA2zLLShDXGwlA8HFPgICzCWBbprPz4yrvEib4nTt3Pn/SpEkvX3rppde7ihCcBYEkEThx4gR/i3jOnXfeeWeSXEC3HiOQMMFnbpqmPaFp2mhFSWi3HksZwkkVAps2beJfUZs2evToe1MlZsQZXwIJVd6//vWvt3fo0GHOlVdeGd+oYB0EPEAgEAj8KIS4Py8vL88D4SAEBxBIqOBnZmY2u/LKK6feeOONnfg9LzhAAATMCbz//vvB995779WJEyea/0gywIFAKQgkVPDZv8zMzD9efvnl911wwQXXXXzxxfVatmxJBw4cCP3PePCbLXEOXPT3hZfvCX5Da/PmzenLL7/88LXXXtu4adOmR5csWXKwFJ9rXAICpgQSLvjsxU033VTxjDPO6HDhhReeO2HChPWrVq2quWTJko5GDydOnChwLv5cdu3adet5552X36lTpzXIQ8m7MJH3YKVKlY6OHj16pqIoe6BXIBAPAkkR/HgEApulJ6Cq6t+J6J9CiDmlt4IrQQAEnE4Agu/0DCXAP1VVl2ma9nkgEBiegO7QBQiAQJIIQPCTBN5J3aqqupCI1gkhJjjJL/gCAiBgLwEIvr08XWkNJR1Xpg1Og0DMBCD4MSPz3gUQfO/lFBGBgBkBCD7uC1JV9T0i+pK/5AMcIAAC3iUAwfdubi1Hhhm+ZVRoCAKuJgDBd3X67HEegm8PR1gBAacTgOA7PUMJ8E9V1ZVE9I0Q4q4EdIcuQAAEkkQAgp8k8E7qFjN8J2UDvoBA/AhA8OPH1jWWIfiuSRUcBYEyEYDglwmfNy5WVfUfiqJsysvLG+qNiBAFCICAGQEIPu4L3paJd+ngPgCBFCAAwU+BJEcLEYIfjRDOg4A3CEDwvZHHMkWhqmohEX0mhBhXJkO4GARAwNEEIPiOTk9inMMMPzGc0QsIJJsABD/ZGXBA/xB8ByQBLoBAAghA8BMA2eldqKq6QtO0zYFAYIjTfYV/IAACpScAwS89O1df2atXrxonTpx4XlGU3UTURdO0nbw1U9O0BkKIbFcHB+dBAARMCUDwU/jGUFX1OyJqZEDwlRCieQpjQegg4FkCEHzPpjZ6YH6//zVN027TtTxORIOEELOjX40WIAACbiMAwXdbxmz0Nysr68pgMDifiC44ZXb9yZMnOy9cuHCfjd3AFAiAgEMIQPAdkohkuaGb5RcR0QDM7pOVCfQLAvEn4AnBV1X1fE3TLjy1AFmCmhBig6qqrc1Q4pzaWtO0FkT0EhH9qihKT/4vuMR8v/wuhPgm/h9X9AACZSPgasH3+/1/bt269V21atVqc+aZZ55VsWJFTY8jLS1N+8tf/rJv69atlbds2VIV5/5LwMhl8eLFdWrUqHHimmuu2Q9msd8v55133sHWrVuvfuutt1bm5ORszs3N3Vi2jyWuBoH4EHCt4Kuqeu0NN9zwt/bt27e++OKL40MnRawWFRXR4cOHqVq1aikScXzC/OKLL2jZsmUr1q5dOyI/P//j+PQCqyBQegKuFfz9+/dPSUtLu7969eqljx5XgoDNBLZu3UoLFizI3bRpU28hBK+L4AABxxBwpeAXFhae27Vr112OoQhHQEBH4I033ti+cOHCvkKI1QADAk4i4ErBf+aZZ/52xx133Fe7dm0nsYQvIBAi8Omnn9K0adMGv/766y8CCQg4iYArBX/EiBEL77vvvu516tRxEkv4AgIhAgcPHqQlS5Y0zc7O/jeQgICTCLhS8MeMGZM7dOhQ/9lnn+0klvAFBPQEaiuKshdIQMBJBCD4TsoGfPEEgU2bNtGMGTMGTJ8+nb/fgAMEHEMAgu+YVMARrxCA4Hslk96Lw5WCr2maj4iE99KBiLxAAILvhSx6MwZXCv5vv/2WXalSpTfS09O9mRVE5WoCEHxXp8/TzrtS8LFo6+l70vXBQfBdn0LPBgDB92xqEViyCPz222+0ePFibMtMVgLQb1gCEHzcHCAQHwLYlhkfrrBaBgKeF/x9+/ZR7969+aVWIUwDBgygKVOm0Lx58ygjI4Nq1qxZBnwlLx0/fjyNHj069MdXX32VPv74Y2rfvn2of7OD2/MxatQo23yIt6FE8rQai/SJObZt29bqZZbaHTlyhIYNG0azZs0KtW/VqhXl5uZS06ZNw16Pko4ltGiUBAKeFvycnBzq06dPSNyl6PLLrbKysqhu3brE5+0SfLbFB/fD/3/u3LkR7cvBYdy4ca4R/ETytPpZ0A9Aq1evtl3weXJw8803Fws8523NmjURcwvBt5o9tEs0AVcKvpVtmVLYhw8fftoMm0Vi5MiRNGHCBFsEX84C+/btG5PguGmGn0iesX4IYp3hcyxbtmyhbt26Re3KmCMW+8GDB0ec5UPwo2JFgyQRcKXgW9mWGW0mVlhYSM2aNYv4aG41J7EKjrTrJsFPJE+r3GW7WPjLwTlSqS1S//yUs2rVqlBZsHLlyqZNIfixZhDtE0XAlYIfbVumFIDGjRtH/GBKyMY6bZcuXYof2eW5+vXrU8eOHaldu3ahy2T5gGd88m/SHp/jwYTLO/q6sr78wKUcecgavrE+LvuQf+cnCD64TGWsJRuv1ZexjPHpz8kyDftz6aWXmg6CieJZq1atULlt48aNJcpwzJgHHObEs2s+ry+FmQm+GUu9feaoZyg58N/lOo9R0NnmkCFDaOzYsajhJ0qh0I+tBFJe8I0zPvnv7du30+zZs0NCIxfspMjw33bt2lU8mBgFx6yubOxnw4YN9Mgjj4QGCxYyY5mJyw5Dhw4NCduYMWOKF53lYjMvJPIgJK/VDy4sXpMmTQqVHRo1ahS6vl+/fiGR0vvKAsgxPvHEE7R+/fqwpYpYBL+0PHmxWwot+8KMOY6lS5eGBji9EPN55iYHLjP++pKdZDl16lTimJkVD55yXUe//sL9hHvy4oGH74twi/Dyk4ltmbZqFIzZSCDlBV/OHvULuLJePX36dGrTpk1ol4YUV2ZvfKyPNMOUM3zuhxdyZSlA/+TAbfQzTH1+WdRuvPHG00RKL0p87bZt20wXf82eQNg+DyR+vz80o+Y4I+1uiUXw7eBprJObLYLrB13+eUbjgCcHiWgsjU8Csr3+KY//xvni/PFAEa6UY/hcYlumjUIFU/YQ8KTg62fp0XbimImJvoTCWzftEHzjU4FxJhlJtPX+yNmlXvAjrQUYBxrjbaPfShpux1CieVoRfP2gayb44QZAI0urZRpux/+76KKLon7yUMOPiggNkkTAk4LPLOXMVl+v1jNmweAaPx9cHtBv6dPP2O2a4YebpXL/coYfbjEwmuBHWkg0m3Gb3Wv6Wr7Z9wISydOK4OsHOeMTViQeZoJvXGsx47Nz587Qnxs0aBD1owrBj4oIDZJEwJWCb2VbppxBc23YKPr6mq3Z7FUvGGzH6gxfXxc2CossE2VmZoYEXv5bLkAOGjQoVJbg0ooUXG7D/jVs2DBiScdsyySLJh9ywOL/L8tJ7BvXwbm+v3jx4lB8fER6ykgkTzPB5xKNHJT1NXn9uoTkL9mbseT2HC/v0mnRokWoPLNu3briNQ/5hSrexdW5c2er5ZsSH18IfpLUDN1GJeBKwbeyLVNGblbDNg4Axl0scvFQir1+0bZJkybFi4hc5+WF1VtuuaUYNP/thRdeoHvvvbfEQiuLud4X7qN69epUrVq1EgIvd6mwQW7D4s8LrvKbwuw7lyvkN3qlrzt27Cje4SKv1Qu8/tvGsj69d+/e0CAg4zPWrc3unnjzHDhwIHXv3j3UtdxFw4LM9XN+IpO+Gncw6flwrPoB1cjD7Etv+tIWt9c/8cVS0uJrIfhRdQcNkkTAlYIfbVtmklii2zgRsPLN5Th1XSqzEPxSYcNFCSAAwU8AZHRRNgJuE3xsyyxbvnF1/AhA8OPHFpZtIKDfrmql5GRDl3aZwLZMu0jCjm0EIPi2oYQhEPgvAZR0cCc4lQAE36mZgV+uJQDBd23qPO+4KwXf6rZMz2cPATqSAATfkWmBU0TkSsGPZVsmsgwCiSYAwU80cfRnlYArBR/bMq2mF+2SQQCCnwzq6NMKAVcK/sSJE1/Nzs6+8/zzz7cSI9qAQEIJ8LbMwsLCC/v27ftNQjtGZyAQhYArBf/hhx8e06dPn7GXXHIJEgwCjiNw9OjRnZUrV27oOMfgUMoTcKXg+3y+P/l8vlezsrLC/5J0yqcWAJJBgN/j89prr63asGHDTXPnzj2UDB/QJwiEI+BKwedgRo4cOaJ///4PnnfeeWcjvSDgBAIHDx6k/Pz8bUuWLBkhhMh1gk/wAQT0BFwr+ByEpmkXHj9+/OnNmzdnHD9+nOrUqVMcG79oa8+ePXTo0OmTrEjnuP5at27dmK8rbX+4zjxHFStWpPT0dFfkYffu3fSvf/3r+ObNmzd89NFHzwsh5kNmQMCJBFwt+Ay0Z8+etc4888wbzjrrrJaKohTHM3HiRLF06dJzP/jgg7ZG8PpzwWAw/cCBAxccPnz4wmPHjl1QqVKlr3v27PlYtOsi2cS5/xGwmgcjs19++aX577//3qZKlSqf16pV63P9+dLajNd1b7/9dp3XX3+da/YrhBD/ceIHHT6BABNwveCXJo2qqrZWFOVKTdNuJSL+3zJN095WFOVtIcSO0tjENfYT8Pv9XTRNG05ENTRNeykQCMyyvxdYBIHUIZAygq+qanMi4hfXs8C3JqJ/EtGCChUqvJ2Tk3MwdVLuvkj9fn93TdPuJ6J0TdMmBQKBQvdFAY9BIPkEPC34GRkZTdLS0gYqitKFiM7kGXwwGHw7EAgsST56eBArAZ/Pl60oCs/4gzzzDwQCK2O1gfYgkMoEPCn4qqpmEVEfImqrKMo8ItqQl5f3aion2kux+3y+SYqi+LlmTkTjUDf3UnYRSzwJeEbws7KyWhUVFfVRFKUvEW0konlCCBZ7LZ4AYTs5BFRVLUdEo/l/iqI80bx583Fjx44NJscb9AoC7iDgasG/6aabKlatWrWvoig8mz9f07R5mqbNzc/P3+IO/PCyrAROle1Y9KtzyQ5PcmUliuu9TMCVgp+VlfUHTdMGaprWn4g+UxRlal5e3iIvJwqxRSbg9/v/T9O0O4jodyLiLz5tADMQAIGSBFwl+KeEfrimaTyrn3by5MlZBQUF25BUEJAEVFW9j4ie1TTtkUAg8CzIgAAI/I+AKwSf67Wapo1TFOURRVGe0jRtshDiVyQSBMwIZGVlXRQMBl8kov1ENEAI8QtIgQAIuOCLV6qq9iCiZzRN+yAYDI4pKCjYicSBgBUCPp/vaUVR/kJEtwkhPrNyDdqAgJcJOHqG7/P5nlcU5SZN0x4IBAJvezkRiC0+BPx+f39N03jC4AsEAv+ITy+wCgLuIOBIwVdVlX/ZZI6maf9RFGWgEOKIO3DCSycS8Pv9mbyDi79pLYTgvfs4QCAlCThO8LOysq4OBoN5mqZNCwQCz6RkVhC07QRUVfUR0bS0tLQOubm5X9neAQyCgAsIOErwVVW9lojeIqLBQoi5LuAHF11EwO/3D9M0rZsQ4joXuQ1XQcA2Ao4R/KysrCuDweByRVHuzsvLy7MtQhgCAR0BVVULiOgTIcTTAAMCqUbAEYLfs2fPc06ePLlG07QJgUDg76mWBMSbOAJZWVkXB4PBNUePHm3w1ltvHU5cz+gJBJJPwBGCr6rqW4qifJaXlzc2+UjggdcJqKoaUBRlMV7D4PVMIz4jgaQLvqqq/LrbDkKIm5EeEEgEAVVVnzx1z532a2iJ6B99gECyCCRV8PnFV+XKlfs6GAy2wAvPknULpE6/WVlZLYuKiu5JS0s7i4hu4DeqcvSapp0lhLgrdUgg0lQlkFTB9/l8sxVF2SmEGJOqCUDciSPQt2/fqseOHdujaVplQ69L8ISZuDygp+QRSJrgq6ralIjWHj16tD4Wz5J3A6Raz36//xNN067Uxc0/Ot5bCPFRqrFAvKlHIGmC7/f7J2uadkII8VjqYUfEySKgqmovRVFe0jStKvugKMqCvLy8nsnyB/2CQCIJJE3wVVX9IRgMdkTtPpHpRl+qqp5JRMuJiGf5PxJRJmb3uC9ShUBSBF9V1Y5ENEEIcU2qgLYzTlVVWxvtVahQYVtOTs5BnCtJxoyLpmk38f2nKMpyIUQXMIvOTLYw4XlmMBj8IT8//2s773HYig+BpAi+3++feKqcg8VaC3nt0aNHzQYNGgy/884761122WUXFhYWNjRedv311+8/44wzigoLC2vh3P8ImHE5fvx42jvvvFOna9euP2dkZOwBs5J3TIz3UnDfvn37du/evebjjz8etWjRogMWbmk0SRKBpAi+qqrva5r2VCAQeDdJcbumW1VVa7ds2XJGu3btenTo0CFNUZKSMtfwgqPJIfDzzz/TOeecw68zvz85HqBXKwSSoh6qqu4jomZCiD1WnEzlNg899NCkzp07P9SpU6dUxoDYXULgrbfemvXKK68Mf/PNN39zicsp5WbCBb9Hjx510tPTNwshTis9pBR5C8FmZmY2u/766+cNHDjwcgvN0QQEkk5g5cqV+2fMmOHPy8t7L+nOwIHTCCRc8DMzMy9LS0t7VQhxGfIRmUBmZuaFjz/++IrWrVs3ACsQcAOBLVu20Pz58x8bP3483kbqwIQlXPBVVb2FiAYJIfi/OKIQ0DSNtw7WBSgQcAOBr7/+ml566aWXJ0+efLcb/E01H5Mh+P00TftTIBDol2qwY43X7/f/+Z577nmzQ4cOvHccBwg4nsD333/Pgj/lySeffMDxzqaggwkXfJ/P95iiKNXxDdvodxsEPzojtHAWARb8JUuWDBowYMAMZ3kGb5hAwgVfVdVniWiXEOI5pCAyAQg+7hCXErhGUZS1LvXd024nXPB9Pt8cRVFWCiHmeJqsDcFB8G2ACBMJJcAz/Hnz5o0ZMWLEuIR2jM4sEUi44KuqukjTtL8HAoFCSx6mcCMIfgon36Who4bv7MQlQ/D5W7ZPBAKBlc5Gk3zvfD5f+zFjxixq2bLl2cn3Bh6AQHQCEPzojJLZIhmCv46IBgghPktm4G7pG9sy3ZIp+MkEIPjOvg+SIfhfBYPBHngtcvQbAyWd6IzQwlkEIPjOyofRm2QI/vaioqJrCwoKvnM2muR7F6vg5+TkUJ8+fYodX716NdWqVYv424/dunWzLaCtW7dSVlYWbdy4kbp06UJDhw6lqVOnEvdfs2bN0/rh9rJN06b8Q2fOO9j3VatW0ZQpU6hyZeMvIDrP31g9SlQOsC0z1swktn0yBJ+/OXqZEOKnxIbqvt6sCv6+ffuod+/eoQD1ojt+/HgaPXo075ooPl9WCtzXyJEjacKECSFT3G/fvn3D2peDA7fNzc0lJwq+5Lds2TLiQbJt27ZlxZTq12NbpkPvgGQIPr8p80IhxC8OZeIYt6wKPgv7mjVrTGfYPABIYbYjMO5n7ty5Mc2EEzW7LG18Mqbt27eHxH7UqFGlNeWY65i53U92VoLDtkwrlJLXJhmC/2uFChUa8q8zJS9sd/RsRfDlDHr48OGms2yevRYUFFD//v1tCbo0pQ8nC/6RI0dozJgx1K9fP8rLyws7cNoCL0FGOKZhw4ZR+/btbXuys+o6avhWSSWnXTIEn9+TXU8I8XtyQnZPr1a2Zcq6vdVSBM9m27VrVwxBX+7hc4MHD6Y5c+bQzJkzadasWTRgwIDQbJ4PFhH+mzzkOR5QjPVv6VerVq3oiSeeoBdffDFU55clHf16g7TDtXP+Oz9BcFuu+3OZZdy4cSVm3fpreQ1BX8bSx2c8Z5Z5Hoxmz54d8nHHjh2htYnp06efVtbRl330dqRvkc4/9NBDIXbVq1engwcPhhjKfEXy17gmw/0yTy6N8doMl9OYDx8y1r179xavr+jb89/5STAcK25r9V6ItMYBwXe2viRD8P9FRO0h+NZujGjbMmMRfBYX/Ydeig1/0Bs3blw8EEhRYQ+NAmic4cv+9aKt76dKlSo0efLkkMBJwTeWmdgnPpo0aVK86CwFjMsSPAjJ+r++/8OHD4dET5ZhuN8VK1YUDw5Wnka4744dO4ZsyJkx+6JfvJV/r1+/fsi28akq0vmMjIzigVJylYNeJH/Xr19fIm5j2U4yY3/kYCPXUoz/lnnWD4B23AtmdzAE39rnOlmtkiH4mOFbzLaVko5VwQ/3mM/CsWvXrpDAGUVGCgeLilzINBNR/d/kkwCLj7xGPjmYzUwlCilGS5cuDc3w5UxUXw7iWe2QIUNo7Nixpy3+yvj0TyD6Ga7ZYrF+AVruLuJ+J02aVGKB2cjBKPDRzhvbs1/R/F23bl2JpyY9Q30s+h1TcoZuFHzuzzgIm5V8Yr0XIPgWP8gOagbBd1AyjK5YEXz9LF3u1DELyUwEuJ0sofB/jbPp0gi+WVnEqmgb/WER1l/L58Nt75QCqh9ooqXWrGQirzHubDJ7sgg3EMonD3k+kuCH89fI3jjQyvP8ZMY7pnjnlKzZRxN8jtFsd1Ws90I4wcfbMqPdeck7D8FPHvuoPVsRfCkmvMPEbB88f/i5fs5lkREjRoT61Jcr9EJixwxfip1+q6ZR8Fls9GKpB6EXHaPgy7q12bWxLlTqF2uNs3/9TFfWq401euOAEOl8JMGPtLAabq3CGKvx39EEn8tsPMMv670Q4QbGtsyon+7kNIDgJ4e7pV6tCD4bko/1devWLSH6xpKF8WnAOIs0lg3CzfD1JRezWTkLZn5+fnFZRH4fQNawuVxhLJsUFhZS586dQzuKwpV0WJiNtWwWO27PAwwPWLwgrV/AXr58ObVp0+a0L4SxmG7bts10C6ZZjV7u5DErDUUaPPTlG7kGIJMv82HmLz9t6dcj9DeM1TUFHkxatGgR+iIZL9rq10LsuBfCzfDxtkxLH++kNILgJwW7tU6tCr5eVPQ1bLNdKsZdOma7RViYeacKi6vcBfLqq6/Sxx9/XGKXDs9y+ZDf7pX9yRmk9IX/ywOAfpeOHAQkCfaDn1L0tngmzyLF3+jlQ/pqdq1+jUH/bWOzL53pr9cvNnMfRj7yPC8885fY9Id+EdboE7fj86+99hrNmDGjmFukHUd8jfRXX5vX9ymv18/+s7OzQ00WLFhQvKNJ+sPteVFa7szS+1zaeyHSF/mwaGvts52sVhD8ZJG30K+VbZkWzKBJGQnonyL0WxL57++++27oyUQ+ZZidL81rLViM+TB+63fDhg2hGbsTv7HM/kLwy3izxflyCH6cAZfVfLRtmWW1j+ujEwi3vZPLUM2aNSPjjhppUZ6PVZzNSmls0+4v0UWPPPYWEPzYmSXyCgh+ImnH2FcsJZ0YTaN5DATCbaGUpY1o52PoqripsdzCJ6x8kaw0fdl5DQTfTpr224Lg28/UNosQfNtQwlCCCOBtmQkCXcpuIPilBJeIyyD4iaCMPuJAANsy4wDVDpMQfDsoxskGBD9OYGE2bgTwtsy4obXFMATfFozxMQLBjw9XWI0fAdTw48fWDssQfDsoxskGtmXGCSzMxo0ABD9uaG0xDMG3BWP8jGiatpOI6sevB1gGAfsIfPHFF/wlu4lPPPHESPuswpJdBJIh+AfS09ObvvHGGz/bFYRX7WRnZ5972223Lbnpppsu9WqMiMtbBNauXUuvv/66f8aMGcJbkXkjmmQIPl6PbPHeGTt2bFr58uXf6Nq1q79ly5YWr0IzEEgegW+//XbRY489NhC/WZ28HETqGYLvzLwUe+Xz+W669tprJ/r9/tZ16tRxuLdwL5UJ/Prrr/8+88wz2yuKsjuVOTg5dgi+k7NzyjdVVXtceeWVg9u0aXP59ddffxa/ZMzs4Hejx+sc12YvueSSEt3Gs79Ex+fk/jin1113XdxyW5bYDxw4EPoxly+//PKzr776QkSYWgAAIABJREFUavKUKVMWuOAjlbIuQvBdkvrs7OyGJ06cqBEIBI69+uqrV3zzzTfN9a6npaWdfPLJJxe++uqrLew6d/DgwXODwWDlX3755eby5cv/2LBhw4DsMx79webp+QsGg+nffffdXZUqVfq6Zs2aaytUqHAo3nmPJQ8av+zpxx//ffjw4X8JIb5wyccpZd2E4Kds6s0DV1W1k6IoV2uaxu/cLSKiXP6fEOIboEoeAVVVexHRPUR0NhHN/P33319esmTJseR5hJ7dSACC78as2eyzqqpn8u+VExGLfEtN095gkQ8EAh/a3BXMlZGA3+/voGka/+p7Mxb+oqKimQUFBbx1FwcIRCUAwY+KyLsN+Ju8mqbxr3pcr5vJL/RuxN6JLCsr6+KioqJ7FEXhWf+atLS0obm5uV96J0JEEg8CEPx4UHW4TZ/Pl6EoykAiaqQoyqLjx48/tWjRogMOdxvumRDIyMhokJ6ePkDTtEGapr2lKMrfhBAbAAsEzAhA8FPovlBV9W4iGkREhzRNezEQCOSkUPieDlVV1cqapt2vKAr/b3lRUdHf8vPz13k6aAQXMwEIfszI3HUB1+cVRRnMM0AiWndK6N91VxTw1iqBu+++u/z+/fvvJyL+39a0tLQRubm5a61ej3beJgDB92h+ecZHRI8S0YNE9FlaWtqw3Nzc9R4NF2GdTkDx+/33a5r2sKZpyxRFeUoIsRWgUpsABN+D+ff7/f01TRunKMrbRUVFz+Tn53/twTARkjUCiqqqo4hoDBE9KYTg/+JIUQIQfA8lPisr6w/BYPBvRFRNUZSReXl5azwUHkIpAwH+4l4wGHxK0zR+Ed/DQoilZTCHS11KAILv0sQZ3fb5fNmKorxERBOFEE97JCyEYTMBn8+nKoryvKZpfw8EAniFsc18nW4Ogu/0DFnwz+/3j9I07U5N0/4vEAistHAJmqQwAVVV+du6LxNRRSK6UwixJ4VxpFToCRd8n8+3tnz58t3wPnx77jNVVbmEc1m5cuV6Lliw4Ad7rMJKKhBQVfVJIupKRL3xHpxUyDhRwgVfVVW8D9+me8vn8z2vKMpFRNRNCHHcJrMwk0IEVFUdQkTDgsFg1/z8/E0pFHpKhgrBd2nafT7fGEVROtSoUaPTSy+9dMKlYcBtBxDw+/1DNU2748SJEx3xjWsHJCSOLkDw4wg3XqZ9Pl9vRVHGpqent0NpLF6UU8uu3++fEgwG+fXbd6RW5KkVLQTfZflWVfUCItqgadpNgUBglcvch7sOJqCq6leKojyYl5e32MFuwrUyEIDglwFeMi5VVbWQiD7C1stk0Pd2nz6f705FUXg9qLu3I03d6CD4Lsr9qb329wshrnaR23DVJQR69epV48SJE3tatGhRYezYsUGXuA03YyAAwY8BVrKbqqq6kYhGCCHeSbYv6N9bBFRVXaAoyk5N027jd++kpaX9HAwGz6lYseLgnJycg96KNnWjgeC7JPenZvf9hRD8YyU4QMBWAqqqbiaiiw1GvxNCNLa1IxhLKgEIflLxW+9cVdXlRPSKEIJ/YxYHCNhKIDMz8560tLRpRFROZ3i2EOIuWzuCsaQSgOAnFb+1zk/tzFkjhDjH2hVoBQKxEVBVtTYR8QvV2py68uu0tLRsvFI7No5Obw3Bd3qGiMjv9w/TNK2ZEGKAC9yFiy4lwLN8RVFeVBSFdQGze5fmMZLbEHwXJFVV1Xc0TZsdCAQKXOBuSrnYo0ePOunp6eeaBc2/Lauqamu3nFMUpYamafNPvV6bf1PhK7fFEIF1OSFEUUrdnCbBQvBdcAeoqso/MH4h3mronGT5/f6/XHLJJXc1bdq08fnnn191165d/ObJ4qN69eonO3TocGDdunXV3HTuww8/rHHgwIHyN9988263xmCSh28LCgq+z8/PXzx//nzhnLso8Z5A8BPPPKYeVVVtSkTvCCH4G7Y4HECgZ8+ed95www2PdujQ4aLzzz/fAR7Z58LBgwepSpUqlJ6ebp9RB1g6dOgQLVmy5OfPPvtsxtNPP/2EA1xKigsQ/KRgt96pqqr8+lrejvkX61ehZbwIZGdnt+/QocPUvn37tq5cmX82GIebCOTl5e0qKCgYmpubm5Ll0WQI/sr09PQsvPTL2sfE5/PdS0RNA4EAv8YWR5IJzJ07t+sVV1xR2KxZsyR7gu5LQ2D79u30xhtv5I0YMSKrNNe7/ZpkCD7ehx/DXePz+SYoinJYCDEhhsvQNE4ENE3rT0T8U5I4XEpg2bJly2bPnu0TQvzu0hBK7TYEv9ToEnOh3+/nn6L7JC8vj/+LI8kEZs2alXfHHXeoFSpUSLIn6L4MBN5QFKVXGa537aUQfIenTlXVRYqizMnLy1vkcFdTwr2xY8f+87HHHvszBN+96V68ePGaefPmZaZiWRmC7/D7VlXVVZqmjcC7752RKAi+M/JQFi9mzpz55QcffHADBL8sFC1ei9+0tQjqVDNVVb8MBoNZ+L3R2LjFqzUEP15kE2cXgp841gTBjw22qqo7i4qKri4oKNgZ25VoHQ8CEPx4UE2sTQh+AnlD8GODrarqwWPHjtV/8803eXcTjiQTWLly5XPXXHPNMNTwk5yIMnQPwS8DvFgvheDHRkxV1aAQgl9Zq8V2JVrHg4CmacOI6Ll42IbNxBBYvXr1+y+++GJP1PATwBuCbx1y3759qx49enS3EKKq9avQMp4EsC0znnQTZhvbMhOFGoJvnXTPnj1rnTx5kt9YyO8qx+EAAqjhOyAJZXQB2zLLCDCWyyH41mllZGQ0KFeu3FohRAPrV6FlPAlEE/w1a9ZQu3btTnOhVatWlJubS02b8rvwynaMHz8+ZGDUqFFhDVlpUxYvjhw5QsOGDaNZs2aFzMybN48aN/7vryG2bds29F9mwX7k5ORQzZo1I3Yn7bVv35569+5dFteiXosaflRE9jWA4FtnmZGR0aRcuXLLhRB/sH4VWsaTQDTB576N4iX/vXbtWttEP54xWrHNQr5r1y6aMmUK8UvkWNT79OlDq1evLhZ8K3aS0QaCn0DqEHzrsE+9GvlNIUTZp4XWu0XLCARKI/hsbuvWrZSVlUWZmZkRZ+algb9v3z4qKCig/v35NT/xP7g/noXzE4aczcsZvX6GH39PStcDBL903Ep1FQTfOjZVVZsTkRBCtLB+FVrGk4CVbZlm5Qkpklz2kLNiu/yMd/nG6KeMj/9udyx2MYlkB4KfCMqn+oDgW4edlZXVMhgMLhBCtLR+FVrGk4CVbZlmgm82w5dlEOmvvhwi29etWzc0k967dy9169atRLnoxhtvDM20ly1bVhwy22jTpk2ovq6vhxtr7l26dCmurctz9evXp44dOxavQUQqz+jXKrh+b1Z35/hWrVpVPCjwwDR69OgS6ZFrG7Vq1Srx1CAHyL59+4bac7nIuA4iGW3cuLGEzXD+6DhjW2Y8PyR626qqbklPT782FffAxsr4lODPFUJcFuu1aB8fAla2ZYar4fMCpxRRoxjqa+As2GPGjKF+/fqRFEIWvoyMjOKFUilqerHmgUEv7MY2cgCQbfjd8LNnzw4trMrF13HjxoUGGGON3oymUXD1A4SMZ8CAASHB52Pu3LnEcXDNXw4YfA3/toAcuIz/5us4Dhk7D0rsn35A4Gv19vRlpjB3AbZlxufjcbpVzPCtkz4l+G8IIS6xfhVaxpNALDV8KaLGGbxZDVwv3A899FBI2KW46eMJN5jo2xrbmO2WkWI9ffr04icCvQ3jgBSJabjZfjgbsu/hw4cXPxkYmRgFnfvXl67YxtChQ2nq1KmhnU9m7cP5jG2Z8fyEGGxD8K3DhuBbZ5WolrEIfrgthnqx1c9G9bPq9evXF5dWzMovxtl6JMFn4eXZtX57pF4gjbNnZhlJ8HlAeffdd0MlJnnonxpkP2Y2ZL8ct35baayCH20AiHQ/oIafqE8LEV6eFgNrCH4MsBLU1A7BDyd6Zouv+lo+Cyj/wLi+Pm8s6TAGsxk+fzdAX3LRC6ys+Vud4bP9yZMn06BBg0rsrzc+SRgFP9Jib2kEP1JJCYJvTgDvw0+QUJSmGwh+aajF95pYBN+sJCO9M+5b15coGjVqVEJQ+dzYsWNp2rRpxYKvty0HCr/fHxJ7LnHoS0LRZt/sk7GEFG2Gz+15DUDO5s0GHuOTBf970qRJJb6LsHz58lBJiQ+uxXONn/8braTD50eOHEkTJkyI+qUu4x2BGX58PyMlrKOkYx02BN86q0S1jLYt0/hNW305xuijfpeOfgeKnEHn5+eT3IGi331jXGDVL5BOnDiRRowYcdoirHGXjn4xVf+NWV60bdKkSWhXDB9m/suSDj816HcJyQVfWRLS2+B6+y233HJamtj+Cy+8QPfee2/xbqOZM2fSwoULi//Ni7bbtm0r3uHDvhvjlIYj8ZZtIPiJ+rSgpBMTaQh+TLgS0tjKtsyEOJLinYT7shn/ndc/OnXqFJYQ3paZwJsHM3zrsCH41lklqqWVbZmJ8iWV+wn3ZbOXX345tIUzyrt7sC0zUTcPBN86aQi+dVaJammlhp8oX1K5H1nj13/pjHlYeZcPtmUm8M6B4FuHDcG3zipRLSH4iSIdv35Qw48f29MsQ/Ctw4bgW2eVqJYQ/ESRjl8/EPz4sYXgl4EtBL8M8OJ0KQQ/TmATaBaCn0DYmOFbhw3Bt84qUS2jbctMlB/op/QEIPilZxfzlRB868gg+NZZJaoltmUminT8+sG2zPixRUmnDGwh+GWAF6dLZ8+ePe+2227rnZ6eHqceYDYBBHIURfnvN8tS7EjGqxUOpKenN8XrkaPfaaqqXkNEs4UQ/EMoOBxA4Iknnpjp8/kGNG+OlDggHTG7UFRUxK+DCNx+++1+ItJiNuDyC5Ih+L8RUT0hxO8uZxd39zHDjzvimDvw+XzZWVlZz/l8vnoxX4wLkk6A393z7rvvPjh58uTnku5MEhyA4CcButUuIfhWSSW23aOPPvr3zp0739ahQ4e0xPaM3spCgF+5sHz58nc+/fTTYfn5+V+XxZZbr4XgOzhzEHxnJkdV1TObNGky/p577mnduHHj9ps3bw69xVJ/nHvuuVShQoXQGyWNB84llsvhw4dZ6Hd98803KzZu3PhMbm7ul868s+LvFQQ//oxL3QMEv9ToEnahpmm1x44dO/T48eMlZvuDBg16s0GDBsdGjBihGp1x8rm9e/e2Pnbs2Ln169df7GQ/9Uwt+PlTdnZ2tVQWeskLgp8waYi9Iwh+7MxwRdkI+P3+/sFg8MpAIHB32SzhaicSgOA7MSunfILgOzg5HnXN5/M9pyhKMyHEzR4NMaXDguA7OP0QfAcnx6Ou+f3+MZqmtRRCnFaK8mjIKRUWBN/B6YbgOzg5HnUNJR2PJvZUWBB8B+cXgu/g5HjUNQi+RxMLwXd+YiH4zs+R1zxUVfUFIrpQCHGj12JDPESY4Tv4LoDgOzg5HnUNM3yPJhYzfOcnFoLv/Bx5zUMIvtcyWjIezPAdnF8IvoOT41HXVFV9nYgaCSGu82iIKR0WBN/B6YfgOzg5HnUNM3yPJhYlHecnFoLv/Bx5zUMIvtcymuSSjs/nW1u+fPlueB9+9BvL7/d3DwaDjwYCgaujt0YLECg7Ab/fP13TNN6l07ns1mDBaQRQ0nFaRnT+YIbv4OR41DXM8D2aWJR0nJ9YCL7zc+Q1DyH4Xstokks6+BFz6zcUBN86K7S0h4Df7x8XDAZbBAKBTHsswoqTCKCk46RsGHyB4Ds4OR51DTN8jyYWJR3nJxaC7/wcec1DCL7XMoqSjmsyCsF3Tao846jf75+hadoFQohOngkKgRQTQEnHwTcDBN/ByfGYa6qqLlAUZaemaZcQUV1FUZYHg8FzKlasODgnJ+egx8JN2XAg+A5OPQTfwcnxmGuqqm4moosNYX0nhGjssVBTOhwIvoPTD8F3cHI85lpmZuY9aWlp04ionC602UKIuzwWakqHA8F3cPoh+A5OjsdcU1W1NhEtJaI2p0L7Oi0tLTs3N3e9x0JN6XAg+A5OPwTfwcnxoGs8y1cU5UVFUVgXMLv3YI4h+A5OagoIvpKVlfXHYDB4VJ+GcuXKHViwYMF2VVVbG9ODc/HjoihKDU3T5hNRNUVR+qelpX2EPDjqHjxDCPF7WSQLgl8WenG+1ouCr6pqhXr16t321FNPNalSpUq73NzcP1SqVCmoR3nVVVcdrFev3vHCwsJaRsQ4F18uH374YY0DBw6Uv/nmm3eDdXxZx3jP//7yyy+f3LJly2fffffdi/n5+VtKIz8Q/NJQS9A1XhN8FvsWLVpMueKKK27v0qVL1fT09ASRRDdWCRw8eJCqVKlCyI1VYolt9/HHH9P777+/ZP369Y8IIb6ItXcIfqzEEtjea4I/cODAu2+55ZZnb7nlljMSiBFdgYCnCGzcuJFyc3Nfe+qpp+6INbBkCP7K9PT0LLwPP3qq+H34mqbd74Wfm1NV9Yyrrrrq7SFDhlxbqVKl6MGjBQiAQFgCCxYs+LKwsLDLggULfogFUzIE/zciqlfWxYdYgnRrWy/N8LOzs8/t2bPnP7p27drMrfmA3yDgIAK/K4pSLVZ/IPixEktgey8JPmPTNO0TIroygQjRFQh4ksCuXbvowQcfbJ6bm/tVLAFC8GOhleC2XhJ8VVWbPvPMM6Jx48b8rhYcIAACZSDw2Wef0V//+tduQog3YzEDwY+FVoLbekzwL8nOzn4rIyPjvARjRHcg4DkCEHzPpZQIgu/BpCIkELCBAATfBohOMwHBd1pG4A8IOIMABN8ZebDVCwi+rThhDAQ8QwCC75lU/i8QCL4Hk4qQQMA+AmmKomixmMOibSy0EtzWS4LP6LAtM8E3ELrzLAFsy/Rgar0k+NiW6cEbFCEljQBKOklDH7+OPSb4Ubdl5uTkUJ8+fU4D2qVLF+JzNWvWjAvs8ePH0+jRo0O2582bR7179w7bz759+0LnR40aRW3btg21W7NmDbGNsvoobS9btixkd8CAATRlypSQTxkZGXGLPxJUs3jjkoQkGuX8tWvXrtgD5n3jjTdSQUEB9e/fnySDvn37Rrw3Yg2hLHYh+LHSdkH7VBN8TolRYOS/+VxZBdUs5WyTDxZx/v9z584N249ekFevXl0s+HbcSnKw0w84W7du5a25VLdu3bjEHs3veMYbre9EnD9y5AgNGzaM1q5dyy8jo6ZNm4a6lbkYN24cDRo0KHRv8CAcbTIQi896tqWxC8GPhbZL2kLw/zeD5hlYaT4Y+lQXFhZSs2bNij/Y8gPPMzc5W492a8RjxiuFffjw4afNILm/kSNH0oQJE1wxw2d/5cw4Gstkn2dhnzRpUgmxlz7xrH/FihWhJ7myzMStPD2V5skBgp/suycO/UPw/yv4UhAzMzNDH8DSHGxj6NChNHXq1GLBL414l+aaaP5yOYgFJtwTjHGgimbPzvOxxsux8FHaPNnpuxWx5YHezFeeDPDTHovx4cOHQwNxaYTZig+lsQvBT9SdksB+IPjhZ/jGer++xCJLM1z7f+CBB8jn81EgECjOHNfG/X4/XX/99SWyKW1Esm0mgNx+1apVoXp75cqVS5QFZAfhSkDSXuPGjUtcH+42k08ls2bNCjXRr2/Ic/Xr16eOHTsW16W571q1aoXKQ/wudf2Tklx/YNEbPHhw6DyXMqQImsVrXGtg+/zkJEsfxpj1POW6BHPivrnPOXPm0MyZM4lj0p9nO/r6uj5W6cNPP/1E06dPp82bN4fq7XzINRmOk8XabP1D2rXy1Kif4bN9Xmdq1apViScDMybyqdF4TvZpfHLQc7LiFxG5YlvmlvT09GvxPvzoI8ep9+E/LYTwxCuFrWzLDFfD5w+2rLMaBVZ+UFh4tm/fXrzwaxQ2Fhd9rdaKeOtt8wfYeI08rxeqSP4ZS0exCL4U9Pbt24fEVf6bY549e3ZI6ORAIEVbip/0b/369cULzEuXLi1mpT+vL5+Z5UNfYtI/OTVq1ChUE+cBRw4Y+jUSKcb8X/2AJMWT/86DEgs4c9KXVficnuvkyZNDNtq0aVOiT/01kdZkSiP4so7PA4g+TmPZTc+EB1r9Ir++jCTP8Qxf2rRaXsS2zOj66boWHpvhW3pbpnE2xEnTz6bMRFo/s2WhMfugy9lkJMG3YjvaICEf//W7eIz+6W/EWATfbDeQLHexSBrFzyiS+lm1fvA0LlTzIMGCwk8sxnjC7aSSO4mMQmic9eufSrZs2RKa4Utf9GxlLHIAk8zkvZCXl1fso3yqkk8ExoHd7INfGsHXl170patITLjvbdu2mZaNZLz85PLJJ5/Q2LFji8uN0cQKJZ1ohFx43mOCH3VbJqcoWs1YL3D62bJepHjR0ChiVgTfim0zQdfPPHfs2FFilipvO71/eoHSz9Kj7UIyG8j0ZQHjzLO0gq+Px0zwwwmYcWBj34YMGRJWyIw5MRP8cDNemSsuQeknBMaSV7jSSCzrQmaLtkbBD8ck0ppGuFKPFamC4Fuh5LI2EPz/1vDNZsTGxTbjB7A0gi8/gJFsW53hR7JhjCnabJMFmGv8fHC5Rb8eYCaSxpKKfn3BKLJmg4iepVkJy7heIeMxE3zjdxb0sVsRfFm+CvfR1dfy9U9v3F5fyzf7bgWfz8/PN92lw7Fw2Yi3ZfJhXLQ13m/hmJit78hY9AMJ59eY20hyBcF3mZhbcTeVBT/SzgVjXd24A8dMxPRtuJTQuXNn090X0WybzfaM/UWzYZb7cOKkr4GbPQ3oBYXtmtXQowk+L0LKQcTI0hiv2aDI17BvrVu3DoksH7wozn/btGnTaVsfedcR8+f1hHAlHVnDN4rg8uXLQ6Wr119/nW6++eZQCUT/JLF3797QOo4UePanSZMmpl+YCjdYsN9jxoyhfv36FduPJPiRmPDTHK9L6Lfc8kDHh1zolvd6pDUH4z0DwbeioC5rk2qCb6yFGnds6NOnb6t/pNf/3WxXBy+8sbjJ2bK0qW8bzrbZIzhfL78dbMVGpFvQ+I1PbmssSRhLFpKRFHv9oi0Lnd63gQMHUvfu3UMuSGbr1q0Llb94himvleIfruSgL6ewLeOCNfep/5v+m8zc3siffeE1CG4nv2Us4zbeE/LvvL7Ai87vvvtuKB75d2b4wgsvhGbtRt/CsTf6Z7ZmpPeLyzfym9kyTlnK4xKTsV8zXrzGwwOK3q7+Xop073M7CL7LxNyKu6km+FaYoI29BGKZVdrbM6zZQMAV2zJ/I6J6QojfbQjY0ya8JPicKCvbMj2dUAcGB8F3YFIsuIRtmRYgua2JlwQfb8t03t0XrvzlPE/hkZEASjoevCc8JviWtmV6MI0ICQRsJwDBtx1p8g1C8JOfA3gAAk4kAMF3YlbK6BMEv4wAcTkIeJQABN+DiYXgezCpCAkEbCAAwbcBotNMQPCdlhH4AwKOIoBtmY5KRxmd8ZLgMwpN09YS0R/LiAWXg0DKE9i2bVvw4Ycfbpafn/91LDCUWBrb0VZV1QPp6elN8Xrk6DRVVb2GiGYLIZpHb+3sFnfccUelwYMH515xxRVdne0pvAMB5xMQQvyQm5vbPz8/f3Es3iZD8PHFK4sZ8toMf+TIkbN69Ohx9+WXX26RAJqBAAgYCXz//fc0f/785UuXLu26cuXKo7EQguDHQivBbb0m+Kqqtr7mmmumderUqW3Lli0TTBPdgYD7CezZs4ff8Ln1/fffH56Xl/dWrBFB8GMllsD2XhN8Rqeqars2bdo83KxZsz/98Y9/rFmvXr3Q2w2NR+3atalq1ao4ZwADLql5T/CviR06dOjXl19++cuPPvrouUAgUFAaKYLgl4Zagq7xouAzuuuuu65SnTp1Oo0aNeq7li1bpo0YMUI1IlVVddlll112EOdKkok3l71797Y+duzYufXr1w/VhuPdH/L+PwKRWPft2ze/efPm67t27VrtzTff5LJ4qQ4IfqmwJeYirwp+Yuihl9IQ8Pv9/YPB4JWBQODu0lyPa5xNAILv4PxA8B2cHI+65vP5nlMUpZkQ4maPhpjSYUHwHZx+CL6Dk+NR1/x+/xhN01oKIU4rs3k05JQKC4Lv4HRD8B2cHI+6hpKORxN7KiwIvoPzC8F3cHI86hoE36OJheA7P7EQfOfnyGseqqr6AhFdKIS40WuxIR4izPAdfBdA8B2cHI+6hhm+RxOLGb7zEwvBd36OvOYhBN9rGS0ZD2b4Ds4vBN/ByfGoa6qqvk5EjYQQ13k0xJQOC4Lv4PRD8B2cHI+6hhm+RxOLko7zEwvBd36OvOYhBN9rGU1yScfn860tX758N7wPP/qN5ff7uweDwUcDgcDV0VujBQiUnYDf75+uaRrv0ulcdmuw4DQCKOk4LSM6fzDDd3ByPOoaZvgeTSxKOs5PLATf+TnymocQfK9lNMklHVVV8YtXFu8pCL5FUGhmGwG/3z8uGAy2CAQCmbYZhSHHEEBJxzGpON0RCL6Dk+NR1zDD92hiUdJxfmIh+M7Pkdc8hOB7LaMo6bgmoxB816TKM476/f4ZmqZdIITo5JmgEEgxAZR0HHwzQPAdnByPuaaq6gJFUXZqmnYJEdVVFGV5MBg8p2LFioNzcnIOeizclA0Hgu/g1EPwHZwcj7mmqupmIrrYENZ3QojGHgs1pcOB4Ds4/RB8ByfHY65lZmbek5aWNo2IyulCmy2EuMtjoaZ0OBB8B6cfgu/g5HjMNVVVaxPRUiJqcyq0r9PS0rJzc3PXeyzUlA4Hgu/g9EPwHZwcD7rGs3xFUV5UFIV1AbN7D+YYgu/gpELw45ccVVXPSEtLaxwMBtNNevlFCLFDVdXWqXROUZQamqbNI6IzFEW5R9O0rwzxpyQXZnD06NF/v/XWW4fjd0cmxjIEPzGcS9ULBL9U2CJe1KtXrxo1a9bMPu+883rVq1evftWqVcsbL7jhCmtbAAAgAElEQVTqqqsO1qtX73hhYWGtVDu3efPmM/bv31+hbdu2v6Ra7JHyfu211+4+66yzPpo0adLXn3766ZtCiP/Yf3fG3yIEP/6MS90DBL/U6Ewv7NKly9nt2rV7sk2bNrd17ty5anq62eTe3j7dZu3gwYNUpUoVAhvzzH366af0/vvvv7Nhw4aH3njjjS1uyy8E38EZg+Dbm5zHH3/81uuuu27B9ddfX9Vey7CWSgRWrlxJH3zwwfQxY8YMcVvcyRD8lenp6Vl4H370W4Xfh69p2v34ubnorKy00DTtiZMnT47G7NUKLbSJRODll1/+evny5T2FEJ+5iVQyBB9vy7R4h2CGbxGUhWZjx46tct999y0766yz2llojiYgEJHAmjVrjj///PN/FEJscBMqCL6DswXBty85qqpelZGRsTA7O/tc+6zCUooTSFcUpchNDCD4Ds4WBN++5GRmZl7ap0+ft7p3797IPquwlKoEdu7cSaNGjbp0zpw5X7iJAQTfwdmC4NuXHAi+fSxhiWj9+vU0efLkHm+88cYiN/GA4Ds4WxB8+5IDwbePJSxB8C3fA/iJQ8uoCIJvnVW0lhD8aIRwPhYCmOFbpAXBtwiKCIJvHZWllpqmrSOiyy01RiMQiEAAgm/x9oDgWwQFwbcOykLLrKysP0yePHlRgwYNWlpojiYgEJEABN/iDQLBtwgKgm8dlIWWKOlYgIQmsRLAtsxoxCD40Qj97zxq+NZZRWsJwY9GCOdjIYBtmRZpQfAtgsIM3zooCy2tCP6RI0do2LBhNGvWrNMsjhs3jvddW+gp9ibGflevXk1t27YNa2jNmjU0fvx4ysnJoZo1a4ba8b/5KKuPbLtdu/99GXnevHl04403UkFBAfXv3z/24Gy4wixeG8yGTBjjtZpnlHQsZgCCbxEUBN86KAstrQi+NGMUGCkKVsXAgjslmrBYd+zYMSTy/P937dpFU6ZMocqVK59mSvrSpUuXEoIfa5/G9nLQWbt2LeXm5lLTpk1DTXhQ6dOnD8Ur9mh+xyte7nfr1q20ePHi0CAv/52VlUXDhw+n3r17R3QNgh8tc6fOQ/AtgoLgWwdloWVZBF/OoPPz80uIoYVuT2vy8ssvU0ZGRvHMfN++fTRkyBAaO3ZsschGsxuPGS8L+6RJk0zj4/5WrFhR5qeHaHGFOx9rvIWFhdSsWbOoPFnwhw4dSlOnTg21lYNe/fr1o8YKwbeYTQi+RVAQfOugLLa0ui3TTGDkTDdauSWSK2Z2jaJjJZRYBTCaTR50eEbLTxhmJSEWwrlz51Lfvn1Nnzqi2S/r+VjiLQ1P6Z/kwAwildS4PQTfYlYh+BZBQfCtg7LQMpZtmeFq5PoZvrHuri+xyHPVq1cn/kERXhO466676JVXXin2lEskTZo0CZVL5NGqVavQDLtRo0Yl1hKM5Rujf7K/9u3bF5ciIvlnxCXLJlyvj1bK4GvN6vzyOj43ePBgmjNnDs2cOTMU+4ABA0IlqsmTJ9Po0aPJGI9cf9Dz0A+sZvnQ+yDtLV26tARP2S/7rF+bCRcnD+rbtm2LOruH4Fv4wMkmqqpuSU9Pvxbvw///9r4Ezoki+/9Vzww3yCkCHogXf3BFAXVFVDwQFVGZpHpmGHBZXUFhdRX1h8sKIpciCoKLCgpyODBJZUYQDw4FFBBUQNhVLl1kRVgYruF2YJL6f142Pds0yaQz6SSd5NXnMx80XfXqvW9Vf6vq1euq8KAFzsN/WQjROnxuylEZAtG4dDRyMRKIRrAaue7YsQOmTZvm98Mj0WkErveH40xZv9kayq0QTLZWTk+AeDuVRmYakRkHAL1++ro1vCIh/FD7G1h3y5YtKzZ8NduxDvSLb9y4EZDE27dv79cX7UPXVjAiRvz0g2uwOvUuJrRpxYoV/kEFZ9444Gj7EGj7Cy+8AA8//LDfbRNqFo/5cEAaMGBAhbvNxBtFYZnhQKIZfjiE/vecwjLNYxUuZ6SEr49UQdka2eNGaijXDBLb5MmTK0jN6AtGYgpH+OFko6sh3AzfjAw9XmYJP9hKAuXoN5qNhGskWKOfPJjfXCuDLiRcOYQa4PQ2aAPM/v37zyB842pEK2PchMZ8mMK5crTyFJYZ7o0LPCfCNwkUuXTMA2UiZ6SEbwx71FcRjLj1JKXNXKtC+OFkGwkQwzKNRGxGht4eXGXgYOVwOCp1ZxiJWJOhr2/Lli1nEG5VCN9oTzDCx8EgGDlrLiVtho//j4NsqKgnzYYNGzb4VwDBIqOCdS/y4Zt46TALEb5JoIjwzQNlIqeVhK/NGvV+Zj2xaW6LqhB+ONlmZ/i4QgmlXzCiNLpR9JBq7o6HHnqoIt5fT6CVuVSqQvjGMsEIX79fYVyt6F06Zjd8MZ/Z2T3WR4Rv4qUjwjcJUiAbuXQiw6uy3JESvp40jHKD+cT1pIf50TdtJHyNfHDzdt26dXD//ff7Y8E1VxASTjjZmkvJ6KfW12dGhtEmjWT37NlzRmim0QdudP8EI2e9bmYJH/c/tP0FPZbB7A02KC5ZssTvSkOXjhZqiasNHBiGDBniN1cbpFAnJOyuXbtWuYMR4ZuEjmb4JoGiGb55oEzmDBeWGexL21ARHca8oSJC9L5ijdxRXXQ5rF271lRUiXH/QNtfQL/1zJkz4a233qr4OlirL5R+4VwWONPHSBotGTee8XejX1xbSeh/x3K4n4HyFi1a5BeHG9lIlNqXzKjrM888U/HhE5I+5tVH8Rhlaq4aLUxW01NrJ22AQTmaXvrfMH+wqCfE1GyUEs3wTb5wNMOPACgi/MjACpM7krBMSysmYZUiEMnHTnaCkmb4JluDZvgmgSLCNw+UiZyRuHRMiKMsFiGQrIQfMJ/CMsP1A855KQC0FULsCpc33Z+rqnqzlPINIUS7dMciWvuJ8KNF0PryRrdTos7rqYplFJZpEjXO+X+8Xm/74uLi/5gskrbZAoQ/UghxS9qCYJHhRPgWAUli/AiQS8dkR+Cc/wwAtwkh8F9KlSDAOe8OAI8JIe4loKJDgAg/Ovyo9JkIEOGb7BGc802KojhcLtdmk0XSNpvT6cxVFOV+t9udl7YgWGQ4Eb5FQJIYmuFH0gc45+sVRfmTy+VaH0m5dMyrquojPp/vWo/H0y8d7bfa5nBhmVbXR/JSFwGa4ZtsW875Kinlsx6P5yuTRdI2G+d8EAC0EEI8nbYgWGR4z549G02aNGk5XWJuEaBpLoYI32QH4Jx/LqUc4/F4PjdZJG2zOZ3OFxRFYW63e3jagmCR4ZzzDg6H44OcnJwLLBJJYggBhTEmkwkGFm9lOeevAcBSIcTH8a472epzOp2jAeCgx+NBzChFgQDnvMUdd9zxYb9+/dpHIYaKEgJ+BNatW/fz2LFjrxdC7EsmSBJB+IIxVuh2u4uSCahE6Kqq6jsA8I3b7cZ/KUWJwLBhw95+4IEH+l9zzTVRSqLi6YwAxuAXFBQs2bhxY6+5c+fuTyYs4k74qqpOl1J+KYSYkUxAJUJXzvkHUsrZHo+nOBH1p1qd2dnZ7Tt37vyGqqqd8GAzSoRApAjs27cPPvroo80LFy58wu12fxZp+UTnjzvhO53O8Yqi7HS73RMSbbzd6+ecr5FSDqINbutayul03jRy5MibWrdu/fCuXbtaHT9+HKpVq1ZRQcOGDQGvJsSDvIypqs+8Xi9ccskllsqsqi5WlSsvL4fMzEw/RFbJ1ONtN5k1atTAw9hObNiw4bvVq1eP9ng8n1rXK+MnKe6Ezzn/m5Sylsfj+Vv8zEzOmjjnu71e73XFxcW/JqcF9tZ62LBhj5w4caJNVlbWCU3T7OzsJR07diwdMmQIN2of6bPDhw9fePTo0WvKyspa3XTTTY/v3r27VbQyY6FnpDJLS0tblZaW3tayZUv/Jb2R4hJpfTbBrERV1ToAsCuZj4WJO+E7nc4/AcANHo/nYXvTQWK145xj59ojhMB/KSURAjk5OX/y+Xx4O3lTKeUUxtgUIcTJJDIhrKqc82Vom8fjKQybmTLYBoFEEP7djLEnhRDdbIOCDRVxOBzXK4rydyHEtTZUj1QyIHDffffVrVGjRn8p5aMA8KuUcrLH4xGpCpSqqmOllF2FEBT1lESNHHfCdzgcbRVFKRZCXJFEOMVdVVVVH5VSdhRC4IqIkk0RcDgcHRVFGQkAt0gp3YHZ/GqbqmupWpzztQCwUAjxvKWCSVjMEIg74fft27fG8ePHjwshMmJmVQoI5py/J6Vc4/F4pqSAOSllQqAPPwgA+NdMSjmLMbZYCJEWRK81pqqqA6WUdwkheqRUA6ewMXEnfMSSc77V5/PdX1RUtCWFsY3KNM75v/DgNJfL9X1UgqiwZQg4nc5OiqI8KKXsAwCfAMBsIcSHllWQhII457sURbnH5XJtTEL1007lRBE++jY9QghX2iFuwuDA5eXzhRCXmMhOWWKMAOccAwzwALt6jLHZ5eXlsyhy6r+gq6o63Ofz1fB4PM/FuBlIvAUIJITwnU7nXxVFaeR2u5+xwIaUE6Gq6hAAOM/tdj+RcsYliUGqqt4qpfwjAGC0jRsAZgghFiaJ+nFTMzs7+6KMjIwtv/32W6MFCxZUhLfGTQGqKCIEEkL4nPPbAGCUEKJTRNqmSWbO+QYp5ZMej2d5mphsCzPxgDUAQHdNLgBsZYzNk1IuEEL8ZAsFbaoE5xxX7Lh5O82mKpJaAQQSQvj9+vXLOnTo0LEaNWo0nD179nFqjf8h4HQ6uzDGJgkhriJcYo8ARtlkZGTkSinxQys8COtDn8/3SVFREUagUDKBgNPp5Iyxh4QQd5vITlkSiEBCCB/t5Zx/FFgmexJov+2q5pwXMsa+crvdk2ynXIooxDnHEEokqZ4AsJsx9jFjbKHL5VqTIibG1QzOOZ5Ncez06dPnzps3rzSulVNlESGQMMJ3Op0DAl/c4hKaEgDk5OS0x9nlvn37zl++fHk5gWIdAqqqOgCgp5QSQwg3Sik/DYRSrrOulvSVxDlfgOGpqfyxWSq0bsIIPzc3t7nX693eoEGDulOnTj2dCmBGawPnHI+MXiWEGB+trHQvn5ube0F5efkDjDEk+FvQx4wEzxhb4nK5tqU7Plbbj7ezSSlbeTyeP1stm+RZh0DCCD/g1sHNniVCiKnWmZScklRVVaWUfxVC0GHtVWtCxjnH4zr6AgDuf9SSUi5WFOWzjIyMpcl2bnnVIEhcqcBRIJOFEB0TpwXVHA6BhBK+qqr3SClHCiEwOiJtE+e8CQBswI0vt9u9KG2BiNDw3NzcluXl5d0YY0j0+LcOffGB+xZWRiiOskeBQJcuXTKbNGlyqkGDBtVpxR4FkDEumlDCD8zyv5RSvpnOp+5xzj9kjG10u91DY9zeSS2ec57BGLvV5/PlMcZwJYS3mCySUi7KyspaRLP4xDYv5/wHDGkVQvwzsZpQ7aEQSDjhO53Oexlj44QQ/y8dm8npdL6Fd0h4PJ6cdLQ/nM0BV8GtAIB/XQDgWwA4zhgb4Xa7V4UrT8/jh0Bg4/Zdj8czP361Uk2RIJBwwkdlVVWdiWe/u93uwZEon+x5OedvAsDFFL/8v5bknN/HGLtASqmR/E7G2DKfz7e8evXqywoKCo4ke7unqv6qqr6Nrkm3243/UrIhArYg/JycnEt8Pt9Yxpgbkw1xslSlu+++u3qdOnXmSCkv9Xg87SwVnmTCAtE0t6KrJjCLRws+k1Iuy8zMXFZYWLg7yUxKW3Xxi1vGWLnb7c5LWxBsbrgtCB8xcjqdtzPGinw+H174kaEoCh4elhJn5nPOewohPkA7s7OzW2VkZMwBgDVCiCdt3j8sVw8J3ufzdfD5fEjyeMRGU8YYHiGxFEleCLHV8kpJYEwRCHwsiJe+XM8Yw4tuV/l8vqbVq1cfSCuymEIfsXDbEH7AtYOHqWF4ogIAHRhjwu12qxFbZaMCqqpulVKePnXq1N3VqlW7CADmAgAenTDORmrGTBXO+TmMsZullDcBwM0AgFf9/YbknpGRsczlcqFPnlISI8A53wQAxj24fwshWiaxWSmpuq0IP3B41VI8hjaA9g+ZmZm3z507d28you90Oscwxv4a0B0vxzgFAFOFEDjDT8mEBI/kjiQfIPirAQAjsb5UFOVLt9uN4ZK+lDQ+TY1yOByP4nWcuDLXQTCNbmuzX4ewDeGrqtpDSjkaAH6nwcQYOwQAeckYm845RztwP6J1wJ4yABiSal/R5ufn1ysrK7s5QPD4RSvuSfgJnjG2QgjxJQBI+3V90sgqBALfkeDR0dr9tj8qipLrcrnWW1UHybEGAdsQPprDOf8ZAIzLwLeEEHjuTlIlVVWnB85T1+v9g6Io2cn8aX8QF41xBr+CCD6puqolyuIsnzH2JmMMOYVm95agar2QqAm/S5cuLZs0aVLfqJoQYkOAxJEQzkiVPZNS4hn5uYyxS/G+UADAWX539P1WVWa8y+HlJQCAx0bUCRiOLgw8RbBcCNHUBC5NhBB4VG/CU8+ePRtlZGR0VhTlJiklfhGN7fOFzkWDM/ikTnl5eU19Pt95Pp/vrPch0Hfw2IazoqnoGVTgwhhrIKVEV2VdRVFudrlc3xFmQXkvbF9ijDUvLy//RyxuVasS4XPOL37++efPv+qqq9TVq1d3LSkpqW184++///79+Nv8+fMbV+XZ9OnTm2/fvr3WL7/8UrNz584HmjZteipamVXVJdJyP/30U61NmzbVq1+//ql69eqV169f/3TNmjV9TZs2LQtnw7Fjx+T06dPZgQMHlm3evPldIQRuiMUtBQ61ww3WzoE/HHhXonsGj8B1u91vpMoMPicn5/JWrVr1adasWbdmzZqdm5WVpfdB+zEP117R9PFI+5Xddfnqq68alJaWZk2ZMsXfZ1PNPu0ljHU7lJeXw8GDB/fv27fv67Vr1771wQcfWHZfcMSEn5eX1/aaa655qXv37j3atGkTcyI6ffo0ZGVlxbweKysoKyuD6tWrRyXyH//4ByxatGj5t99++4wQImZH+OI3EFJKP7kH/j034INfKaVcWVRU9HVUhti0MO6xdOjQ4aXrrruu+6234icAlKJF4MiRI1CrVi3IzMTITErRIoAc8P333382b968u4QQ3mjlYfmICf/FF1+cdO+99z7evr22P2OFGiQjGAJff/01LFu27P1Fixb90arz8fFLVikluso6M8aQ6DMZYxg5g7P4lS6Xy7LZhJ1bdfLkyX/r3LnzqKuuoovF7NxO6a6b1+uFjIyMQYyxCVZgERHh9+zZs12PHj0K//jHP2qRJ1boQDIqQWDFihVbJ0+e3N3lcv2rKkDl5ORc6/V6bwyQ+414VysA4Oa4n+TT9UMnKeWHAIBn5VMiBGyNwPbt20uGDBlytxVRTxERvtPpzB04cOD0Ll261LQ1QqmnXD3G2FEMf5NSjlcUpbuUEpd53+hNDZwmiaSuuWdaBWL//eTu9XpXFRcX/zv14InMoj59+lz4+uuv/9CwYUNtUz0yAZSbEIgjAtu2bYO5c+c+O3z48FejrTYiwsdNrvHjx29t3rx5tPVSeZMIbN68GaZMmdJv9+7dq6SUkxljeGIkpv4AgFER2uaqn+gBYC1jDE+RRILfUlRUtMVkVWmTzeFw5A0aNGhOp04YcESJELA3Aj/++CO88847U8aNG/dotJpGRPhYmZSSPqKJFvUIyiPhv/baaxOOHDnSFQCu1BU9GAj7xIFgpaIoq6pXr75y9uzZxyMQn5ZZcR9j8ODB8zt0SOt7d9Ky7ZPR6J07d+Kkb/zo0aOfjlb/iAgfz65/7rnnFtCLEi3s5su/9dZbsHz58pNSSqMbbTsOAEIIPJuGUgQIEOFHABZlTTgCRPgJb4L4KTB+/Hj45ptv9vt8vqN4TyueLhmofYeiKA+kS1SNlYgT4VuJJsmKNQJI+KtWrXowLy9vdrR10Qw/WgRjXD7gwx9YUlJSdPr06csVRekYOHkS/x3h8XjejbEKKSeeCD/lmjQdDPo9Yyzqb2KI8G3eVZDwZ82apb788st4VAMlCxCQUmK/pxM7LcCSRMQeAZzhv/POO6+MHDky6hsBifBj315W1NCMMbbHCkEkAyA3N7fL0KFDl8XjS3HCmxCIFoGE+fDxvPqXX355batWGN5NKR4IaGGZEydOfCce9aVDHeTSSYdWTh0bE0b4CCGFZca3I2k+/IkTJ+KF55QsQIAI3wIQSUTcEEgY4ZsJy1y1ahV07ozf/wRP77//PuTn51cJrAMHDvjLLlq0yF/eKMtY98qVK+HGG/F7JPPp5MmT8NRTT0GLFi1g6NChQQtu3boVnnjiCZg0aRJccUVsr90lwjffdmZzmiX8cH0Z66usj40cOdKvUqh+ZFZfK/KFsqVdu3bgcrli1o/19fbv3x8mTJgANWsG/1Bfe/duuummCo6w6l3TZE+ZMqUCzmi4yIo2MSvD1oSPRgRrOPy9oKAAevfuDd26dfP/d6NGjczafEY+jfj37NlzVmfFul999VUYMGBAxPL1nWLEiBG2eFGJ8KvURSotZJbwsY9iwklGsD6NhH7bbbdFPKmw3iJzEo02aP+/Zs2amJA+kvW0adPgxRdfhF9++QVycnJg8uTJQfHSv3tWE7E26OjlahzSsmXLSgchc8jGNpftwzJDET7CooEfDaFiY82aNQuwQ+3YseOMwQPrnj17NvTp0yfkTMLYPChny5YtePZ5xYtd2Qw/ts17pnQifOvRNkv4S5YsATwVFicmoWaf+PvVV591x4/1SlsgMZQNSMQOhyOqCY7+HdJUxQFz+/btpuVWxhtVNV8jdlzpG1dalT2ran0xLGffsMxwDYczo6KioirPKrChiouL4eabb/bPGvSdNVLCDzXrsRPhU1imta9RVcIyw/VpazWMjbRgNlgx0w2FTaQurVhgjIPOuHHjQnJNtFwUm5Y6U6rtwzLDNZzm2tH8n0b/WjiXj0b4jzzySMWKQVuuBSN8o+9f8yVqy8yNG/97BDz6M2fOnAl4nAESPi7Xtf0Iva8WVynYUTS3FP7/wIEDYcaMGfD222/juRdg9FdqNuubMgL/KYVlWvhmVSUss7I+jW2Lq0rst4MGDQJcvT7zzDP+vSC9P9rYDzWTtNVuuOfG90Tvogimg3FGa3aGb/T36+vR+jq6TLGP44Rr06ZN8M9//rPiHcL+/8ILL1TsteEDzcbKZAfTz/iu6b0EGn6hXECaPKMXQN+VtPfy888/B7fb7X93NV21Z/p3OVgbZGdn+9u6KmXN7GcmzIdvNiwzHOHrfWoaWNqLYaaR9ISPjacfpS+88MIzXDraS4SdH5d1xhnNiRMn/D5adAHpfbX6xkP5u3bt8vv61q9f7x8EtEEJXUHaoKAROOqk91dqL4m2OYby8Dcz+xgUlmkh0wdEmXXp6GsOty+FefWTDo0AjL9pK0d0gWAfefbZZ8/od5U9RxJ9+OGH/Rus+n6NhIZ7Y3odgqEWajWLfV2b0ASbzGD/RjvQ3631db1LVtNFe4e0uo0z/MpkB9sn0XhCPwEMJyNYm1VG+MG4SL+6x3d0xYoV/ncfU6g2QNefMdjDbNlwgSUJI3w02ExYZjjC18/wNcLWk5/2MoTa4DESvn6QePfdd+GTTz6p8OHrQdeiA/QE3Lhx46CEH6rRUUaoGb5G6MZBxqiDcQCojNLIh29vwkfttNm1vg8b3wFjn9Cea/0s3PNQUTb62SiuMiqbRBhnpxqyxpW2flWivZ/6CQ+uZvWRPWYIvzK3jyYb6zKuivTvGl6faHxu1E8fAWRm8qjhihiEI21tsmfskfoVXSjeqKxsuCiuhBG+mbBMBCMc4etn5GvXrvXPyPUdNVQH0oA2Ej7+rg0Sd955J1x66aUVhK+fnWudQT+gtG7dOuaEH24AIMK3ntQrk2jlDN8s4Wv5tNmitrLUVp7hniMx4XsSKqwx2KBjxCDcexnqvdPLxhVtVQjfjOxghK4nfLRHvxrX7KvM9nA+eqN3oLJZOpJ2qDYwDuDG9qysbLjen9SEb4zS0Y+w2tLGSJBGQIIRPubRZOl9bsE2bfSxvfGY4WuNry27w+1R6O2lGX641yHy54ki/HDfkVT2PJgvW2+5FYSvkRbK1Q8s+hUqEldVCN+MbLMz/Mr0M8b4a5O7YFFIxigdM6St37vT4x9N2XA9OGnDMivbBNH72YK5YfSghCL8YMu7YFEIet+iftbTtm1bYIxVbNpqS61wLhmji8Y4YOHzpUuXmg5PI8IP9wpE9zwawg8WvVWZS0fLj/1M7/8NNvsO9xxnn3qyw36GBNy1a9egbqVQM/zKItCMMevB+rKR8I3vEJIu7jMYV9fhZAcjTeO7FU5GsJ6h8U6wOHxtMqZ9E6TXWVuF4YeeOIkcM2YMDBkyJGQbRFPWRI+2Z1hmKF+jZlCwLxONvsXKvsjTR7sEi3IxE6Vj/AYAG2rYsGF+Qi4pKfHvtmPCfHhukH5mjl/Ydu/e3f8c6x88eDD06tWr4v9x3wHl6b8G7tixo3+DTosG0rAw8y0CnZZp4lWIMEukYZnGPq1foen7o/a75prQ9yPsW1o/06ur78PhnhtXAFp9CxcuPKOPBvPjV2aDET5jXv2GrjFAQfvSXNMd+zRG8Oi/iEf5wWTofzdyAMrRR8npcQqlX2XdQJvp69/BYO+fPh/ii3/4m7biCdUGOGBEU7Yy3W0flhnh+5fy2bGDYjLuxm/YsMH/cZiJ4xkoLNPCXlKVsMxoqw82EUGZ+PvixYsB956CfTCoPcePAilFj4A2QEfiVo2+1ugkJMyHbzYsMzrzUqt0qP2IytxSegQoLNP6/lAVl060WoRyU86fPx8wcACDF7QNXb0fWntuYlIQrYppU14/E6/KeVvxBiphhI+GmgnLjDcgdq8vmJvL7AyDNm2tb91EEH6okMhgsft6i60+V8Z6NJNXYrIQf8II31sKztYAABS7SURBVGxYZvJ2AftpToRvfZskgvCtt4IkpgsCRPjp0tIAQIRvfWMT4VuPKUmMHQK2D8uMnenpJ5kI3/o2J8K3HlOSGHME7BmWGXOz06wCCsu0vsEjDcu0XgOSSAiYR4DCMs1jlSo5KSzTwpbMyclp98orr2zAg/YoEQJ2RyBhPvxu3bpdOn369C3NmzfPsDtIqaLftm3bMD67x6hRoz5KFZsSbYfD4XA8/vjj7ltuuUVJtC5UPyEQDgH8WKy4uHj0iBEjng+XN9xzFi6D8bmU8jsASI4rfiI1zob5P/zwwyN4AUpRUdF/L/KlFDUCnPMbOOceznnzqIWRAEIgxgisXr0a79rInzp16pxoq4qI8Lt06ZKZm5s7p0ePHrx5c3pXogU/XPnDhw/D9OnTV61cufLB4uLi7eHy03NzCDzwwAP1O3XqNDc/P/8u6sfmMKNciUFASgnvvffe+k8++eTBoqKiH6LVIiLCx8qys7Pv6NGjx+vdu3dv26RJk2jrp/IhEDh+/DjMnz//X8XFxU8VFRUtIKCsRSAnJ+febt26jc3JyWmDZ99QIgRsisCmCRMm/HHQoEHfWKFfxISPlXLO77rhhhuGXHbZZR3btGlTEw8Yw9MugyW8JYeenY1MKFxq164NTZo0OTl37tyV8+bNe9Ptds+zoqFJxtkIcM6vcLvdfU6cOPHnXbt2nZOVlXVGJmyj3bt3w6lTp84qTM8IF2OnsKpP4MoeT+o8evToZ3feeWceY2y/Ve9vlQgfK8/NzW0ppbyyQ4cO5z777LPrx44de8vhw4fP1StWv379vf/3f//3pR2e7dix4w8jR45UPR7PtXbWs23btt/l5+cXqaraQAhx0KqGJjmhEcjLy2t6xRVX5JWVlZ2xZB0zZowoKipquW7dumuNpenZ2bjs37//akVRfuvatetswuzMHhNJf2GMndq1a9f3hw8fXjdv3rzgM+kqvtBVJvwq1pewYpzzowDQTAhxLGFKUMWEQAojoKrqIz6f71qPx9Mvhc1MatPSifDXAcBdQoh9Sd1ipDwhYFMEVFUdKaW8Xghxp01VTHu10onwf1QUpZfL5fo27VudACAEYoCA0+kcDQBej8czLAbiSaQFCKQN4auqusTn8630eDwvWoAbiSAECAEDApzzjYyx591uN0WV2bR3pA3hc847A8ByAGgthPjJpu1BahECSYkA57wFACwTQlyelAakidJpQ/jYnqqqPiqlHJqRkXFtYWHh7jRpYzKTEIg5Ak6ncyJj7KgQIurP/2OubBpXkFaEj+3MOf8LAIxijDndbjcdV5DGnZ9MtwYBh8NxmaIo/1AUpZ3L5dpmjVSSEgsE0o7wEUSn05nNGBvDGPvc7XYPjAWwJJMQSAcEOOfVAGAtY+xdt9s9KR1sTmYb05LwscGys7PPVxTlWcbYHwDgr0KIt5K5IUl3QiDeCOTm5jb3er2fSinnU2ROvNGvWn1pS/gaXE6nswtjDN08bQDgRSFE1CfSVa0pqBQhkDwIqKp6j5SyQEo5yuPxvJY8mqe3pmlP+Frzq6r6gJQSvxDEKIPXhRB/T++uQdYTAsERcDqd4xhj2VLKQR6PZz7hlDwIEOEb2srpdN6pKMqDUkonALyjKMqbLpdrc/I0KWlKCMQGAXw3GGOvM8bWlJeXDysuLv41NjWR1FghQIQfAlnOeRvGmCql7AUABxljM0pKSt5dvnx5eawag+QSAnZEIDs7u1lmZuY4KWX7gNvTZUc9SafwCBDhh8cI4/cf8Pl8DhwAAACvGpwrhPCYKEpZCIFkRoBxzkcCwGDG2OjS0tJxixcvPp7MBqW77kT4EfQAzvl5jLEeUsr7AeAOACiSUrrJjxkBiJQ1KRDgnD+L0WsAIBRFeY3i65Oi2cIqSYQfFqLgGbKzsy9SFKU7DgAAcJuUEi8q+aBhw4ZFU6dOPV1FsVSMEEgoAk6n82nGGJL95wAwUQhhyU1LCTWKKq9AgAjfgs6Qm5t7gc/nu0tKeQ8AdAeApYyxBTgICCF2WVAFiSAEYoZAnz59apeVlQ2SUj7JGMO4+slCiNUxq5AEJwwBInyLoe/Vq1eD8vLyrj6frxtj7C4A2McY+8Tn833k8Xi+srg6EkcIVBkBvKpUSnk3Ywy/Np+mKMoUl8u1vsoCqaDtESDCj3ETBT7sQn9/V4zxZ4wtlFJuBIA5QohfYlw9iScEzkKAc459sT8AlEop9/p8vmnFxcXbCarUR4AIP45tnJOTc4nX672VMfYYAFwIADullIsBYInH40GfKSVCIGYIOJ3OBxljjwJALQCYIoR4GwBkzCokwbZDgAg/gU2iquqNUkq8Dg5nXFci8TPGlpSXly+mGZf1DcM5x0vKcaBtyBir4fP58JuKwz6fb1dxcfG/ra8x8RIDZ0a9yBi7HQA2SynfpqiyxLdLojQgwk8U8oZ6e/bseW5WVpaf/AODAN69i38Tq1WrtrygoOCITVRNGjVycnIub9pQ6Vs9U+lSt3ZGo/MaZdRu0SSrdoM6mbWrVWNZXi94j5zwntxz8PSxnXtPnzxy3Fdadkp+/2vJqWlCiC+SxtAginLOMYLsD1LKe6WUMwFgtcfjmZXMNpHu0SNAhB89hjGR4HA4rmeM5TDG2gJAFwDAS9iRhL6oXbv28hkzZvwWk4pTQGi/h/P6N6yrPNK6ZY1mN19dp/nFzfEEX3PpwBEvfPPD8dI135/Yc/Skb+meA74X5s6du99c6cTm4pxfF1gtPggAB5DoGWOzhBAnE6sZ1W4XBIjw7dISlegxfPhwZdOmTbcAwC1SSvwXBwA/+eNf27Ztlw8fPtyXBKbEVMVHHsp9pGmjrL90v6HeFb+/slZmtJX9vPsUuJeW7ig5UL50Z8mpfkIIb7QyY1FeVVX8GBBJ/mp0C/p8vplFRUVfx6IukpncCBDhJ2H79e3bt8aJEye0AQDJvzEA7GCM4Z29X7jd7lVJaFaVVc7Ozm51SYua73f7fd3f3X5t3TpVFhSi4I87y+D9hYe2/LTr5N/mzPEUWy2/KvI45xcGXDZI9HsBYNaxY8dmfvrpp2VVkUdl0gMBIvwUaGe8QJox1l5KieSPA8EVeGE7Y+wL/HO5XN+mgJlBTfhD75z8yy+q/uLjvMkldWspMTWzcMmhvd9sOrl4wuQCJNmEpMBtbU8AQAd016Dbhr6GTUhTJGWlRPhJ2WyVK52Xl9e4vLxcI38cAFpoA4CUcneqHPz2xMC8MR0vq923zz0NmsWrGddvPQlzFx/84tU35iC+cUkOh6Ojoih5AIAnt24CgI+PHTs2mWbzcYE/pSohwk+p5gxuDK4AAjN/JP8OgdDElQDg/0vGGeKTA/MndGlf+8H7bzqnYbyb8F+/lsHUeQe/emXS+zfGqm6M2srIyBjEGLsVw0illHOllHOKioq2xKpOkpv6CBDhp34bn2VhIDa7MwB0Zozhvxcj8Usp/QOAx+PBf237Qc7A/r0G39a+9jPZt9bHvYuEJPTrT5l3YNlrbxTcZqUCAZcNzubvQ5IHgO89Hs+rVtZBstIXASL89G37CssDHyT5B4DAH0Z7VKwAAqsAW4T24VEVXdrXnTXQ2fiCRDfdN5tOeAuXHJo2YfIcPKagyiknJ+dar9f7SODk1U1I9GVlZXMWLFhwospCqSAhEAQBInzqFmchENgEbufz+W4MrABwIFjDGPMPApmZmSvnzJlzKN7Qcc4zWressXHEI+fhtwm2SDM+Prj7k6+O9BVCLIlEIVxlZWZm5kopcwGgLgD82+fzPUEum0hQpLyRIkCEHyliaZi/X79+WaWlpf7Zv5RSWwVskVJ+ryjKx1LKVfE4BnrQn/MLBzga5VzSorqtWmHolP/8c9Rr71+lV4pzPgUAeiqKcpd2AiUOWEjwjDEk+QuklN8wxgqFEEttZRApk7IIEOGnbNPG1jDO+Q2B89ORfXHz8kBgH2BVRkbGKqtvSMrJybny5mtqfTogu/H5sbUscukbfzwJ7310cOzEt+Y8h6WdTud4xtjDAFBPSjkSv4/QEf2XSPJHjx4VFGUTOdZUIjoEiPCjw49KBxBwOBxXoftHUZROUkocAPBjoB04+w8MAFGdsz7o8fzPhj/c9Pa6tTJsifnI6Xu3DXt5VmvO+XDG2AAppbahfCoQSjknIyOjsLCwcKctDSCl0gIBIvy0aOb4G6mq6q0+n+8CxhiSP/41BwD8AngVDgJXXnnlKuNxELm5uc29Xi+6OTYyxp5wuVz/Qs3xq9Kbr6698s+8ScI3akMhufGnk/Bqwb7FZad81wPAObp8B6WUKh1/Hf8+SDWejQARPvWKuCAQuAD+xsBGMA4A1+gHgOrVq686ffp0B7wUPnBUxHc+n+8xPBPmqYH5E/+iNn7iombmD0GLi1G6Sr7+4QRMKCzx+XyA5+1k6euXUs7yeDx/iLdOVB8hYESACJ/6REIQ4JzXwdm/bgDADeESxpjeR48hioMvv6jG6NH9m52xKZoQpSupdH9pOfrxD6zdchIvAS/zer2XKopykZSyuRAC7zmmRAgkHAEi/IQ3ASmgIcA5x4uzf29A5Ph5DbPYpKdb4C1Ntk74MdYkceD5v79dMNrWipJyaYsAEX7aNr29DO/Zs2ejzMzMLwGgTUCzw3jnKgDUufSC6o3GPBr6uJwDpSch/+mPYdGKn0MatbKwF9zYHk+YiCxpsocOvMFU+Wfe2L38tTcK8DgESoSA7RAgwrddk6SnQk6nsxNjDI8e3sQYWyOl/NLr9W67qFnN4S883LTPOXXCR+cUfLgJVqz9FSYMuQ1q1vjfcfir1u+CHb8ehvz7tLHEHMb6gcTsgDH0nT0/jBo3G6+rpEQI2A4BInzbNQkppEfgmcfzvxz3ePObzKASivDNlA2VJ9IZ/ivvl+wYPGImnk1EiRCwHQJE+LZrElJIj8BzT/Ve/9JjzTCiJ2wKRvgbNpf4Z/tXXFy1QzUjJfzpCw7sWrjm6DVCCLyPmBIhYCsEiPBt1RykjBGBvz3d+5+j+jcz5SIJRvjzP/sJWl/SsILw0b0zcPhnMGPs3fD23A0wpXAj9M9td4YbCPN0zp3jV2Xemz3hrbkbwKwP3/X5ob3uJQc7FRcXb6fWJATshgARvt1ahPQ5A4Hnn+7z/cj+5g5LQ8Lv/czHZ5Rv1/pccE3s4Sd8PZFrv2PmnL8sgMnD7/Bvym79+SA8MfJzmDT0dn+Zqa6N8GbBhorn4ZpHfF5aIpaW3iiE+ClcXnpOCMQbASL8eCNO9UWEwJCnem8c/Zi5GPxgM/wJ762Fe7q0OmuGrw0CRpfNyMmrodUF51Rs8OIAoB8Qwik/+5ND/1mw6vC18ThMLpwu9JwQMCJAhE99wtYIPPuX/DWvDGyOxxWETWZ8+JpLJxjht27V0B/e2ef+NhWEH6kPf2Lhvl8Wrd57OR2MFra5KEMCECDCTwDoVKV5BJ4akPfRK4+36J6ZEb6rVhalo/ny9x866ffhByP89m2awlNjlkKLpnX9PntMkRL+i9P2bBs+djZeIk+JELAdAuHfItupTAqlEwJ/fjT/b0/lNB7VqkX4c3Qqi8OfPe8H/8bs+k17QxI++vC1fQAt7l6/L2AmFn/wm7u/eeX1AlMrknRqR7LVHggQ4dujHUiLEAg4HI6Ofe5ptKiyy8rNfGn7/qvdoeX551RE3+CmLW7Uos9e+0IX8+DHWfjbsIl4uRfA+L/eCotW7jAVpbOvtBxemrF32oQ35/yJGpQQsCMCRPh2bBXS6QwERjz34LahDzW9zO6wLP766JF35u+/3+PxLLe7rqRfeiJAhJ+e7Z5UVg8a2GvhqEebdatZXbG13iOm79n2wsvkv7d1I6W5ckT4ad4BksF8zvltD97T0HPvjfUa2FXfkkPlMHZ2iWv83wvwvlpKhIAtESDCt2WzkFJGBP46qPeGMY82a2dXZN6Zd+DXz9cdv9Plcm22q46kFyFAhE99ICkQeKhvbt/e3Rr8/dYOdWrbTeHSY14Y+d7ez8e/UXCH3XQjfQgBPQJE+NQfkgaBwU/2/valx5p1ZDbrtePnlvzy1T+O3VFUVPRj0oBJiqYlAjZ7ddKyDchokwg4HI7rb7+unnisZ2PbXGa+futJmL3w0BuvTy54wqQZlI0QSBgCRPgJg54qrgoCTw7o9XrO7Q0G/P53tc64KLwqsqItc+S4F8bM2Pvt2IkF10Uri8oTAvFAgAg/HihTHZYi8PSf85cNdDbucnHz8F/fWlqxQdiId/ds3fzL6a6FhYU7Y1kPySYErEKACN8qJElOXBEY/Jf8bx5Xm1zbokliJvovzSzZ/t22E72FEHjxOiVCICkQIMJPimYiJY0I9O3bt8a59U9/8ch9ja679PzqcQNISoCXZu79acOPJ/8khPgibhVTRYSABQgQ4VsAIolIHAKDHs//7L7O9Trdck2dmrHWYmfJaZjywf7vf/r1dG+Xy7Ux1vWRfELAagSI8K1GlOTFHYEnH80bdcF51fo85mh8YayOX/ho5eGDy9cfW3/gWLUeM2bM+C3uRlKFhIAFCBDhWwAiiUg8Ag6Ho22r82tM6fS7Oq0fuLleI6s0+m7bSfhgeemmnSXlo2fMKvzvRbeUCIEkRYAIP0kbjtQOjoCqqt1anpc1vM3FNS668/q6zZo1jnxT97dTElZsOH7ky++O7Tx8zFv4xpQ5owhvQiAVECDCT4VWJBvOQgBn/BedV/3JGjUyrrvw3KyG7S6r2fSCpllZTRpkQrXM/3V7CQAHD5fDrn2nYfPPv+3d+ktZ6eFj3h2/7iuf4Ha7FxG0hEAqIUCEn0qtSbYERaBnz57nZmVldWzeOOMWRWGXM2D1mcIywSd9XgknpIR/HznhXXP46Ok1RUVFWwhGQiBVESDCT9WWJbsIAUKAEDAgQIRPXYIQIAQIgTRBgAg/TRqazCQECAFCgAif+gAhQAgQAmmCABF+mjQ0mUkIEAKEABE+9QFCgBAgBNIEASL8NGloMpMQIAQIASJ86gOEACFACKQJAkT4adLQZCYhQAgQAkT41AcIAUKAEEgTBIjw06ShyUxCgBAgBIjwqQ8QAoQAIZAmCPx/4sRYtx6TOCEAAAAASUVORK5CYII=;fontSize=15;" parent="1" vertex="1">
          <mxGeometry x="-580" y="250" width="380" height="640" as="geometry" />
        </mxCell>
        <mxCell id="MWNhhg4DmTbggFdNVIW7-74" style="edgeStyle=orthogonalEdgeStyle;rounded=0;orthogonalLoop=1;jettySize=auto;html=1;fontSize=15;" parent="1" source="MWNhhg4DmTbggFdNVIW7-75" target="MWNhhg4DmTbggFdNVIW7-77" edge="1">
          <mxGeometry relative="1" as="geometry" />
        </mxCell>
        <mxCell id="MWNhhg4DmTbggFdNVIW7-75" value="Scheduled &lt;br style=&quot;font-size: 15px&quot;&gt;EventBridge &lt;br style=&quot;font-size: 15px;&quot;&gt;event" style="outlineConnect=0;fontColor=#232F3E;gradientColor=#F34482;gradientDirection=north;fillColor=#BC1356;strokeColor=#ffffff;dashed=0;verticalLabelPosition=top;verticalAlign=bottom;align=center;html=1;fontSize=15;fontStyle=0;aspect=fixed;shape=mxgraph.aws4.resourceIcon;resIcon=mxgraph.aws4.eventbridge;labelPosition=center;" parent="1" vertex="1">
          <mxGeometry x="-1150" y="90" width="78" height="78" as="geometry" />
        </mxCell>
        <mxCell id="MWNhhg4DmTbggFdNVIW7-76" style="edgeStyle=orthogonalEdgeStyle;rounded=0;orthogonalLoop=1;jettySize=auto;html=1;fontSize=15;" parent="1" source="MWNhhg4DmTbggFdNVIW7-77" target="MWNhhg4DmTbggFdNVIW7-86" edge="1">
          <mxGeometry relative="1" as="geometry" />
        </mxCell>
        <mxCell id="MWNhhg4DmTbggFdNVIW7-77" value="&quot;Temporal&quot; &lt;br style=&quot;font-size: 15px;&quot;&gt;SQS Queue" style="outlineConnect=0;fontColor=#232F3E;gradientColor=#F34482;gradientDirection=north;fillColor=#BC1356;strokeColor=#ffffff;dashed=0;verticalLabelPosition=top;verticalAlign=bottom;align=center;html=1;fontSize=15;fontStyle=0;aspect=fixed;shape=mxgraph.aws4.resourceIcon;resIcon=mxgraph.aws4.sqs;labelPosition=center;" parent="1" vertex="1">
          <mxGeometry x="-1020" y="90" width="78" height="78" as="geometry" />
        </mxCell>
        <mxCell id="MWNhhg4DmTbggFdNVIW7-79" style="edgeStyle=orthogonalEdgeStyle;rounded=0;orthogonalLoop=1;jettySize=auto;html=1;fontSize=15;" parent="1" source="MWNhhg4DmTbggFdNVIW7-80" target="23y6dVjpXbi9V2l3sJmg-1" edge="1">
          <mxGeometry relative="1" as="geometry">
            <mxPoint x="40" y="239" as="targetPoint" />
          </mxGeometry>
        </mxCell>
        <mxCell id="MWNhhg4DmTbggFdNVIW7-80" value="&quot;Portfolio&quot;&lt;br style=&quot;font-size: 15px;&quot;&gt;SQS queue" style="outlineConnect=0;fontColor=#232F3E;gradientColor=#F34482;gradientDirection=north;fillColor=#BC1356;strokeColor=#ffffff;dashed=0;verticalLabelPosition=bottom;verticalAlign=top;align=center;html=1;fontSize=15;fontStyle=0;aspect=fixed;shape=mxgraph.aws4.resourceIcon;resIcon=mxgraph.aws4.sqs;" parent="1" vertex="1">
          <mxGeometry x="-130" y="180" width="78" height="78" as="geometry" />
        </mxCell>
        <mxCell id="MWNhhg4DmTbggFdNVIW7-85" style="edgeStyle=orthogonalEdgeStyle;rounded=0;orthogonalLoop=1;jettySize=auto;html=1;fontSize=15;entryX=0.329;entryY=0.002;entryDx=0;entryDy=0;entryPerimeter=0;" parent="1" source="x99btNPnGnlGqi2Zv7ce-10" target="x99btNPnGnlGqi2Zv7ce-13" edge="1">
          <mxGeometry relative="1" as="geometry">
            <mxPoint x="-280" y="200" as="targetPoint" />
            <Array as="points">
              <mxPoint x="-455" y="220" />
            </Array>
          </mxGeometry>
        </mxCell>
        <mxCell id="x99btNPnGnlGqi2Zv7ce-16" style="edgeStyle=orthogonalEdgeStyle;rounded=0;orthogonalLoop=1;jettySize=auto;html=1;fontSize=15;" parent="1" source="MWNhhg4DmTbggFdNVIW7-86" target="x99btNPnGnlGqi2Zv7ce-11" edge="1">
          <mxGeometry relative="1" as="geometry" />
        </mxCell>
        <mxCell id="MWNhhg4DmTbggFdNVIW7-86" value="Temporal&lt;br style=&quot;font-size: 15px&quot;&gt;listener" style="outlineConnect=0;fontColor=#232F3E;gradientColor=#F78E04;gradientDirection=north;fillColor=#D05C17;strokeColor=#ffffff;dashed=0;verticalLabelPosition=top;verticalAlign=bottom;align=center;html=1;fontSize=15;fontStyle=0;aspect=fixed;shape=mxgraph.aws4.resourceIcon;resIcon=mxgraph.aws4.lambda;labelBackgroundColor=#ffffff;labelPosition=center;" parent="1" vertex="1">
          <mxGeometry x="-890" y="90" width="78" height="78" as="geometry" />
        </mxCell>
        <mxCell id="MWNhhg4DmTbggFdNVIW7-103" style="edgeStyle=orthogonalEdgeStyle;rounded=0;orthogonalLoop=1;jettySize=auto;html=1;fontSize=15;exitX=1.005;exitY=0.85;exitDx=0;exitDy=0;exitPerimeter=0;" parent="1" source="x99btNPnGnlGqi2Zv7ce-13" target="MWNhhg4DmTbggFdNVIW7-80" edge="1">
          <mxGeometry relative="1" as="geometry">
            <Array as="points">
              <mxPoint x="-160" y="794" />
              <mxPoint x="-160" y="219" />
            </Array>
            <mxPoint x="80" y="780" as="sourcePoint" />
          </mxGeometry>
        </mxCell>
        <mxCell id="MWNhhg4DmTbggFdNVIW7-104" value="&quot;Portfolio&quot; event" style="edgeLabel;html=1;align=center;verticalAlign=middle;resizable=0;points=[];fontSize=15;" parent="MWNhhg4DmTbggFdNVIW7-103" vertex="1" connectable="0">
          <mxGeometry x="-0.0364" y="-1" relative="1" as="geometry">
            <mxPoint as="offset" />
          </mxGeometry>
        </mxCell>
        <mxCell id="MWNhhg4DmTbggFdNVIW7-112" style="edgeStyle=orthogonalEdgeStyle;rounded=0;orthogonalLoop=1;jettySize=auto;html=1;fontSize=15;" parent="1" source="MWNhhg4DmTbggFdNVIW7-113" target="MWNhhg4DmTbggFdNVIW7-78" edge="1">
          <mxGeometry relative="1" as="geometry">
            <mxPoint x="450" y="9" as="targetPoint" />
          </mxGeometry>
        </mxCell>
        <mxCell id="MWNhhg4DmTbggFdNVIW7-113" value="Scheduled &lt;br style=&quot;font-size: 15px;&quot;&gt;EventBridge event" style="outlineConnect=0;fontColor=#232F3E;gradientColor=#F34482;gradientDirection=north;fillColor=#BC1356;strokeColor=#ffffff;dashed=0;verticalLabelPosition=bottom;verticalAlign=top;align=center;html=1;fontSize=15;fontStyle=0;aspect=fixed;shape=mxgraph.aws4.resourceIcon;resIcon=mxgraph.aws4.eventbridge;labelBackgroundColor=#ffffff;" parent="1" vertex="1">
          <mxGeometry x="340" y="20" width="78" height="78" as="geometry" />
        </mxCell>
        <mxCell id="MWNhhg4DmTbggFdNVIW7-115" style="edgeStyle=orthogonalEdgeStyle;rounded=0;orthogonalLoop=1;jettySize=auto;html=1;entryX=0.5;entryY=0;entryDx=0;entryDy=0;fontSize=15;" parent="1" source="MWNhhg4DmTbggFdNVIW7-133" target="2Z3qkWI-7tnVhUUQlFyz-3" edge="1">
          <mxGeometry relative="1" as="geometry">
            <mxPoint x="550" y="214" as="sourcePoint" />
            <mxPoint x="620" y="270" as="targetPoint" />
            <Array as="points">
              <mxPoint x="606" y="220" />
            </Array>
          </mxGeometry>
        </mxCell>
        <mxCell id="MWNhhg4DmTbggFdNVIW7-132" style="edgeStyle=orthogonalEdgeStyle;rounded=0;orthogonalLoop=1;jettySize=auto;html=1;fontSize=15;" parent="1" source="MWNhhg4DmTbggFdNVIW7-78" target="MWNhhg4DmTbggFdNVIW7-133" edge="1">
          <mxGeometry relative="1" as="geometry">
            <mxPoint x="460" y="404" as="sourcePoint" />
          </mxGeometry>
        </mxCell>
        <mxCell id="MWNhhg4DmTbggFdNVIW7-133" value="Performance&lt;br style=&quot;font-size: 15px;&quot;&gt;Listener" style="outlineConnect=0;fontColor=#232F3E;gradientColor=#F78E04;gradientDirection=north;fillColor=#D05C17;strokeColor=#ffffff;dashed=0;verticalLabelPosition=bottom;verticalAlign=top;align=center;html=1;fontSize=15;fontStyle=0;aspect=fixed;shape=mxgraph.aws4.resourceIcon;resIcon=mxgraph.aws4.lambda;" parent="1" vertex="1">
          <mxGeometry x="470" y="176" width="78" height="78" as="geometry" />
        </mxCell>
        <mxCell id="2Z3qkWI-7tnVhUUQlFyz-4" style="edgeStyle=orthogonalEdgeStyle;rounded=0;orthogonalLoop=1;jettySize=auto;html=1;entryX=0.575;entryY=-0.001;entryDx=0;entryDy=0;fontSize=15;entryPerimeter=0;" parent="1" source="23y6dVjpXbi9V2l3sJmg-1" target="x99btNPnGnlGqi2Zv7ce-12" edge="1">
          <mxGeometry relative="1" as="geometry">
            <mxPoint x="130" y="240" as="targetPoint" />
            <Array as="points">
              <mxPoint x="29" y="220" />
              <mxPoint x="259" y="220" />
            </Array>
          </mxGeometry>
        </mxCell>
        <mxCell id="23y6dVjpXbi9V2l3sJmg-1" value="Portfolio &lt;br style=&quot;font-size: 15px;&quot;&gt;Listener" style="outlineConnect=0;fontColor=#232F3E;gradientColor=#F78E04;gradientDirection=north;fillColor=#D05C17;strokeColor=#ffffff;dashed=0;verticalLabelPosition=bottom;verticalAlign=top;align=center;html=1;fontSize=15;fontStyle=0;aspect=fixed;shape=mxgraph.aws4.resourceIcon;resIcon=mxgraph.aws4.lambda;labelPosition=center;" parent="1" vertex="1">
          <mxGeometry x="-10" y="180" width="78" height="78" as="geometry" />
        </mxCell>
        <mxCell id="2Z3qkWI-7tnVhUUQlFyz-5" style="edgeStyle=orthogonalEdgeStyle;rounded=0;orthogonalLoop=1;jettySize=auto;html=1;fontSize=15;" parent="1" target="MWNhhg4DmTbggFdNVIW7-78" edge="1">
          <mxGeometry relative="1" as="geometry">
            <mxPoint x="100" y="640" as="sourcePoint" />
            <Array as="points">
              <mxPoint x="100" y="640" />
              <mxPoint x="379" y="640" />
            </Array>
          </mxGeometry>
        </mxCell>
        <mxCell id="2Z3qkWI-7tnVhUUQlFyz-3" value="" style="shape=image;verticalLabelPosition=bottom;labelBackgroundColor=#ffffff;verticalAlign=top;aspect=fixed;imageAspect=0;image=data:image/png,iVBORw0KGgoAAAANSUhEUgAAAIQAAAEDCAYAAAD0hqxzAAAgAElEQVR4Xu1dCVgT1xa+CSCIArIj7qKi4vJcq1X6fFZFqTtMCERq64JWEStqbbUiLrU+RakoPpf2qRWQEIKgtVWrPqVawaK4FNe64AoIIiiggZD33cGhw5iQmZBMZsi93/e+V5w755z7nz/nnHszmSMAaCAESAgIEBoIATICiBCID3UQQIRAhECEQBzQjACKEIgdKEIgDqAIgThAEwGUMmgCZSrTECFMxdM014kIQRMoU5lmsoQQi8XtVSqVm0qlsgMANFGpVJUCgeClQCDI69at273IyMhqUyGByZ1USiQSWwuhYoK9XZOAppbCNrbNhLatnc2tXO0tmjVvZtbUwgyYVymBsqxCWfGsuKrs4bOq1yUvq16WvanOK69QHSgtB/L9+/fnmwJBGnWECAwUTWzl1GShm5N5m2F9mrXr4dEUWFrQX3K1CoCcu69Bevarhw/zK58Uliq//2H3/u8bMzHoo8MjFD6bGTjPwdYsZHg/mw7D+zdvpi/TM3LKlEcyXt4uLlHKYrYnROhLLpfkNCpCiESif3m4W2z6yLtFtyE9rS0NBfTl2xVAfqok597TN6vi4pKSDKXHGHIbDSEWzJXE9+5sNWyqr4M7W0CmppcUpV8qu/AoXzFOJpMp2NJrSD28J4RYLG7Tzs08JXi0fX+vjlaGxEqt7Ad5CrAzrejPG/crPpbL5dmsG6BnhbwmBIZh/bq3t4oLD3LuatvMTM/QMBP37d6CuxdvloUmJyf/wuxObs3mLSH8/Pze69PFOm7Zp26duALppv0FD/64Xj4vMVF2kCs2MbWDl4TAMMyzh4fVwYhpbl2YLtjQ8zfE5ef+cb1iqkwmO21oXYaQzztCDBs2zPz9Pq0vrJjh1qsJgzMFQ4CnSebKH/Ju3citHJGYmPiQTb360MU7QiwIDfp1vsh5RDu3JvpYv0FklJYpwTe788+vj4l/zyAKDCiUV4QImR44a8IHtut8B9u2MCAmehF94UY5iDv64rvvYuMX6EUgS0J4Q4hx48ZZ9/dqkc3FukGTrzYlFDw4f/31SKlUeoslfzZYDW8IsWCu5Md5mFNwB3fupgqqN0peKcGq3Xn/27QlYXiDPcWSAF4QYtKkSS6De9lmLpa4tGcJF72p2Xv4+dPDv5fCk8wLehNqQEG8IMSC0KAd8zHnkHYt+RMdCJ+9qqgGK3Y9/XXT1oRRBvSj3kTzghCRXwTfWDHDzVNvq2ZZUFTCs9zsW4o+CQkJxSyrZqyO84TAMGz07ElOyfr8GpsxSg28AT5TsT2lcMnWnfvXN1CUwW/nPCHC5wYdWj2r5VhrK6HBwTCkgiVbn2Ssj4kfbEgd+pDNeUJELJ6Ss3Jmy+76WKwxZazfl39vyeofPQAAKmPaoU03pwkhFovdRw6wPj9tnGMrbQshrp+9+BgMFSfgf/p4dwDff+MDfj59FwRP8AJNrczpitH7vCOZL0v+e7BojEwmO6d34XoUyGlC+Pv7j1kY6Jo2qKe1BZ0137z3HATMPwRiI0eAIX1bgaIXFUCy8DBo38oWRC8dblRC3Hn8BkQnFi2N3RH/LZ21GGsOpwkx/7Og1QuDnL9u40pvuxl/8Br4LetRHedXvK4C+9Jy6kSIXUlXwORRnYFji6Y6485UxmtFNVi2/al809YEf52VsnAjpwkRHipJXB3iFkC3oCTSxZnEIDxCqBtwzurYcyB+40c6E0JXGYu3PD4TtSXBmwW/6qyC04RYGCr5NSrMfQTd1cFosGDtSbAj8TJeP1CdDokQsflMrbhV84eC5XMH4wQh/ztBKEKebXNLUPrqDS53hqgX+D7pyjsy6Nj4VeyTC+s2x/enM9dYc7hOiNNRYe4fMAWH7OBZ4t51UghMK/vSrtWShfpph/c+zn8J1i78ACzdmI6ToHdXFyDdPA54dnDATaHKoGvfsv88vbQ2Oq4P3fnGmMdpQiyaF3Rqw7xW/9QFGE3RQpMzyfMJEkG9MOK0crXBIwkxdCXE0v88vfQtIoQu7qy5JzxUcnRjmDvt7wAuXS/AdxLEJxnKIOqKuKiPgGR8d7WfbhgV5Edv4VEg62pebWGqb0Is2fY0a/13cQN0R8Twd3I6QoSHSvatnOE2pbk1vVNK6Pz7j0pwxxOD+OR792+tlhDUnQn5b30TYlHMk/SNW+N1iniGp0KNBk4TInR24LJwscsaus9AUKMBESHmRh6vrQGImgEeWF34Mx+8KlfU1hTWVhZ4ioADnltoIgRVxoQR2h/8rvnWM2//pq3xQWw5Vxc9nCaEv7//h/Mwl0Mf9GlG68CASBkw7E9ZdBjHg1oQEodX8BpMEXDAw6zLNwrwuaOGtgcbvj8PRgxpD1q5Ngd7U/7E5xA7EvjfVBnkFKXJCTdz34CYpMLPt+1K2KyLo9i6h9OEwDDMYVjf5pfm+Dm1YQsQQ+lJTS8tivulcCTXf93FaUJA5ywLn3JlzeyWPQ3lKLbkfrMn/87Xa3/UnlvYMkiDHs4TIjxUkrDsE9dAB1vj/lSvoX7iQ0HJ+aISGigSiYZM8WlxcJy3Xc2pEA9H1o1y1faUohk/7En8L9fN53yEwNPGwilX18xq2YPrYGqyb+3e/DuVFh278OG9VbwgBPzWM2Si49fdO7D/c/+GkjD/eRXYEF+QtHFLfEBDZbFxPy8IERISYtHG4XXO19NcO7MBij51xMiePTh9ofRfKSkpd/Up11CyeEEIuPjP5wT++9Oxjl/06kTrSMJQeDGS+6igEmxKLEiJ3prgx+hGI07mDSH4WEt8szvvr2u5yoF8ePye4CCvCCESiXzGDrHdHTzGvqURP0S0VB/LfFmall4awfWTSepieEUIaHx4aNDej8c4fNy7M3dTB3zv1GZZ4YlNW+JpP9xDi2UsTOIdISAmi+dLfg8Xuwx2czTeU9SafPNaoQKrf8i78nv2o36nTp2qYsGHelXBS0KMHz/epoeH7ZklH7v0MvbLxqjeWPV93s0rd8rHyeXy23r1FEvCeEkIiA2GYa26tLH8ZaHEpae9jfGPtZXVKvDNnvxb1+4pAqVS6UWW/Kd3NbwlBEQCvibAs531zzMnOPXr2Ireo/p6RxAA8OxFFYiRFebcfqAQS6XSmu/LeTp4TQgCc/jeKd/BtoNGDLBpzrYf4PcUSb++yLifpxgrk8mes61f3/oaBSEgKKEhgV+2drEICZnk1IGNFKKoVIEdaYUP7j+uTNsUGx+mb8cYS16jIQQEEDZFcXc2+++Ark27YcNbuJmZGWZ5P50pKU6/XHbj/hPFHJlMdslYzjOEXsMgZghLGcj09/f3bu9utbZ7uyYdfYfYubs6NHx7+uKVEhzLfJl/8Ub5g7tPFCtlMlnNM3qNbDRKQhA+wjCse2sXiy9trM369+pk5dTX09qZ7gO7UAb8LuLy7YrnWTfKC0vLlNce5ld+K5PJzjcyDtRZTqMmBHmlGIb9o6WjxeQmFgJvyyYCp2ZNhc0cbMwtbJsJzSsUKgtzoUD5prJa8bxUWVVWoSyveFP9vKoanH9aqJRJpdKMxkwC8tpMhhDqHDpx4sQWQqHQzszM7CeVSjVLqVTePHDgQJGpOF/dOk2aEAQg/v7+xdXV1f9ISUnJNWUywLUjQtScehZXVlZ2SE1NfYEIYeoIIEKYZlFZH+9RhPgbHZQyUIRAEYIaLTAMy1IqlX6oqERFJc4NlDJQyqgTJDAMO6VUKqeiCIEiBIoQlPyJikqUMlBRSfryq9/b/5apVKowgUDwFP7Nl2YnhjhCMtkIgWHYRwCAPQCASgCAK3wS7u3J7SOZTEYQxRCYc1qmyRLi7e4CPhlNfolHvkql+jg5OfkYp71mQONMmhAikWgvJAAJ31+9vLxG8+Fn+4bihEkTIiAgYEB1dTXspQCjRKFKpZKYcnRA33bWvKGGiBL/8/LyGmHK0aFBhMAwbOiQIUMGzJ8///WqVaveeRlGREREKlSwatWqidTwxqVr3t7eF3fu3Bnq5uZ2y97evpBsK5fs1GbLmzdvVOvWret8/fr1I1Kp9CddU4pOKWPx4sVfdOvWLcTb29ujU6dOQKFQvKO/SZOaH87w4Vp6ejp47733gEBQFw4+raGyshLk5uaCrKysRxcuXPilsLDwiz179jB+voMxIWbOnDnNx8dnnZ+fn7OuLET3GRaBkydPlv/000+x0dHRXzDVxIgQQUFBHQcOHBg3a9aswVZW/HvfE1Nw+Dx/z549lw8dOjQmJSUFP2yjOxgRws/Pr3NERER6r1693OgqQPOMhgDs/mcpEAjgwRvtwYgQUKpKpeJ0m0HaK2/kEwsKCsCxY8c+CA4O/o3JUhkRwt/ff+yXX355qF8/kz3ZZYKtUefeunUL7NixY/GmTZuimBiCCMEELR7NRYTgkbPYMBURgg2UeaQDEYJHzmLDVFYIgWFYv3Xr1mV17NiRjTUhHQ1HoINAILjPRAyjohJtO5lAa9y5aNtpXPw5p52VlMHkHKKiogIsWLAA7oVxsHx8fEB8fDw4c+YM6Nq1K/D09KwXxKKiIiCRSMDy5cvBkCFDGgz42bNnwerVq3EbHB0dGyxPnQDqmuGcuLg4fB1wUK9DLKhrUyeD0NW7d28glUq1Ygfnc4oQEPyhQ4fCr75xh8JBODgvL0/rooi5R48exQnUUEIQ9hCkNBQhCMdB0k2ZMqUOGYhr0OErVqwA06dPr9exVAIzwY9ThCAMh04kyMAUDDKBjBUh0tLSaEUydZGCwCA4OLg2OhDz4LWUlBQwc+bMeqOUuohGEJscdTQJ4UyEgJ+ODRs2aIwCcFFwaPvUGzNl3Lx5E4SFhYGYmBha4VmdUyAO+/bteydF0V0/LwihbdtJ5L/79+/TytUQ+ICAAHD58mUc01mzZoHo6GjQtGnT2hRDjhDkVELk58mTJ9fWKkSKIkI2WR4VYE264acXhntiEDLg3+SaSNunlJAfGxtbh/ww8owaNQpfI6xpIiIianWR06Mme93c3Ghh+1aocbedTAhBzPX29sbDKhVAaoSg/k2ORG3btsWd1apVq9o0Ba//9ttvtQQjA2xtbY3P16Qbzp07d25tlKPmfbrRCzr88ePHdUh+8eJFMHLkSEB1OHUukR50KSjhPZzYdjIhBDnMkhdPfErUEeDu3bvv1CXk6p0uIchFpTrdVEJQnUPYTi6a1aUN4j5iTerqEvKuQlNEKywsxCPp4sWL36lJOF9DQKbL5XKtOwm4ECIq+Pn5gTlz5tTZZlIJAeXCQS1UdSVEfbrVEQLWA0Q6q7caJF0knA2JumjRIrymgIUmTBdwkLHKysrSGNEggbXVZlSbOFNUkoFW5zwINqwxRo8eXS8B1EUIcgogA0AGntBZX8qA95LPOKi61BFC1zMMwpErV67ETZ4wYQL+/1T76rMXEoJYI7yXDjE5QwhisbAwo4ZUCPTJkyfxTzl1a0YNr9TrBNHIYZNcsZNzcHl5Oe5weI5BhGGYu4m6wMnJCb9ObAupusm7jBs3buC1xtKlS3FHkoteoh6oL2JoOj8g70KImoYsn0pKeI2QRWBc33kKpwhBTgfEDgL+G5Ug5CobOg5GDujE7du3gwMHDuD/DQdR0de3KyFfgwdQ8H/w36ADoePgQRkcxGlfUlJSbYVP1g11EdGLfDBG3eEwOeRSl+7I9kKb4M4DbtdHjBiBF8d79+6t5Rl5R0OuZ8g1h1FShrZtJ93ciuaxhoBxt52sLRMp0ooAJ7adWq1EE1hDgHM1BGsrR4rUIoAIgYhRBwFECEQIRAjEAc0IsBIh0LaTdxRkZdv5EgDAen9M3rnCyAY/fPgQHDlypE9ISAijroGMnroWi8Xu/v7+R/z8/Hoaeb1IvRYEkpOTn0ql0s+Sk5PTmIDFiBBQ8PLly3+YOHHitL59+zLRg+ayiAD8uuDw4cOpy5Ytmwx/sM9ENWNCiMXiPr17917n4+Mzqk+fPkx0obksIHD+/Hn4YPLvGRkZi2Qy2TmmKhkTAiqYNGlSj06dOs3r0qVLnxkzZjQpKipqlpmZ+U5d4evr+6KoqMic69d69OhRDt8vdfXqVWsqgHxZg6+vb+HNmzfv7du37/mdO3c2JyYmZjMlA5yvEyEIRRiG2clkspLJkye3tLCwaE01QCqV/sGHa9XV1fDNtYOEQqEtX9cAsdaFANR7GkQIfRjABRkYhhUplcq+qF9GAyMEF5ypDxtQR52/UUQRoqZfBuqo85YTiBCogUqdIIsIgQiBCEGtO/z9/c9WV1cHoaISFZU4N1BRiYrKOkECEQIRog4hRCLR1aqqqrEoZaCUgVIGpaBCuwxUQ6BdBnWXgWHY70qlMhClDJQyUMpAKePdbz/QLgPtMqjbTvRdBvou429OoAiBIgQ6mNLw3IBJbzs/+eQTvJNcWVnZ6aqqqmA7O7sH8O89e/a81sdzFnyUYbKEEIlEc1Uq1WwAAGxS1kulUuUIBAL4hHKlTCYbwEdn6sNmkyXE2y+1CgAA5P6jSpVKNTc5ObnmBd0mOEydECcAAMNJfr8IABgtk8memSAX8CWbOiFGAwB+fBslTD46mDwhhg0bZu7s7AzfbDZcIBBcVqlUI005OjSYEBiGDXZ0dOxhaWnpaWlpWUIOs3Z2dvlLly5NX7Vq1YdlZWUOXL1WUVHhlJeXF2pra5vq6OhY54exfFnDWztTxWKxjVQqvdOQdKdTyhg3bpxTnz59lnp4eIzt1KlTZ6FQCJyd3+0N7+HhAe7cUW8fV65VV1fjr0CErwW0sbF5B0uu2AkN02bLiRMnbmVkZKRfuHBh64EDB2reKM9w6EIIQUxMzAYvL6+Fw4eT6zGGmtF0gyCQmZkJTp06lXrp0qWwxMTEh0yV6EII2P8bdnprx1QZms8OAmfPnq1OSkpaEhMTw6jNs041xLlz58IGDBiw2czMjJ3VIS2MESgrKwOxsbEnKioqRkVGRlYzEcAoQkRGRgodHR2PhoaGjmCiBM1lH4HS0tIEOzu7mu5vDAZjQgiFwvPLly/vx0AHmmocBOIEAkEwU9WIEEwR48n8bdu2XT1+/PiIAwcOwON52gMRgjZU/JrIGiHatGnz07Rp08bwCx7Ts5YVQkBYVSoV7HX0telBzK8Vs0IIuMsYM2bMjoEDB87gFzymZy1rhEC7DH6QS6FQJMybN++TnTt3wgeAaA9UVNKGincTubftpPa7JPpZ0el9DeGndqpriEvoNl9tiA54r6Yen0SvL09PT60qiM7ExEQm9xL3cCplEC0FMzIy6vTvJBaqrQEqQQbY2a++RmNakX07gdxAjdxOme79TOdRuxZrwqM+ufU1lKdjD2uEoLPtrK/pKLlVo7aFGTNCQIfQjWTUdVAJAa9r62dKldHQiMYKIehsO4mFDBkyRGMXXmqHW03EMCYh6uskrI3I6ghB4NK+fXtajVh5QQg6204ih5J7TdYHILl3J5xHDunqCEHOr0TvzCNHjgCYXoi/iV7ZUJ5UKgUwb6sDWJ3url271jaBJewmbCLrri+V0YkQRCPXmJgYEBYWhvcoJadS3hBC27aTCSHgXHILZXJ3Xtgfu752yET3XiISkTvlwo635O686ghRn25IhAULFuANVcmto+G/w47AcNDpRQ47AsP55IbvkFywYS0kMBwEiWEHYaLzsCYCa4tM5Ouc2XYyIQSxADJg5E8emRCQAKGhoSAyMhL/xFMHU0LUp5tKCGpXX+JeTd19yesh20mNfjB1QrvpEJgJGd7O5ca2k2nxBD9pcrkcD+1ZWVmA3PCdTIgHDx7goRWGWH0RQpNudYSoj4x0ikp9EZguMVgpKmENoS1lEOGUcDLVefDTExUVBebMmQNbAGkkADVlECkChnCYJhoKcH3pSFOE0KSbbULAKAyHOhwIW1gjBJ1tJxFi8/Ly6pxDQDKsWLECTJ8+Hf+Uk8O8tbU1nrfhgA3cCUKQwyr8REMwiDAL5RE7FtjwnZyDiYKRONRxcnLC83lwcDD+/9p0EzWCSCTCa4CcnBy8WTtRpEI709LS8Ke1oa3kQaQMcg2iK4EJe4n7YQSGaXPr1q14qtE0WCEEVM7k205qFU89cSPSC2wJBK9BcCHoMDdPmjQJzJ4Nf4v7d+EFAdC0K6Hm7R07duCpCKYYggywkocD7oD69+8PAgICgDrdkCzEzoVc09S3IyIcQz2pVFdnUHdKMPJAMkNb4IiIiMB3HJoGnYM9VghBZ9tJN8eheYZFgDVC0KkhDLtUJJ0OApzZdtIxFs1hBQFubDtZWSpSohUBlDK0QmRaE1gjBJ1tp2lBz83VskIIpttObkJlGlaxRQhBZmbmTvSQLfdJxQohRo0a1czHx+dweHj4P7kPiWlbqFAo9s2bN2+6QR+yhRCvWbPmx+Dg4OC2bduaNuIcXr1CoQBNmjRZJBAINjI1k9FT11C4SCSaKBaLd02aNMmJqTI0nx0Ejh8/rvj5559nR0dH72aqkTEhIiMjzZVK5a7x48dP7d+/P+P7mRqI5jND4PTp0+DcuXOyq1evzkpISChmdreOryUMDg52+fDDD0dPnTrVLy8vb3xubi6wt7evo7tLly7g1q1bau1B1/SPS3Z2NsjOzr7/5MmTX7Kzs6NSUlLuMiUDnN/gT/icOXPeNzc3H2lubl5GGODk5HT/q6++ylq8ePHk6upqIdkwLl4Ti8UXXF1dvzM3N6/g6xoWLlzokZub+0oul5+HX0rrQga9EEJXxVy6D7VH+NsbDY4QXHKsrrZgGJajVCp9Uc8tPaQMXZ3ApfswDLuiVCrHIUIgQuC8RCkDpYw6AQoRAhGCSgjUhO0tIqioRCmjzocDEQIRAhGCusPBMOysUqkMQrsMtMtAuwzKpwOlDJQyUMpQkzJeAAC6ymSyPC4dmBnDFhQhUIRAEUJNhCiurKzskJqaCiOFSQ+TjhB+fn59oPeFQuFppVI5ViAQvIR/y+XybFNlhckSQiQSjVOpVN+/bfXcEgCQ//b5kMcymaw/IoQJIoBh2F+w2R1p6QUCgeDjpKSkmvcGmOAw2QgBfY1hGOzqS+46c/xtq2elCXIBX7KpE2IgACDhbZQoFAgEU0w5Opg8IShR4gwAYJhMJjPZ6GCShMAwzNO2udDbztp8MBCCdpUKlUtBcaWXg535naZWwkcqAB5VvFGdf1b0Jl0ul18xtdRhEikDw7B/tnaxWGjX3KyzZxtL+x4eTV1bu1iAFjY1vUdPZr0Cw/o2B0IhAC/LlODRs0pwPff1s5w7b14Uv6rKfVxQFZ2UlPSzKZCjURMi5NOAWY72Fp8N9rJu869+Ng7Nrev8IoCWfyurVCA9+9Wr05fKcl+UKhO37EhYQ+tGnk5qlITAMGx4p9aWUWMG23Tz/kdzK335JvtmBUg5VZLzIK9y9Y/xiVJ9yeWSnEZHiPBQyb5eHlYfTv3IAR42GWSkppcUpV8su/DomcK3sRWhjYYQgYGBTm1chYeDfRwG9vDQW1DQSKj7TxVg18GiKzfvVwTI5fIbBmGeEYQ2CkJgGNahS1vLgwvEzj0c7cxZgxHWF+v2Fty+/FdZsFwuz2RNsQEV8Z4QGIa5eba1Ov7VVBcvayvmRaM+sF29O++vq3+9xmQy2SV9yDOmDN4T4svPJVlLgl37EVtIY4G5YufTa9dz33jLZLLnxrJBH3p5TYjwUEnarImO47u0tdQHFg2S8ay4CqyPf3YmKibOu0GCjHwzbwkRHBSATRxmGzt5WAtnI2NYq/7MlbI3suMvvo3ZnrCSKzYxtYO3hIhYNCVnZUjL7kwXbOj53+4tuHv1ruL9/fv3w+creDd4SYjPZwf+e9oEpy96srC9ZOrRJ4WVICqhICV6a4If03u5MJ+XhFi5JPhGxHQ37S1yjYTwxoRnuZk5ZYP4+BQ37wgBv5+YMcFp24DuOnwxwRJB7j1RgC2ywpjo2Pj5LKnUmxreEeKLMMm5f4e6D9IbAgYStHzn0z/XRMX1NJB4g4nlFSEkEoltvy7mVxcEunD+ranSE8X5B069HCGVSv80mPcMIJhXhAgICJjwudgpeZCXtcbz6aIXFUCy8DA4+ts9jXCdSQwCQ/q2YgwnIXv53MFa77/7WAE2S59F8m0LyitCLAwN+u+yT9w+tbetebClvhF/8Br4LesRiF46HDS1+ps/Zy8+BvcflQDJeGY7VjLR6BJq0ZYn/9u4JX64Nlu5dJ1XhFg8X3Jm/Vz3d5t2qkFUEyEaAj6TCAH1fL396dVvNsX1aohOtu/lFSGWhU+5smZ2S1qFmjpCXLpegEcLzw4OOuHMlBBr9+T/tWztj511Umakm3hFCCbnD+oIkXb8L9DVw6GWEDB9zI08Dvb8ewzYvv8S2JF4GcwS966TZuCcoWL4pD4Aqdsmgf/svwTo1BBwfvT+ggcH/5frcerUqSoj+ZexWl4RYs1XwbeXferWic4qISGmLDpcZ2rvri5AunkcTgiyo4l/h5MD5h8CsZEj8KLx5r3nIGz1CRCz/EP8np3Sy2Bb/KXa69rs+I+88OGRc0VeBw8exH8zyofBK0Ks+vLjW8unudIKweoiRPTuLOA7rOM7EYIgCTUlrI49Bzq2sastQCFByITR5uCtsmcPj2UUdT106FC5trlcuc4rQkQsDr62cqZbNzrg0akhiJShjhBdOzrg29fgCd1rCcG0hlgfV3B/yaq9HejYy5U5vCLEks8lF9bNce9LB7z6dhlELVFYXIHXEOoI0be7K1iw9iRo5WqD1wxwMCXEyu/zbkau39eVjr1cmcMrQoSHSo5uDHMfRQe8+s4h9qXm4IXjxWv5GgkBawiiDiHOHch1CZ2ziCXbnmat/y5uAB17uTKHV4SY91lgxOcil5UdWzXRiB+dk8q4qI9A+9Z2tbsHWFTCQhLWDMQJJ5wDD6/gv0Vshj/7BGDTV/8CR8/cp7XLeFleDVbuyk/cGBsXyBVn07GDV4SAb3yR+DgcmzSsBef7fWX8WXkcMvUAAAMQSURBVKbcklwkSkiQptBxBFfm8IoQELTIJcHXV0x343xejorLz03PLu7Opx0GxJd3hFg4TyL96mMXEZu/v9Dl07t4y5PforbEf6DLvca8h3eEwDDsH+OG2v0cPMbeYD/Va6hDjv/x8tWutOdBSUlJhxoqi+37eUcICNCiMMnZdXNavm8m5Kb5y3bkXVm7cV9vtp2pD33cRFTLyjAMGzre2y5pymjuRQkYHRKPl4T+sHv/Xn04iG0ZvCQEBCl8btCRhRIXH3cnC7Yx06jvtUIFVux8mrE+Jr7mJIuHg7eEmDhxYos+njYZXHr6ekNcPnza+iO5XJ7DQy7gJvOWENB4f3//sb7v227/dKwj8+fh9Oyxn86UFB89V7p2667EKD2LZlUcrwkBkQr7LHCtz3u2s33ft63ba5pFGDNzypVJJ14kbdoaH8SiWoOo4j0h8HoiVLLTZ5CNaNRAGzuDoFSP0D+ul6n2H31xJHpbgi/bug2hr1EQAgLz+Zyg797zshaLR9q7GgIodTKPZb4sPZLx8lh0bDzGlk5D62k0hIBATf80YIZHK8ul80XOHQz98hD48Mvth6/3xGxPjDC0k9iU36gIAYELCAjo0s7VfK/PYNuew/s1b6ZvMLNulKtSTr64fPdp1WdSqTRD3/KNLa/REYIANGR64CxXB/N5voNsugzq2azBhxWXb1eA1PSSW89LlAl8+/ENE5I1WkIQIMycJp7pYGse4tm2SUvv3s1bdWpD/20zuXkKcO5qWd6VO6/zS8uU0tgd+79lAi4f5zZ6QhBOCQgI8HC2F0yxshCOaG5t5uRoa9bM3dnCqkVzs6YW5kLzKqVKWVKmfJ1XVFlRUFxV/qqiuqhKAc48eV71I99+n9kQIpoMIaggYRjWXCgUtlEqlfZCodBSpVJVCoXCF2ZmZo8TEhKKGwIqn+81WULw2WmGtB0RwpDo8lA2IgQPnWZIkxEhDIkuD2UjQvDQaYY0GRHCkOjyUDYiBA+dZkiTESEMiS4PZSNC8NBphjQZEcKQ6PJQNiIED51mSJP/Dxiryj+FdWiZAAAAAElFTkSuQmCC;fontSize=15;" parent="1" vertex="1">
          <mxGeometry x="540" y="240" width="132" height="259" as="geometry" />
        </mxCell>
        <mxCell id="x99btNPnGnlGqi2Zv7ce-17" style="edgeStyle=orthogonalEdgeStyle;rounded=0;orthogonalLoop=1;jettySize=auto;html=1;fontSize=15;" parent="1" source="x99btNPnGnlGqi2Zv7ce-11" edge="1">
          <mxGeometry relative="1" as="geometry">
            <mxPoint x="-440" y="129" as="targetPoint" />
          </mxGeometry>
        </mxCell>
        <mxCell id="x99btNPnGnlGqi2Zv7ce-11" value="Breakout&lt;br style=&quot;font-size: 15px;&quot;&gt;Strategy" style="outlineConnect=0;fontColor=#232F3E;gradientColor=#F78E04;gradientDirection=north;fillColor=#D05C17;strokeColor=#ffffff;dashed=0;verticalLabelPosition=bottom;verticalAlign=top;align=center;html=1;fontSize=15;fontStyle=0;aspect=fixed;shape=mxgraph.aws4.resourceIcon;resIcon=mxgraph.aws4.lambda;labelBackgroundColor=#ffffff;" parent="1" vertex="1">
          <mxGeometry x="-670" y="90" width="78" height="78" as="geometry" />
        </mxCell>
        <mxCell id="x99btNPnGnlGqi2Zv7ce-10" value="Trend&lt;br style=&quot;font-size: 15px;&quot;&gt;Strategy" style="outlineConnect=0;fontColor=#232F3E;gradientColor=#F78E04;gradientDirection=north;fillColor=#D05C17;strokeColor=#ffffff;dashed=0;verticalLabelPosition=bottom;verticalAlign=top;align=center;html=1;fontSize=15;fontStyle=0;aspect=fixed;shape=mxgraph.aws4.resourceIcon;resIcon=mxgraph.aws4.lambda;labelBackgroundColor=#ffffff;" parent="1" vertex="1">
          <mxGeometry x="-750" y="180" width="78" height="78" as="geometry" />
        </mxCell>
        <mxCell id="x99btNPnGnlGqi2Zv7ce-14" style="edgeStyle=orthogonalEdgeStyle;rounded=0;orthogonalLoop=1;jettySize=auto;html=1;fontSize=15;entryX=0.437;entryY=-0.001;entryDx=0;entryDy=0;entryPerimeter=0;" parent="1" source="MWNhhg4DmTbggFdNVIW7-86" target="x99btNPnGnlGqi2Zv7ce-10" edge="1">
          <mxGeometry relative="1" as="geometry">
            <mxPoint x="-217.24376999999959" y="239.5300000000002" as="targetPoint" />
            <Array as="points" />
            <mxPoint x="-890.9999999999995" y="87.99999999999977" as="sourcePoint" />
          </mxGeometry>
        </mxCell>
        <mxCell id="x99btNPnGnlGqi2Zv7ce-20" style="edgeStyle=orthogonalEdgeStyle;rounded=0;orthogonalLoop=1;jettySize=auto;html=1;fontSize=15;" parent="1" source="x99btNPnGnlGqi2Zv7ce-18" target="MWNhhg4DmTbggFdNVIW7-80" edge="1">
          <mxGeometry relative="1" as="geometry" />
        </mxCell>
        <mxCell id="x99btNPnGnlGqi2Zv7ce-21" value="&quot;Portfolio&quot; event" style="edgeLabel;html=1;align=center;verticalAlign=middle;resizable=0;points=[];fontSize=15;" parent="x99btNPnGnlGqi2Zv7ce-20" vertex="1" connectable="0">
          <mxGeometry x="-0.3722" relative="1" as="geometry">
            <mxPoint as="offset" />
          </mxGeometry>
        </mxCell>
        <mxCell id="x99btNPnGnlGqi2Zv7ce-18" value="" style="shape=image;verticalLabelPosition=bottom;labelBackgroundColor=#ffffff;verticalAlign=top;aspect=fixed;imageAspect=0;image=data:image/png,iVBORw0KGgoAAAANSUhEUgAAAXwAAAKACAYAAACfX8M1AAAgAElEQVR4XuydCXQUVdbHb4WwC4osgiwio4KAgriMDjAKCrgNS9LVCZvLh4gsoqi4gCyCoCMoI4KAioNCkOR1AnFhEQcZAUVFBlQQRmUQwYVFEGUnXd+5PbxMpajurk6qu6uq/3XOHIfUq/vu/d3q/3t13+tqhXCAAAiAAAikBAElJaJEkCAAAiAAAgTBx00AAiAAAilCAIKfIolGmCAAAiAAwcc9AAIgAAIpQgCCnyKJRpggAAIgAMHHPQACIAACKUIAgp8iiUaYIAACIADBxz0AAiAAAilCAIKfIolGmCAAAiAAwcc9AAIgAAIpQgCCnyKJNobZs2fPc4LBYH1N084OBoOVFEXRNE07VK5cub3p6ek7cnJyDqYoGoQNAp4lAMH3bGpLBubz+a5veE7FvhXKKy2qVUmrUa9meqW6NctXOeuM9KoVK1B5TSM6fDR47Jffig79sOfE4b0HTh4+dETbd+xk0Uc7fz6ek5+f/68UQYUwQcCzBCD4nk0tkaqqVzWoU/7xGtXLXfynllXrXta0yhlnVy8XU8Tf/3ycPtl8eM/Gb47u/u1w0Qc/7Qs+tWDBgu9jMoLGIAACjiAAwXdEGux1gmfz559bcUKbiyo3vqlt9XPOrBqbyIfzZsdPx2nRP3/d8d1Px7/67qdj9+bn539tr+ewBgIgEE8CEPx40k2wbVVVzz+vbvm//7HFGRf7Op5ZJ17d/3KwiOYu+WXHjp+Pr3xu2vzb49UP7IIACNhLAIJvL8+kWRvcv9cjDeumDxjQo9b5Z51hz4w+WjD/3nGM5i7Zv2nrjqNDhRArorXHeRAAgeQSgOAnl78tvT8wuNfSLldX+1PnP1avZovBGI28tGjfzs3bj817/sWcx2K8FM1BAAQSSACCn0DYdnelquqZTc6tsLxf15pXXtiwot3mY7L33qe//b74o4PvTpk2PzOmC9EYBEAgYQQg+AlDbW9HqqqefUGDiv+4P7t26zo10u01Xkprn205TPOX7V/23PT5N5bSBC4DARCIIwEIfhzhxsv02LFj044c+PrTh3rXaVPrTGeIvYx1/dYjlLN0/8LnpudkxCt+2AUBECgdAQh+6bgl9aqH7u21coha+9rz6lZIqh/hOl+x7rff31p1cObfZswf7kgH4RQIpCgBCL7LEn//oF5/y7qhxqCrW1Yp72TXX3lz365law/+XyAQeNfJfsI3EEglAhB8F2VbVdVrOl5xRu49PWo1dIPbY176cfMH63a2Wrly5Uk3+AsfQcDrBCD4LsrwY/f3+WzioHpt3OLyt7uO0YzALwuenT6vp1t8hp8g4GUCEHyXZHdg/54P9Lnx7Kf+dEkVZxbuw3Cckb/3+39uOHxzbm7uly5BDTdBwLMEIPguSe2o4X03j+tf92KXuFvs5m+Hg/TEKz+ueHba/Ovd5jv8BQGvEYDguyCjd9+VPbjfrTWfv6p5lcS8M8FmJrMW7tu5/JNfO+JlazaDhTkQiJEABD9GYMlo7rbavZHRj/tO0KR5u+dOmT7/tmTwQ58gAAL/JQDBd/idkJmZ2aL7tTWW97mxRj2HuxrRvSdm/7Rl7F/nuq4k5Wbm8B0EjAQg+A6/J3jf/QM969zX8BxHb7uPSnHxRwf3z3n7l65CiNVRG6MBCIBAXAhA8OOC1T6jj97Xe91Tg8+93D6LybG0e/9J+uvrP7/y3PT5/ZPjAXoFARCA4Dv4HuB35lQO/ufbh/vUaexgNy279uiLP67769/mXWn5AjQEARCwlQAE31ac9hpTVfXy228++91b2lY/26rlfQeOUO8H36Flq/4TumT1gl6095cj1OwPZ1PT8y2bsdpdTO0mzvn525ETX78gpovQGARAwDYCEHzbUNpvqN+dPe8allXr5RZNKlkyfuToSRo2cQXVP6cajRp8Teia8dM/ovxl/6bc5/+SdMF/7Z1ffnxz1f6rCgoKdloKCI1AAARsJQDBtxWnvcaGDer9/KO31xlq9X33W//zCw0d/w+aOur6EuJe+N43JWb43G7Lt79QtxtKP9k22rQSOf9IyqyFe7sEAoEPrbRHGxAAAXsJQPDt5WmrtQcG9wpMHHhuZsUK1tIkyzlt29QvnuEbHZJPAe2vaEC9uzYvlb/hBpZoxvhd+ZPn7+7xxht5i6K1xXkQAAH7CVhTEvv7hUULBPi3ap+9r34XC02Lm+S8uZn6PPRO6N9cv2fxlwcLddZ9b9HGLbtDf2rVrE6o1LPui5+Kr+G/z5t8S/FgwPbmFm6mLu0a0wNPvU++Lk0psGxrsc0B2a1oyoiOVLlS9B9i2fyfozQld89dr7y6YHYsMaEtCICAPQQg+PZwjIuVB4b0Xvbs0HM7x2p8zfpd1C57fglRlwu28imgb7fmIVE3ztalwOc8ewst/eA/xQOBfhBg+4PHvhfzusCW7Ufp2Td2D3jl77kvxRoT2oMACJSdAAS/7AzjZmHY4F5vThpy7l/KlStdmsxm+0bB1zvPC7yjn19NXdqfTyz4Nc+qTPoBgP/NR2kF//NvjtCzC/b2fv31Bf8djXCAAAgklEDplCShLqZuZw8M7j17VL9z/u+sM6y9M43FfP2mn6lT2/9t25cC37h+9VDp5fDRE6Ftm3KGz3TlwMAlID5Y+OMh+Ks/P3Ts+QW7bwkEAv9I3awichBIHgEIfvLYR+15yN09Hx3Ws85TTepbewU+i/uLORvooX5Xlqips6CvWrfTVPB5tq4XeOO/7Zzh579/YM8b7/7y5/z8/C1Rg0cDEAAB2wlA8G1Hap9Bn893/b1q7bf/fNkZljbiG2fzvJBqLOHod+m0uLAWffXtPvrrS58U1+NZ/Fn0I83w9XV/3t7ZuV1jS4u2z87f893bK7dfgJ88tO8egSUQiIUABD8WWgluq6pq7RuurLb+7u41G1jpWpZ0Gp1bvcRuHP2CqyzZcK1+3H3taFDv1iW+mct/43O8g6dPt+Y0/K8rQ13r6/r6b/MadwJF8vPxWT9+OeHZeZdYiQVtQAAE7CcAwbefqa0WRw3v++W4/nVb2Go0CcaOn9To0ek/Lp0yPeemJHSPLkEABPA+fOffA7xT58kB9f5SpVKa852N4OFnWw7TjIJ9t82es2CuqwOB8yDgYgKY4Ts8eT6f76ZBvtqiQ5szqjrc1YjuTZ6/57tV63+55M033/zNzXHAdxBwMwEIvguy98SjfbeO/r+6F7nAVVMXNY3o4ek/fDB5as61bo0BfoOAFwhA8F2QxWGDe895sFft2+vXduevXr378W8HZ7/1S8+8vLzFLsANF0HAswQg+C5Iraqqjf50SdVV92fXbuQCd09zceSMHz+fOGVeKzf6Dp9BwEsEIPguyeYDg3sXPNi7do9za7lrlr9i3e+H5i375d6/v5b7d5eghpsg4FkCEHyXpLZnz57nXNKkwoeP3V6niUtcJq7dPzrjx3XP4GcN3ZIy+OlxAhB8FyV46D29xmTdUGPEny6tYu1dC0mObWbB3p3vfXrQl5+f/3GSXUH3IAAC2Ifvvnvg4aF91jx6e50/1ahm7YVqyYqQ993PX7Z/xnPT5w9Klg/oFwRAoCQBzPBddkdkZ2efe/F55VeM7le3qVNd373/JD2bs+fDZ6bOa+tUH+EXCKQiAQi+C7Pu8/muu6Zl1dce6FXHcbt2jp3QaPyrP3256dvf2y9atOiAC/HCZRDwLAEIvktTe3sff8+rWlT966DMWg2dEsKJkxpN+PvPW77cdrhrfn7+107xC36AAAj8lwAE38V3wh23Zfe65A8Vn3qgZ/Jn+gd+L6Ln5u/evPk/RzLxvnsX31Rw3dMEIPguT6+qqh1b/qHSjPv8tS860+IvY9kdMv9W7ZzF+9dt23XsL0KIn+y2D3sgAAL2EIDg28MxqVays7MbNqpTLq9HhzOvvLpF1YRu3xH/OLD7o02HVk+ZNj8zqRDQOQiAQFQCEPyoiNzTYOjgnhPPPbtCz/+79ezGtWukx9Xxzf85SrnL92/+985jjy9YIBbGtTMYBwEQsIUABN8WjM4x0q1bt4ZNGladdWH9ii0zO57VsI7Nwr/1u2OU//6Bb/ceKHpnyos59zkncngCAiAQjQAEPxohl57PzMy88Lx6lSecXT2tzfVXVGt0ZfPK5cullS7dvCD74ReH9q/98vAPB38PLt628+DYt95667BL0cBtEEhZAqVTgJTF5c7A+/bNyq5zZnq/6lXSGjZpULH6xY0r1uOXsNU8M50qlC95Cxw+GqQ9B07S9z+fOLZp29E93+8+fuDIseBX3/98YroQ4p/uJACvQQAEmAAEP8Xug4yMjCYVK6ZfVqdGuWvKKWlNKI3O2v/ryYsqVlAOVqlc7gclqOw5URTc8sPe4x8pivIvIcSeFEOEcEHAswQg+J5NrfXAVFVdqijKxry8vEesX4WWIAACbiMAwXdbxuLgr6qq7xPRt0KIu+JgHiZBAAQcQgCC75BEJNMNVVX5x0n+KYSYk0w/0DcIgEB8CUDw48vXFdYh+K5IE5wEgTITgOCXGaH7DUDw3Z9DRAACVghA8K1Q8ngbv9+fp2naWiHEcx4PFeGBQEoTgOCndPr/Gzxm+LgJQCA1CEDwUyPPEaOE4OMmAIHUIADBT408R4wSJR3cBCCQGgQg+KmRZ8zwkWcQAAG8WgH3QKiGz683XieEmAAeIAAC3iWAGb53cxsxsl69etU4ceLE84qi7CaiLpqm7VQUZZOmaQ2EENkpigVhg4CnCUDwPZ3eyMGpqvodETUytPpKCNE8hbEgdBDwLAEIvmdTGz0wv9//mqZpt+laHieiQUKI2dGvRgsQAAG3EYDguy1jNvqblZV1ZTAYnE9EF5wyu/7kyZOdFy5cuM/GbmAKBEDAIQQg+A5JRLLc0M3yi4hoAGb3ycoE+gWB+BOA4EdhrKrqBYqiNNQ0bb+xqRBig6qq5xPRmW49l5aWVj4YDL6vadpBRVF6EtGvMhYvxMcx9O7du/rx48cvJaKt+EGX+IsKenAuAQh+mNx07979rKuvvnpcrVq12tWuXbumpmlpxqbdunXb+8MPP1T49NNPq7v53H333descuXKRddcc02JQc0r8e3bt6/8e++9d8aePXt+3L59+wc7duyYKYT4j3M/lvAMBOJDAIIfhqumaX/bsWPHfY0aGTexxCcRybRaVFREhw8fpmrVqiXTjYT0/cknn9Dy5cvf/uKLLx7Mzc39d0I6RScg4BACEHxDIm666abqjz766BN//vOf73dIjuCGzQQ2btxI33zzzR0+n+81m03DHAg4mgAE35Aev9/fYeDAgfnXXXddDUdnDs6VlUCeoihZZTWC60HATQQg+IZsjRo16tHs7OynmjfHd4/cdCPH6us333zz64gRI/4khNgc67VoDwJuJQDBN2Ru+PDhL/fv3/+uCy+80K05hd8WCPzzn/88MW3atOxAIFBgoTmagIAnCEDwDWl8/PHHn7v77ruHNWzY0BMJRhDmBNauXXviueee6yqEWApGIJAqBCD4hkxPmjTpkaysrKch+N7+CEDwvZ1fRGdOAIJv4KJp2tVE9BFuGG8TgOB7O7+IDoJv6R7429/+NiwjI+M5zPAt4XJto6+//vr4qFGj2uXm5n7q2iDgOAjESAAzfNTwY7xlPNP8qKIolT0TDQIBAQsEIPgQfAu3ifeaoKTjvZwiougEIPgQ/Oh3iQdbQPA9mFSEFJUABB+CH/Um8WIDCL4Xs4qYohGA4BsIxbItc9++fdS7d29atmxZyMqAAQNoypQpNG/ePMrIyKCaNWtG42/5/Pjx42n06NGh9q+++ip9/PHH1L59+1D/Zge352PUqFGW+4hXwyNHjtCwYcNo1qxZoS6YTzi/t27dSllZWcTvu+nSpQvl5OTYylHGCMGPV7Zh18kEIPiG7FjdlslC1KdPnxLiJcWqbt26tgoV98UHiyT//7lz50a0LweHcePGOULwJeI1a9ZQu3btigfGypVPXzNNlO8QfCfLEnyLFwEIvoGslW2ZUtiHDx9+2kyVZ/0jR46kCRMm2DIzlbPjvn37Utu2bS3fB06a4esFf8WKFaEnldWrV58WD3PlJ6Rff/2Vbr311rBPAZYhRGiIbZl2UIQNtxGA4BsyZuXVCiymPFsNV24oLCykZs2aUdOmTct8P8iyEZdmvCD4/N79/Pz8EBcWd/0sn3keOnSI1q9fH7FcVWao/zWAbZk2gYQZ9xCA4Mco+FKAGzdufJpgmaXdWL/W16Xlufr161PHjh1D5Q4+5OxXlkD0dvkcDyZc3tEPAvr1BC7lyEPW8I3rDbKPaD6wHWMM+lJRLPV5jkceHKt+li+fjB5//HF68sknSwi+vq7P18u1Eh4s+NzQoUNDTw08EPN6iv58uI8iSjruESl4ah8BCH4cBV+KoVxclf/evn07zZ49OyRQciFTiij/bdeuXcWDiXGGrxduo2jLfjZs2ECPPPJIaABhwTeWmaRIPvPMMzRjxoyIPjAeXnCVtuUgxH23adOGxowZQ/369Qs9zUR7GpGCz9exTf0sn88xF17s1vdnZCjFf/r06aHr5SApB9K9e/eGFn0zMzMjrl9A8O0TEVhyDwEIfhwFn0WMBVxf+tELlhQ+nuHLmTi3XbVqVVjBZ3eNwsr98EKuLJHoZ+1sVy4wG29LuZuIBTacD1xe0dvW2zB7AuHz4RaLpeBzaYr//+DBgyk3N5f4ZyTlwMH/Xy/44frTPwVJO7KEZmVhG4LvHpGCp/YRgOAbWEbblqmfpUfbMmgmPFKseRFWzmbLKvjGpwIOSb9oy35s27bNdMZrHBz4Wv2gU1BQUGIAMgpwuMHA7BbVC77kwOLP5SxezOXByTijZztykORZ+6BBg0qUs/QDhxR8s4HW6A8E3z4RgSX3EIDgG3JlZVumnNmG20/Ogsk1fllyMNaqZf3drhm+2cBiFHz9U4M+5GiCzzN841OKvN6KsBoHCP63XHxmvydNmkTnnHNOqAbPfzcKfriSlly/MBN841OS2ccRgu8ekYKn9hGA4BtYWtmWKWfQLFJG0dfvmTd7GtCLEduJVE7hRUn9E4H8spLxb/oZMAuhfpGTyytyVsyCKktH3Ib941lxJB94Vw33a7x2y5Yt1Llz59Nq8ewbDxKdOnU67S6VdXpjHPoFcOMAZIxVv4YgS0Ncx5d5iLaOIJ3Ctkz7RASW3EMAgm/IlZVtmfoZrlw0lH8zDgDGXSxyB4kUe/2ibZMmTUJf5uKDFyF598ktt9xS7CH/7YUXXqB77723+Nu9sj99PZ37qF69OlWrVq2EwMtvsLJBbjNx4kQaMWJEiUVbow/6AUx+o1i/08i4+8fs27HhGPCAJp+G9OItA5a2XnzxxeJvGbPfvLjLvnDsPFhwDZ8HH35a4CPSN3l16ca2TPfoFDy1iQAEvwyCb1MOYKYMBMxKOlbMoaRjhRLaeI0ABB+C7+p7GoLv6vTB+QQTgOBD8BN8y9nXnb6M1apVq9AWT6vfbsYM3748wJJ7CEDwDbmKti3TPamFp5EIQPBxf6QiAQi+IetWtmWm4o3itZgh+F7LKOKxQgCCb6BkdVumFbho41wC2Jbp3NzAs/gRgOCjhh+/u8vZlrEt09n5gXdxIADBh+DH4bZyvsnPP//8+JNPPnm9EGK1872FhyBgDwEIvoHj6NGjJ2ZmZj526aWX2kMYVhxJ4B//+MexmTNn9goEAgWOdBBOgUAcCEDwDVDvueee3v369Zt3xRVXxAE3TDqFQG5u7o5FixZ1X7Bgwb+c4hP8AIF4E4DgGwhnZGScN3r06OmtWrX63zsN4p0F2E8ogR07dlBeXl7h8OHDM4gomNDO0RkIJJEABN8EvqZpdTRNW6koysVJzA26jgMBfq9Pbm7uxsWLFw9B/T4OgGHS0QQg+GHSM3r06JsaNmw4/pJLLrm8YsWKdNZZZ4Va8su6+OVdZgfOOZNLMBikEydO8I/K769Vq9bz2dnZ83Jzc7919CcTzoFAHAhA8CNA7dmzZ4sqVapcUrt27ZaKoig1a9bc9eCDD3741FNPdfztt99q6i9187ldu3bdWrFixR1NmzZd4sX4NE0rl56e/vOmTZveWbhw4b/j8DmCSRBwBQEIvivSFF8nVVX9OxH9UwgxJ749wToIgEAyCUDwk0nfIX2rqrpM07TPA4HAcIe4BDdAAATiQACCHweobjOpqupCIlonhJjgNt/hLwiAgHUCEHzrrDzbEiUdz6YWgYFACQIQfNwQBMHHTQACqUEAgp8aeY4Ypaqq7xHRl0KI+4EDBEDAuwQg+N7NreXIMMO3jAoNQcDVBCD4rk6fPc5D8O3hCCsg4HQCEHynZygB/qmqupKIvhFC3JWA7tAFCIBAkghA8JME3kndYobvpGzAFxCIHwEIfvzYusYyBN81qYKjIFAmAhD8MuHzxsWqqv5DUZRNeXl5Q70REaIAARAwIwDBx32Bffi4B0AgRQhA8FMk0ZHCREkHNwEIpAYBCH5q5DlilKqqFhLRZ0KIccABAiDgXQIQfO/m1nJkmOFbRoWGIOBqAhB8V6fPHuch+PZwhBUQcDoBCL7TM5QA/1RVXaFp2uZAIDAkAd2hCxAAgSQRgOAnCXyyu+3Vq1eNEydOPK8oym4i6qJp2k7emqlpWgMhRHay/UP/IAAC9hOA4NvP1DUWVVX9jogaGRz+SgjR3DVBwFEQAAHLBCD4llF5r6Hf739N07TbdJEdJ6JBQojZ3osWEYEACEDwU/geyMrKujIYDM4nogtOYVh/8uTJzgsXLtyXwlgQOgh4lgAE37OptRaYbpZfREQDMLu3xg2tQMCNBJIq+O3bt6/doEGDpidPnvzdCE8IsUFV1dZmUHHOPi6aprVQFGWGpmm/K4rSk4h+1TMHa/tYM9doPHv06FFn//79v6xcufKkGwUFPjubQDIEX+nfv/81L7300p83b96c8dlnnzWsXr16iZv74osvPnTRRRcdKSwsrGXEh3P2c5k1a1bD8uXLa9dcc81+PW+wtp91tPt60aJF2hdffPH9559//logEChwtnzAO7cRSLjgP/zww5Ovvfba2zp37lw7PT3dbbw86W9RUREdPnyYqlWr5sn43BbU119/TStXrvz3e++9NzkvL+9lt/kPf51LIKGCr6qqr1evXlO7d+9ez7lI4BkIJJ8AD8CvvfbahpUrVw7Jy8tbk3yP4IEXCCRU8CdOnLjwtttu616/fn0vsEMMIBBXAl988QW9//77Pe+7774Fce0IxlOGQMIEv1evXk3at29fcM8997RKGboIFATKTqCfoiivlt0MLIAAUcIEv2/fvnUeeeSR+S1atLge4EEABKITOHbsGOXm5r52++233xG9NVqAQHQCCRN8dkXTtHwiyojuFlqAAAiw4D/99NMrx44d2wE0QMAOAgkTfFVV6/fq1auwe/ful9vhOGyAgNcJQPC9nuHEx5dQwe/Spcu7/fr1w4u5Ep9n9OhCAhB8FybN4S5D8B2eILiXugQg+Kmb+3hFDsGPF1nYBYEyEmDBf++996bdeuut95bRFC4HgRABCD5uBBBwNoH7FEWZ6mwX4Z1bCCRU8B977LF5l1122XVugQM/QSCZBLAtM5n0vdl3wgSf8WFbpjdvIkQVHwKo4ceHaypbTZjgW9mWuW/fPurduzctW7bstJzMmzcvdM7OIycnh1atWkVTpkyhypUr22k6rK0jR47QsGHDaNasWaE2Xbp0IfZj9erV1KxZM2ratGlC/NB3In1q37697YwTHkyYDo331oABA0J55/sqIyODqlSpEsoLv/Zj1KhRtrkt2ZbGLgTftjTA0CkCCRV8q9syjULM/+7Tp0/ow2mX6Eub8oOfCMFfs2YNtWvXjsaNG1csKlKIfvrpJ/5WZcIFXz8A2cnXSZ8ws/tn69atlJWVRXXr1qXZs2fT+PHjQ4OwPjdljUHPtjR2IfhlzQCuNxJwheDLD8727dtDs+GaNWvakkk7Z/gs3AUFBdS/f39T36Swt23b9rQZJMc3ZswY6tevX8IFn52NdYYfLVZbkmOTESnsw4cPP22ywHGMHDmSJkyYgBm+TbxhxtkEXCH4jJBnYPn5+bbOgu0UfPaPj3DlAO5r0qRJYf3n2T8fPCAk+ohV8KPFmmj/I/XHvjLbcBOFwsLCUCmtUaNGjizpYFumk+4m9/viCsE3zvC3bNlCgwcPpkGDBhGXZGRZhtNhVh+XTwT6R2y+pk2bNrR+/XqaOHEijRgxosQjvVnJx1h/58d09sG47sD1eL1wx/qEEq7Oz3Hoa8IdO3YMlYj44D5r1aoVKlNs3LixRPmLZ7lDhw6l0aNHhwZOXiPRl7LMBN/oA5d7brzxxrCxynIV+yLXJdhf+WTTt2/fkJ9cmmvVqlWJgc9YX9fzY3/Zb+6f3xHP9Xa2K/PDObj00ktN1z+k3caNG0ddp4nEVebSjIksMZrdGzz4G2v4ek4WyzzYlul+nXVMBAkVfKvbMsPV8PkDohc5/QfGKFpmIqufmbII8qIdH/K/xkU7vR9yMJELm/KDy+LEA0ekBb9YBD9SHPpaM/sj45eiKEWcBzH+G/vPg6McFKQQ7927NzQwZGZmhp5IzPrUl5ikcHJbs1iZxYoVK4qfbiQ3bs9lKrkILxdI9az0ZRUWcjk4TZ06ldhPaZdtzp07NxQT/51ZPPHEE6EBmwd/s/WP0gi+vo7PDHft2lV8f0RjYuXeYJtNmjSxtBaFbZmO0UnPOJIwwWdiVrdlytmbnrJe3FlgjB9y/psUOTmjl/Xb6dOnh2a/Y8eOpWnTphWvARg/0JEEn4WFBcdsR0+0nRixCH60OMwE1zhAGvmY8dILqNyhYhQs413OOXjooYdKDG7Gma28Rs7imTvPgnmGL2fD+oHXLNdsgwcHnpmbibk+r5FKYKURfP1uGj1Xzr8cOI33JU9Cot0b1atXp4MHDzVCFcMAACAASURBVIY4WC3bYdHWMzrrmEASJvhWtmVKKtFq69EETAq+sZwgZ4jyvNkMPtwHnhdkw23hjCb4HJfVNQi9EJvFwSWNSAMT7zayIvj6gcVM8KMJmOQkYw8nZPochBP8bdu2ma59RCqhyKca/ZOO8VMVy0BrlkOj4IdjEul+DVfqsaIAEHwrlNAmFgIJFfzSbss0BhRuhs8zMH39V1+KYBvG2WIsgq8vkxh3CVkRfDkrlWUUs5h4FxLPaiPFYecMXw5gZuUq49OS9NcYa7QFXyuCb+W7EPpavn5rrr6Wb7ZgLktv4bac8vXMPBrXSPk3eyoz4+X3+0OlNLMdQ2YfWgh+LFKGtlYIOFbwjbNxfTBmgm82m9MLOi/4sVDIBTz5b/0C5uTJk4trtsbzsh6t31bJIs418m7duoVm8Hzwh5p9ad269Wn8w4mTvgYeLQ4pzuGeRMLN8HkQkaKnHwg5nnAizn3JEhZfw6LXqVOn02I9dOjQaYPU8uXLQyLKR6SSjtl2VebKPrFdHgT1TwZc/77iiito8eLFoScdPphruKcE+XQlF36Ng4X0L9oMX3I3Y8Jxsl2ze6Nz584lnsjM7t1wH1QIvhUJQ5tYCDhK8M2+aWvc8aLf5WDc7WF8fDZ+qUrOsnkXCy9g8v/k4i0LZbTzRv/0u1GsfpFL34dMlHG3Rrg4pOjIb+nydSyAvPOFD/Zn4MCB1L1799C/JR9e5OSnGxYf3hrKhxT/cCWHWGM11uLNdvXw31iYWXz5kPnZsWNH8e4i/d95gHnhhRdCC7LG9jwQGb+tHOn7Gfr7RnKPxMDIleOTg4NchDbbjaQ/Z7bIrt90oL/e7EOLt2XGImVoa4WAowTfisNoEzuBWGaVsVvHFXEmgG2ZcQacSuYTKvhWt2WmUgISESsEPxGU7e8D2zLtZ5rqFhMm+Aza6rbMVE+KnfFHKoHZ2Q9s2U8ANXz7maa6xYQJfizbMlM9KYgfBJgABB/3gd0EEir4Vrdl2h0k7IGAGwlA8N2YNWf7DMF3dn7gXQoTgOCncPLjFDoEP05gYRYEykoA2zLLShDXGwlA8HFPgICzCWBbprPz4yrvEib4nTt3Pn/SpEkvX3rppde7ihCcBYEkEThx4gR/i3jOnXfeeWeSXEC3HiOQMMFnbpqmPaFp2mhFSWi3HksZwkkVAps2beJfUZs2evToe1MlZsQZXwIJVd6//vWvt3fo0GHOlVdeGd+oYB0EPEAgEAj8KIS4Py8vL88D4SAEBxBIqOBnZmY2u/LKK6feeOONnfg9LzhAAATMCbz//vvB995779WJEyea/0gywIFAKQgkVPDZv8zMzD9efvnl911wwQXXXXzxxfVatmxJBw4cCP3PePCbLXEOXPT3hZfvCX5Da/PmzenLL7/88LXXXtu4adOmR5csWXKwFJ9rXAICpgQSLvjsxU033VTxjDPO6HDhhReeO2HChPWrVq2quWTJko5GDydOnChwLv5cdu3adet5552X36lTpzXIQ8m7MJH3YKVKlY6OHj16pqIoe6BXIBAPAkkR/HgEApulJ6Cq6t+J6J9CiDmlt4IrQQAEnE4Agu/0DCXAP1VVl2ma9nkgEBiegO7QBQiAQJIIQPCTBN5J3aqqupCI1gkhJjjJL/gCAiBgLwEIvr08XWkNJR1Xpg1Og0DMBCD4MSPz3gUQfO/lFBGBgBkBCD7uC1JV9T0i+pK/5AMcIAAC3iUAwfdubi1Hhhm+ZVRoCAKuJgDBd3X67HEegm8PR1gBAacTgOA7PUMJ8E9V1ZVE9I0Q4q4EdIcuQAAEkkQAgp8k8E7qFjN8J2UDvoBA/AhA8OPH1jWWIfiuSRUcBYEyEYDglwmfNy5WVfUfiqJsysvLG+qNiBAFCICAGQEIPu4L3paJd+ngPgCBFCAAwU+BJEcLEYIfjRDOg4A3CEDwvZHHMkWhqmohEX0mhBhXJkO4GARAwNEEIPiOTk9inMMMPzGc0QsIJJsABD/ZGXBA/xB8ByQBLoBAAghA8BMA2eldqKq6QtO0zYFAYIjTfYV/IAACpScAwS89O1df2atXrxonTpx4XlGU3UTURdO0nbw1U9O0BkKIbFcHB+dBAARMCUDwU/jGUFX1OyJqZEDwlRCieQpjQegg4FkCEHzPpjZ6YH6//zVN027TtTxORIOEELOjX40WIAACbiMAwXdbxmz0Nysr68pgMDifiC44ZXb9yZMnOy9cuHCfjd3AFAiAgEMIQPAdkohkuaGb5RcR0QDM7pOVCfQLAvEn4AnBV1X1fE3TLjy1AFmCmhBig6qqrc1Q4pzaWtO0FkT0EhH9qihKT/4vuMR8v/wuhPgm/h9X9AACZSPgasH3+/1/bt269V21atVqc+aZZ55VsWJFTY8jLS1N+8tf/rJv69atlbds2VIV5/5LwMhl8eLFdWrUqHHimmuu2Q9msd8v55133sHWrVuvfuutt1bm5ORszs3N3Vi2jyWuBoH4EHCt4Kuqeu0NN9zwt/bt27e++OKL40MnRawWFRXR4cOHqVq1aikScXzC/OKLL2jZsmUr1q5dOyI/P//j+PQCqyBQegKuFfz9+/dPSUtLu7969eqljx5XgoDNBLZu3UoLFizI3bRpU28hBK+L4AABxxBwpeAXFhae27Vr112OoQhHQEBH4I033ti+cOHCvkKI1QADAk4i4ErBf+aZZ/52xx133Fe7dm0nsYQvIBAi8Omnn9K0adMGv/766y8CCQg4iYArBX/EiBEL77vvvu516tRxEkv4AgIhAgcPHqQlS5Y0zc7O/jeQgICTCLhS8MeMGZM7dOhQ/9lnn+0klvAFBPQEaiuKshdIQMBJBCD4TsoGfPEEgU2bNtGMGTMGTJ8+nb/fgAMEHEMAgu+YVMARrxCA4Hslk96Lw5WCr2maj4iE99KBiLxAAILvhSx6MwZXCv5vv/2WXalSpTfS09O9mRVE5WoCEHxXp8/TzrtS8LFo6+l70vXBQfBdn0LPBgDB92xqEViyCPz222+0ePFibMtMVgLQb1gCEHzcHCAQHwLYlhkfrrBaBgKeF/x9+/ZR7969+aVWIUwDBgygKVOm0Lx58ygjI4Nq1qxZBnwlLx0/fjyNHj069MdXX32VPv74Y2rfvn2of7OD2/MxatQo23yIt6FE8rQai/SJObZt29bqZZbaHTlyhIYNG0azZs0KtW/VqhXl5uZS06ZNw16Pko4ltGiUBAKeFvycnBzq06dPSNyl6PLLrbKysqhu3brE5+0SfLbFB/fD/3/u3LkR7cvBYdy4ca4R/ETytPpZ0A9Aq1evtl3weXJw8803Fws8523NmjURcwvBt5o9tEs0AVcKvpVtmVLYhw8fftoMm0Vi5MiRNGHCBFsEX84C+/btG5PguGmGn0iesX4IYp3hcyxbtmyhbt26Re3KmCMW+8GDB0ec5UPwo2JFgyQRcKXgW9mWGW0mVlhYSM2aNYv4aG41J7EKjrTrJsFPJE+r3GW7WPjLwTlSqS1S//yUs2rVqlBZsHLlyqZNIfixZhDtE0XAlYIfbVumFIDGjRtH/GBKyMY6bZcuXYof2eW5+vXrU8eOHaldu3ahy2T5gGd88m/SHp/jwYTLO/q6sr78wKUcecgavrE+LvuQf+cnCD64TGWsJRuv1ZexjPHpz8kyDftz6aWXmg6CieJZq1atULlt48aNJcpwzJgHHObEs2s+ry+FmQm+GUu9feaoZyg58N/lOo9R0NnmkCFDaOzYsajhJ0qh0I+tBFJe8I0zPvnv7du30+zZs0NCIxfspMjw33bt2lU8mBgFx6yubOxnw4YN9Mgjj4QGCxYyY5mJyw5Dhw4NCduYMWOKF53lYjMvJPIgJK/VDy4sXpMmTQqVHRo1ahS6vl+/fiGR0vvKAsgxPvHEE7R+/fqwpYpYBL+0PHmxWwot+8KMOY6lS5eGBji9EPN55iYHLjP++pKdZDl16lTimJkVD55yXUe//sL9hHvy4oGH74twi/Dyk4ltmbZqFIzZSCDlBV/OHvULuLJePX36dGrTpk1ol4YUV2ZvfKyPNMOUM3zuhxdyZSlA/+TAbfQzTH1+WdRuvPHG00RKL0p87bZt20wXf82eQNg+DyR+vz80o+Y4I+1uiUXw7eBprJObLYLrB13+eUbjgCcHiWgsjU8Csr3+KY//xvni/PFAEa6UY/hcYlumjUIFU/YQ8KTg62fp0XbimImJvoTCWzftEHzjU4FxJhlJtPX+yNmlXvAjrQUYBxrjbaPfShpux1CieVoRfP2gayb44QZAI0urZRpux/+76KKLon7yUMOPiggNkkTAk4LPLOXMVl+v1jNmweAaPx9cHtBv6dPP2O2a4YebpXL/coYfbjEwmuBHWkg0m3Gb3Wv6Wr7Z9wISydOK4OsHOeMTViQeZoJvXGsx47Nz587Qnxs0aBD1owrBj4oIDZJEwJWCb2VbppxBc23YKPr6mq3Z7FUvGGzH6gxfXxc2CossE2VmZoYEXv5bLkAOGjQoVJbg0ooUXG7D/jVs2DBiScdsyySLJh9ywOL/L8tJ7BvXwbm+v3jx4lB8fER6ykgkTzPB5xKNHJT1NXn9uoTkL9mbseT2HC/v0mnRokWoPLNu3briNQ/5hSrexdW5c2er5ZsSH18IfpLUDN1GJeBKwbeyLVNGblbDNg4Axl0scvFQir1+0bZJkybFi4hc5+WF1VtuuaUYNP/thRdeoHvvvbfEQiuLud4X7qN69epUrVq1EgIvd6mwQW7D4s8LrvKbwuw7lyvkN3qlrzt27Cje4SKv1Qu8/tvGsj69d+/e0CAg4zPWrc3unnjzHDhwIHXv3j3UtdxFw4LM9XN+IpO+Gncw6flwrPoB1cjD7Etv+tIWt9c/8cVS0uJrIfhRdQcNkkTAlYIfbVtmklii2zgRsPLN5Th1XSqzEPxSYcNFCSAAwU8AZHRRNgJuE3xsyyxbvnF1/AhA8OPHFpZtIKDfrmql5GRDl3aZwLZMu0jCjm0EIPi2oYQhEPgvAZR0cCc4lQAE36mZgV+uJQDBd23qPO+4KwXf6rZMz2cPATqSAATfkWmBU0TkSsGPZVsmsgwCiSYAwU80cfRnlYArBR/bMq2mF+2SQQCCnwzq6NMKAVcK/sSJE1/Nzs6+8/zzz7cSI9qAQEIJ8LbMwsLCC/v27ftNQjtGZyAQhYArBf/hhx8e06dPn7GXXHIJEgwCjiNw9OjRnZUrV27oOMfgUMoTcKXg+3y+P/l8vlezsrLC/5J0yqcWAJJBgN/j89prr63asGHDTXPnzj2UDB/QJwiEI+BKwedgRo4cOaJ///4PnnfeeWcjvSDgBAIHDx6k/Pz8bUuWLBkhhMh1gk/wAQT0BFwr+ByEpmkXHj9+/OnNmzdnHD9+nOrUqVMcG79oa8+ePXTo0OmTrEjnuP5at27dmK8rbX+4zjxHFStWpPT0dFfkYffu3fSvf/3r+ObNmzd89NFHzwsh5kNmQMCJBFwt+Ay0Z8+etc4888wbzjrrrJaKohTHM3HiRLF06dJzP/jgg7ZG8PpzwWAw/cCBAxccPnz4wmPHjl1QqVKlr3v27PlYtOsi2cS5/xGwmgcjs19++aX577//3qZKlSqf16pV63P9+dLajNd1b7/9dp3XX3+da/YrhBD/ceIHHT6BABNwveCXJo2qqrZWFOVKTdNuJSL+3zJN095WFOVtIcSO0tjENfYT8Pv9XTRNG05ENTRNeykQCMyyvxdYBIHUIZAygq+qanMi4hfXs8C3JqJ/EtGCChUqvJ2Tk3MwdVLuvkj9fn93TdPuJ6J0TdMmBQKBQvdFAY9BIPkEPC34GRkZTdLS0gYqitKFiM7kGXwwGHw7EAgsST56eBArAZ/Pl60oCs/4gzzzDwQCK2O1gfYgkMoEPCn4qqpmEVEfImqrKMo8ItqQl5f3aion2kux+3y+SYqi+LlmTkTjUDf3UnYRSzwJeEbws7KyWhUVFfVRFKUvEW0konlCCBZ7LZ4AYTs5BFRVLUdEo/l/iqI80bx583Fjx44NJscb9AoC7iDgasG/6aabKlatWrWvoig8mz9f07R5mqbNzc/P3+IO/PCyrAROle1Y9KtzyQ5PcmUliuu9TMCVgp+VlfUHTdMGaprWn4g+UxRlal5e3iIvJwqxRSbg9/v/T9O0O4jodyLiLz5tADMQAIGSBFwl+KeEfrimaTyrn3by5MlZBQUF25BUEJAEVFW9j4ie1TTtkUAg8CzIgAAI/I+AKwSf67Wapo1TFOURRVGe0jRtshDiVyQSBMwIZGVlXRQMBl8kov1ENEAI8QtIgQAIuOCLV6qq9iCiZzRN+yAYDI4pKCjYicSBgBUCPp/vaUVR/kJEtwkhPrNyDdqAgJcJOHqG7/P5nlcU5SZN0x4IBAJvezkRiC0+BPx+f39N03jC4AsEAv+ITy+wCgLuIOBIwVdVlX/ZZI6maf9RFGWgEOKIO3DCSycS8Pv9mbyDi79pLYTgvfs4QCAlCThO8LOysq4OBoN5mqZNCwQCz6RkVhC07QRUVfUR0bS0tLQOubm5X9neAQyCgAsIOErwVVW9lojeIqLBQoi5LuAHF11EwO/3D9M0rZsQ4joXuQ1XQcA2Ao4R/KysrCuDweByRVHuzsvLy7MtQhgCAR0BVVULiOgTIcTTAAMCqUbAEYLfs2fPc06ePLlG07QJgUDg76mWBMSbOAJZWVkXB4PBNUePHm3w1ltvHU5cz+gJBJJPwBGCr6rqW4qifJaXlzc2+UjggdcJqKoaUBRlMV7D4PVMIz4jgaQLvqqq/LrbDkKIm5EeEEgEAVVVnzx1z532a2iJ6B99gECyCCRV8PnFV+XKlfs6GAy2wAvPknULpE6/WVlZLYuKiu5JS0s7i4hu4DeqcvSapp0lhLgrdUgg0lQlkFTB9/l8sxVF2SmEGJOqCUDciSPQt2/fqseOHdujaVplQ69L8ISZuDygp+QRSJrgq6ralIjWHj16tD4Wz5J3A6Raz36//xNN067Uxc0/Ot5bCPFRqrFAvKlHIGmC7/f7J2uadkII8VjqYUfEySKgqmovRVFe0jStKvugKMqCvLy8nsnyB/2CQCIJJE3wVVX9IRgMdkTtPpHpRl+qqp5JRMuJiGf5PxJRJmb3uC9ShUBSBF9V1Y5ENEEIcU2qgLYzTlVVWxvtVahQYVtOTs5BnCtJxoyLpmk38f2nKMpyIUQXMIvOTLYw4XlmMBj8IT8//2s773HYig+BpAi+3++feKqcg8VaC3nt0aNHzQYNGgy/884761122WUXFhYWNjRedv311+8/44wzigoLC2vh3P8ImHE5fvx42jvvvFOna9euP2dkZOwBs5J3TIz3UnDfvn37du/evebjjz8etWjRogMWbmk0SRKBpAi+qqrva5r2VCAQeDdJcbumW1VVa7ds2XJGu3btenTo0CFNUZKSMtfwgqPJIfDzzz/TOeecw68zvz85HqBXKwSSoh6qqu4jomZCiD1WnEzlNg899NCkzp07P9SpU6dUxoDYXULgrbfemvXKK68Mf/PNN39zicsp5WbCBb9Hjx510tPTNwshTis9pBR5C8FmZmY2u/766+cNHDjwcgvN0QQEkk5g5cqV+2fMmOHPy8t7L+nOwIHTCCRc8DMzMy9LS0t7VQhxGfIRmUBmZuaFjz/++IrWrVs3ACsQcAOBLVu20Pz58x8bP3483kbqwIQlXPBVVb2FiAYJIfi/OKIQ0DSNtw7WBSgQcAOBr7/+ml566aWXJ0+efLcb/E01H5Mh+P00TftTIBDol2qwY43X7/f/+Z577nmzQ4cOvHccBwg4nsD333/Pgj/lySeffMDxzqaggwkXfJ/P95iiKNXxDdvodxsEPzojtHAWARb8JUuWDBowYMAMZ3kGb5hAwgVfVdVniWiXEOI5pCAyAQg+7hCXErhGUZS1LvXd024nXPB9Pt8cRVFWCiHmeJqsDcFB8G2ACBMJJcAz/Hnz5o0ZMWLEuIR2jM4sEUi44KuqukjTtL8HAoFCSx6mcCMIfgon36Who4bv7MQlQ/D5W7ZPBAKBlc5Gk3zvfD5f+zFjxixq2bLl2cn3Bh6AQHQCEPzojJLZIhmCv46IBgghPktm4G7pG9sy3ZIp+MkEIPjOvg+SIfhfBYPBHngtcvQbAyWd6IzQwlkEIPjOyofRm2QI/vaioqJrCwoKvnM2muR7F6vg5+TkUJ8+fYodX716NdWqVYv424/dunWzLaCtW7dSVlYWbdy4kbp06UJDhw6lqVOnEvdfs2bN0/rh9rJN06b8Q2fOO9j3VatW0ZQpU6hyZeMvIDrP31g9SlQOsC0z1swktn0yBJ+/OXqZEOKnxIbqvt6sCv6+ffuod+/eoQD1ojt+/HgaPXo075ooPl9WCtzXyJEjacKECSFT3G/fvn3D2peDA7fNzc0lJwq+5Lds2TLiQbJt27ZlxZTq12NbpkPvgGQIPr8p80IhxC8OZeIYt6wKPgv7mjVrTGfYPABIYbYjMO5n7ty5Mc2EEzW7LG18Mqbt27eHxH7UqFGlNeWY65i53U92VoLDtkwrlJLXJhmC/2uFChUa8q8zJS9sd/RsRfDlDHr48OGms2yevRYUFFD//v1tCbo0pQ8nC/6RI0dozJgx1K9fP8rLyws7cNoCL0FGOKZhw4ZR+/btbXuys+o6avhWSSWnXTIEn9+TXU8I8XtyQnZPr1a2Zcq6vdVSBM9m27VrVwxBX+7hc4MHD6Y5c+bQzJkzadasWTRgwIDQbJ4PFhH+mzzkOR5QjPVv6VerVq3oiSeeoBdffDFU55clHf16g7TDtXP+Oz9BcFuu+3OZZdy4cSVm3fpreQ1BX8bSx2c8Z5Z5Hoxmz54d8nHHjh2htYnp06efVtbRl330dqRvkc4/9NBDIXbVq1engwcPhhjKfEXy17gmw/0yTy6N8doMl9OYDx8y1r179xavr+jb89/5STAcK25r9V6ItMYBwXe2viRD8P9FRO0h+NZujGjbMmMRfBYX/Ydeig1/0Bs3blw8EEhRYQ+NAmic4cv+9aKt76dKlSo0efLkkMBJwTeWmdgnPpo0aVK86CwFjMsSPAjJ+r++/8OHD4dET5ZhuN8VK1YUDw5Wnka4744dO4ZsyJkx+6JfvJV/r1+/fsi28akq0vmMjIzigVJylYNeJH/Xr19fIm5j2U4yY3/kYCPXUoz/lnnWD4B23AtmdzAE39rnOlmtkiH4mOFbzLaVko5VwQ/3mM/CsWvXrpDAGUVGCgeLilzINBNR/d/kkwCLj7xGPjmYzUwlCilGS5cuDc3w5UxUXw7iWe2QIUNo7Nixpy3+yvj0TyD6Ga7ZYrF+AVruLuJ+J02aVGKB2cjBKPDRzhvbs1/R/F23bl2JpyY9Q30s+h1TcoZuFHzuzzgIm5V8Yr0XIPgWP8gOagbBd1AyjK5YEXz9LF3u1DELyUwEuJ0sofB/jbPp0gi+WVnEqmgb/WER1l/L58Nt75QCqh9ooqXWrGQirzHubDJ7sgg3EMonD3k+kuCH89fI3jjQyvP8ZMY7pnjnlKzZRxN8jtFsd1Ws90I4wcfbMqPdeck7D8FPHvuoPVsRfCkmvMPEbB88f/i5fs5lkREjRoT61Jcr9EJixwxfip1+q6ZR8Fls9GKpB6EXHaPgy7q12bWxLlTqF2uNs3/9TFfWq401euOAEOl8JMGPtLAabq3CGKvx39EEn8tsPMMv670Q4QbGtsyon+7kNIDgJ4e7pV6tCD4bko/1devWLSH6xpKF8WnAOIs0lg3CzfD1JRezWTkLZn5+fnFZRH4fQNawuVxhLJsUFhZS586dQzuKwpV0WJiNtWwWO27PAwwPWLwgrV/AXr58ObVp0+a0L4SxmG7bts10C6ZZjV7u5DErDUUaPPTlG7kGIJMv82HmLz9t6dcj9DeM1TUFHkxatGgR+iIZL9rq10LsuBfCzfDxtkxLH++kNILgJwW7tU6tCr5eVPQ1bLNdKsZdOma7RViYeacKi6vcBfLqq6/Sxx9/XGKXDs9y+ZDf7pX9yRmk9IX/ywOAfpeOHAQkCfaDn1L0tngmzyLF3+jlQ/pqdq1+jUH/bWOzL53pr9cvNnMfRj7yPC8885fY9Id+EdboE7fj86+99hrNmDGjmFukHUd8jfRXX5vX9ymv18/+s7OzQ00WLFhQvKNJ+sPteVFa7szS+1zaeyHSF/mwaGvts52sVhD8ZJG30K+VbZkWzKBJGQnonyL0WxL57++++27oyUQ+ZZidL81rLViM+TB+63fDhg2hGbsTv7HM/kLwy3izxflyCH6cAZfVfLRtmWW1j+ujEwi3vZPLUM2aNSPjjhppUZ6PVZzNSmls0+4v0UWPPPYWEPzYmSXyCgh+ImnH2FcsJZ0YTaN5DATCbaGUpY1o52PoqripsdzCJ6x8kaw0fdl5DQTfTpr224Lg28/UNosQfNtQwlCCCOBtmQkCXcpuIPilBJeIyyD4iaCMPuJAANsy4wDVDpMQfDsoxskGBD9OYGE2bgTwtsy4obXFMATfFozxMQLBjw9XWI0fAdTw48fWDssQfDsoxskGtmXGCSzMxo0ABD9uaG0xDMG3BWP8jGiatpOI6sevB1gGAfsIfPHFF/wlu4lPPPHESPuswpJdBJIh+AfS09ObvvHGGz/bFYRX7WRnZ5972223Lbnpppsu9WqMiMtbBNauXUuvv/66f8aMGcJbkXkjmmQIPl6PbPHeGTt2bFr58uXf6Nq1q79ly5YWr0IzEEgegW+//XbRY489NhC/WZ28HETqGYLvzLwUe+Xz+W669tprJ/r9/tZ16tRxuLdwL5UJ/Prrr/8+88wz2yuKsjuVOTg5dgi+k7NzyjdVVXtceeWVg9u0aXP59ddffxa/ZMzs4Hejx+sc12YvueSSEt3Gs79Ex+fk/jin1113XdxyW5bYDxw4EPoxly+//PKzr776QkSYWgAAIABJREFUavKUKVMWuOAjlbIuQvBdkvrs7OyGJ06cqBEIBI69+uqrV3zzzTfN9a6npaWdfPLJJxe++uqrLew6d/DgwXODwWDlX3755eby5cv/2LBhw4DsMx79webp+QsGg+nffffdXZUqVfq6Zs2aaytUqHAo3nmPJQ8av+zpxx//ffjw4X8JIb5wyccpZd2E4Kds6s0DV1W1k6IoV2uaxu/cLSKiXP6fEOIboEoeAVVVexHRPUR0NhHN/P33319esmTJseR5hJ7dSACC78as2eyzqqpn8u+VExGLfEtN095gkQ8EAh/a3BXMlZGA3+/voGka/+p7Mxb+oqKimQUFBbx1FwcIRCUAwY+KyLsN+Ju8mqbxr3pcr5vJL/RuxN6JLCsr6+KioqJ7FEXhWf+atLS0obm5uV96J0JEEg8CEPx4UHW4TZ/Pl6EoykAiaqQoyqLjx48/tWjRogMOdxvumRDIyMhokJ6ePkDTtEGapr2lKMrfhBAbAAsEzAhA8FPovlBV9W4iGkREhzRNezEQCOSkUPieDlVV1cqapt2vKAr/b3lRUdHf8vPz13k6aAQXMwEIfszI3HUB1+cVRRnMM0AiWndK6N91VxTw1iqBu+++u/z+/fvvJyL+39a0tLQRubm5a61ej3beJgDB92h+ecZHRI8S0YNE9FlaWtqw3Nzc9R4NF2GdTkDx+/33a5r2sKZpyxRFeUoIsRWgUpsABN+D+ff7/f01TRunKMrbRUVFz+Tn53/twTARkjUCiqqqo4hoDBE9KYTg/+JIUQIQfA8lPisr6w/BYPBvRFRNUZSReXl5azwUHkIpAwH+4l4wGHxK0zR+Ed/DQoilZTCHS11KAILv0sQZ3fb5fNmKorxERBOFEE97JCyEYTMBn8+nKoryvKZpfw8EAniFsc18nW4Ogu/0DFnwz+/3j9I07U5N0/4vEAistHAJmqQwAVVV+du6LxNRRSK6UwixJ4VxpFToCRd8n8+3tnz58t3wPnx77jNVVbmEc1m5cuV6Lliw4Ad7rMJKKhBQVfVJIupKRL3xHpxUyDhRwgVfVVW8D9+me8vn8z2vKMpFRNRNCHHcJrMwk0IEVFUdQkTDgsFg1/z8/E0pFHpKhgrBd2nafT7fGEVROtSoUaPTSy+9dMKlYcBtBxDw+/1DNU2748SJEx3xjWsHJCSOLkDw4wg3XqZ9Pl9vRVHGpqent0NpLF6UU8uu3++fEgwG+fXbd6RW5KkVLQTfZflWVfUCItqgadpNgUBglcvch7sOJqCq6leKojyYl5e32MFuwrUyEIDglwFeMi5VVbWQiD7C1stk0Pd2nz6f705FUXg9qLu3I03d6CD4Lsr9qb329wshrnaR23DVJQR69epV48SJE3tatGhRYezYsUGXuA03YyAAwY8BVrKbqqq6kYhGCCHeSbYv6N9bBFRVXaAoyk5N027jd++kpaX9HAwGz6lYseLgnJycg96KNnWjgeC7JPenZvf9hRD8YyU4QMBWAqqqbiaiiw1GvxNCNLa1IxhLKgEIflLxW+9cVdXlRPSKEIJ/YxYHCNhKIDMz8560tLRpRFROZ3i2EOIuWzuCsaQSgOAnFb+1zk/tzFkjhDjH2hVoBQKxEVBVtTYR8QvV2py68uu0tLRsvFI7No5Obw3Bd3qGiMjv9w/TNK2ZEGKAC9yFiy4lwLN8RVFeVBSFdQGze5fmMZLbEHwXJFVV1Xc0TZsdCAQKXOBuSrnYo0ePOunp6eeaBc2/Lauqamu3nFMUpYamafNPvV6bf1PhK7fFEIF1OSFEUUrdnCbBQvBdcAeoqso/MH4h3mronGT5/f6/XHLJJXc1bdq08fnnn191165d/ObJ4qN69eonO3TocGDdunXV3HTuww8/rHHgwIHyN9988263xmCSh28LCgq+z8/PXzx//nzhnLso8Z5A8BPPPKYeVVVtSkTvCCH4G7Y4HECgZ8+ed95www2PdujQ4aLzzz/fAR7Z58LBgwepSpUqlJ6ebp9RB1g6dOgQLVmy5OfPPvtsxtNPP/2EA1xKigsQ/KRgt96pqqr8+lrejvkX61ehZbwIZGdnt+/QocPUvn37tq5cmX82GIebCOTl5e0qKCgYmpubm5Ll0WQI/sr09PQsvPTL2sfE5/PdS0RNA4EAv8YWR5IJzJ07t+sVV1xR2KxZsyR7gu5LQ2D79u30xhtv5I0YMSKrNNe7/ZpkCD7ehx/DXePz+SYoinJYCDEhhsvQNE4ENE3rT0T8U5I4XEpg2bJly2bPnu0TQvzu0hBK7TYEv9ToEnOh3+/nn6L7JC8vj/+LI8kEZs2alXfHHXeoFSpUSLIn6L4MBN5QFKVXGa537aUQfIenTlXVRYqizMnLy1vkcFdTwr2xY8f+87HHHvszBN+96V68ePGaefPmZaZiWRmC7/D7VlXVVZqmjcC7752RKAi+M/JQFi9mzpz55QcffHADBL8sFC1ei9+0tQjqVDNVVb8MBoNZ+L3R2LjFqzUEP15kE2cXgp841gTBjw22qqo7i4qKri4oKNgZ25VoHQ8CEPx4UE2sTQh+AnlD8GODrarqwWPHjtV/8803eXcTjiQTWLly5XPXXHPNMNTwk5yIMnQPwS8DvFgvheDHRkxV1aAQgl9Zq8V2JVrHg4CmacOI6Ll42IbNxBBYvXr1+y+++GJP1PATwBuCbx1y3759qx49enS3EKKq9avQMp4EsC0znnQTZhvbMhOFGoJvnXTPnj1rnTx5kt9YyO8qx+EAAqjhOyAJZXQB2zLLCDCWyyH41mllZGQ0KFeu3FohRAPrV6FlPAlEE/w1a9ZQu3btTnOhVatWlJubS02b8rvwynaMHz8+ZGDUqFFhDVlpUxYvjhw5QsOGDaNZs2aFzMybN48aN/7vryG2bds29F9mwX7k5ORQzZo1I3Yn7bVv35569+5dFteiXosaflRE9jWA4FtnmZGR0aRcuXLLhRB/sH4VWsaTQDTB576N4iX/vXbtWttEP54xWrHNQr5r1y6aMmUK8UvkWNT79OlDq1evLhZ8K3aS0QaCn0DqEHzrsE+9GvlNIUTZp4XWu0XLCARKI/hsbuvWrZSVlUWZmZkRZ+algb9v3z4qKCig/v35NT/xP7g/noXzE4aczcsZvX6GH39PStcDBL903Ep1FQTfOjZVVZsTkRBCtLB+FVrGk4CVbZlm5Qkpklz2kLNiu/yMd/nG6KeMj/9udyx2MYlkB4KfCMqn+oDgW4edlZXVMhgMLhBCtLR+FVrGk4CVbZlmgm82w5dlEOmvvhwi29etWzc0k967dy9169atRLnoxhtvDM20ly1bVhwy22jTpk2ovq6vhxtr7l26dCmurctz9evXp44dOxavQUQqz+jXKrh+b1Z35/hWrVpVPCjwwDR69OgS6ZFrG7Vq1Srx1CAHyL59+4bac7nIuA4iGW3cuLGEzXD+6DhjW2Y8PyR626qqbklPT782FffAxsr4lODPFUJcFuu1aB8fAla2ZYar4fMCpxRRoxjqa+As2GPGjKF+/fqRFEIWvoyMjOKFUilqerHmgUEv7MY2cgCQbfjd8LNnzw4trMrF13HjxoUGGGON3oymUXD1A4SMZ8CAASHB52Pu3LnEcXDNXw4YfA3/toAcuIz/5us4Dhk7D0rsn35A4Gv19vRlpjB3AbZlxufjcbpVzPCtkz4l+G8IIS6xfhVaxpNALDV8KaLGGbxZDVwv3A899FBI2KW46eMJN5jo2xrbmO2WkWI9ffr04icCvQ3jgBSJabjZfjgbsu/hw4cXPxkYmRgFnfvXl67YxtChQ2nq1KmhnU9m7cP5jG2Z8fyEGGxD8K3DhuBbZ5WolrEIfrgthnqx1c9G9bPq9evXF5dWzMovxtl6JMFn4eXZtX57pF4gjbNnZhlJ8HlAeffdd0MlJnnonxpkP2Y2ZL8ct35baayCH20AiHQ/oIafqE8LEV6eFgNrCH4MsBLU1A7BDyd6Zouv+lo+Cyj/wLi+Pm8s6TAGsxk+fzdAX3LRC6ys+Vud4bP9yZMn06BBg0rsrzc+SRgFP9Jib2kEP1JJCYJvTgDvw0+QUJSmGwh+aajF95pYBN+sJCO9M+5b15coGjVqVEJQ+dzYsWNp2rRpxYKvty0HCr/fHxJ7LnHoS0LRZt/sk7GEFG2Gz+15DUDO5s0GHuOTBf970qRJJb6LsHz58lBJiQ+uxXONn/8braTD50eOHEkTJkyI+qUu4x2BGX58PyMlrKOkYx02BN86q0S1jLYt0/hNW305xuijfpeOfgeKnEHn5+eT3IGi331jXGDVL5BOnDiRRowYcdoirHGXjn4xVf+NWV60bdKkSWhXDB9m/suSDj816HcJyQVfWRLS2+B6+y233HJamtj+Cy+8QPfee2/xbqOZM2fSwoULi//Ni7bbtm0r3uHDvhvjlIYj8ZZtIPiJ+rSgpBMTaQh+TLgS0tjKtsyEOJLinYT7shn/ndc/OnXqFJYQ3paZwJsHM3zrsCH41lklqqWVbZmJ8iWV+wn3ZbOXX345tIUzyrt7sC0zUTcPBN86aQi+dVaJammlhp8oX1K5H1nj13/pjHlYeZcPtmUm8M6B4FuHDcG3zipRLSH4iSIdv35Qw48f29MsQ/Ctw4bgW2eVqJYQ/ESRjl8/EPz4sYXgl4EtBL8M8OJ0KQQ/TmATaBaCn0DYmOFbhw3Bt84qUS2jbctMlB/op/QEIPilZxfzlRB868gg+NZZJaoltmUminT8+sG2zPixRUmnDGwh+GWAF6dLZ8+ePe+2227rnZ6eHqceYDYBBHIURfnvN8tS7EjGqxUOpKenN8XrkaPfaaqqXkNEs4UQ/EMoOBxA4Iknnpjp8/kGNG+OlDggHTG7UFRUxK+DCNx+++1+ItJiNuDyC5Ih+L8RUT0hxO8uZxd39zHDjzvimDvw+XzZWVlZz/l8vnoxX4wLkk6A393z7rvvPjh58uTnku5MEhyA4CcButUuIfhWSSW23aOPPvr3zp0739ahQ4e0xPaM3spCgF+5sHz58nc+/fTTYfn5+V+XxZZbr4XgOzhzEHxnJkdV1TObNGky/p577mnduHHj9ps3bw69xVJ/nHvuuVShQoXQGyWNB84llsvhw4dZ6Hd98803KzZu3PhMbm7ul868s+LvFQQ//oxL3QMEv9ToEnahpmm1x44dO/T48eMlZvuDBg16s0GDBsdGjBihGp1x8rm9e/e2Pnbs2Ln169df7GQ/9Uwt+PlTdnZ2tVQWeskLgp8waYi9Iwh+7MxwRdkI+P3+/sFg8MpAIHB32SzhaicSgOA7MSunfILgOzg5HnXN5/M9pyhKMyHEzR4NMaXDguA7OP0QfAcnx6Ou+f3+MZqmtRRCnFaK8mjIKRUWBN/B6YbgOzg5HnUNJR2PJvZUWBB8B+cXgu/g5HjUNQi+RxMLwXd+YiH4zs+R1zxUVfUFIrpQCHGj12JDPESY4Tv4LoDgOzg5HnUNM3yPJhYzfOcnFoLv/Bx5zUMIvtcyWjIezPAdnF8IvoOT41HXVFV9nYgaCSGu82iIKR0WBN/B6YfgOzg5HnUNM3yPJhYlHecnFoLv/Bx5zUMIvtcymuSSjs/nW1u+fPlueB9+9BvL7/d3DwaDjwYCgaujt0YLECg7Ab/fP13TNN6l07ns1mDBaQRQ0nFaRnT+YIbv4OR41DXM8D2aWJR0nJ9YCL7zc+Q1DyH4Xstokks6+BFz6zcUBN86K7S0h4Df7x8XDAZbBAKBTHsswoqTCKCk46RsGHyB4Ds4OR51DTN8jyYWJR3nJxaC7/wcec1DCL7XMoqSjmsyCsF3Tao846jf75+hadoFQohOngkKgRQTQEnHwTcDBN/ByfGYa6qqLlAUZaemaZcQUV1FUZYHg8FzKlasODgnJ+egx8JN2XAg+A5OPQTfwcnxmGuqqm4moosNYX0nhGjssVBTOhwIvoPTD8F3cHI85lpmZuY9aWlp04ionC602UKIuzwWakqHA8F3cPoh+A5OjsdcU1W1NhEtJaI2p0L7Oi0tLTs3N3e9x0JN6XAg+A5OPwTfwcnxoGs8y1cU5UVFUVgXMLv3YI4h+A5OagoIvpKVlfXHYDB4VJ+GcuXKHViwYMF2VVVbG9ODc/HjoihKDU3T5hNRNUVR+qelpX2EPDjqHjxDCPF7WSQLgl8WenG+1ouCr6pqhXr16t321FNPNalSpUq73NzcP1SqVCmoR3nVVVcdrFev3vHCwsJaRsQ4F18uH374YY0DBw6Uv/nmm3eDdXxZx3jP//7yyy+f3LJly2fffffdi/n5+VtKIz8Q/NJQS9A1XhN8FvsWLVpMueKKK27v0qVL1fT09ASRRDdWCRw8eJCqVKlCyI1VYolt9/HHH9P777+/ZP369Y8IIb6ItXcIfqzEEtjea4I/cODAu2+55ZZnb7nlljMSiBFdgYCnCGzcuJFyc3Nfe+qpp+6INbBkCP7K9PT0LLwPP3qq+H34mqbd74Wfm1NV9Yyrrrrq7SFDhlxbqVKl6MGjBQiAQFgCCxYs+LKwsLDLggULfogFUzIE/zciqlfWxYdYgnRrWy/N8LOzs8/t2bPnP7p27drMrfmA3yDgIAK/K4pSLVZ/IPixEktgey8JPmPTNO0TIroygQjRFQh4ksCuXbvowQcfbJ6bm/tVLAFC8GOhleC2XhJ8VVWbPvPMM6Jx48b8rhYcIAACZSDw2Wef0V//+tduQog3YzEDwY+FVoLbekzwL8nOzn4rIyPjvARjRHcg4DkCEHzPpZQIgu/BpCIkELCBAATfBohOMwHBd1pG4A8IOIMABN8ZebDVCwi+rThhDAQ8QwCC75lU/i8QCL4Hk4qQQMA+AmmKomixmMOibSy0EtzWS4LP6LAtM8E3ELrzLAFsy/Rgar0k+NiW6cEbFCEljQBKOklDH7+OPSb4Ubdl5uTkUJ8+fU4D2qVLF+JzNWvWjAvs8ePH0+jRo0O2582bR7179w7bz759+0LnR40aRW3btg21W7NmDbGNsvoobS9btixkd8CAATRlypSQTxkZGXGLPxJUs3jjkoQkGuX8tWvXrtgD5n3jjTdSQUEB9e/fnySDvn37Rrw3Yg2hLHYh+LHSdkH7VBN8TolRYOS/+VxZBdUs5WyTDxZx/v9z584N249ekFevXl0s+HbcSnKw0w84W7du5a25VLdu3bjEHs3veMYbre9EnD9y5AgNGzaM1q5dyy8jo6ZNm4a6lbkYN24cDRo0KHRv8CAcbTIQi896tqWxC8GPhbZL2kLw/zeD5hlYaT4Y+lQXFhZSs2bNij/Y8gPPMzc5W492a8RjxiuFffjw4afNILm/kSNH0oQJE1wxw2d/5cw4Gstkn2dhnzRpUgmxlz7xrH/FihWhJ7myzMStPD2V5skBgp/suycO/UPw/yv4UhAzMzNDH8DSHGxj6NChNHXq1GLBL414l+aaaP5yOYgFJtwTjHGgimbPzvOxxsux8FHaPNnpuxWx5YHezFeeDPDTHovx4cOHQwNxaYTZig+lsQvBT9SdksB+IPjhZ/jGer++xCJLM1z7f+CBB8jn81EgECjOHNfG/X4/XX/99SWyKW1Esm0mgNx+1apVoXp75cqVS5QFZAfhSkDSXuPGjUtcH+42k08ls2bNCjXRr2/Ic/Xr16eOHTsW16W571q1aoXKQ/wudf2Tklx/YNEbPHhw6DyXMqQImsVrXGtg+/zkJEsfxpj1POW6BHPivrnPOXPm0MyZM4lj0p9nO/r6uj5W6cNPP/1E06dPp82bN4fq7XzINRmOk8XabP1D2rXy1Kif4bN9Xmdq1apViScDMybyqdF4TvZpfHLQc7LiFxG5YlvmlvT09GvxPvzoI8ep9+E/LYTwxCuFrWzLDFfD5w+2rLMaBVZ+UFh4tm/fXrzwaxQ2Fhd9rdaKeOtt8wfYeI08rxeqSP4ZS0exCL4U9Pbt24fEVf6bY549e3ZI6ORAIEVbip/0b/369cULzEuXLi1mpT+vL5+Z5UNfYtI/OTVq1ChUE+cBRw4Y+jUSKcb8X/2AJMWT/86DEgs4c9KXVficnuvkyZNDNtq0aVOiT/01kdZkSiP4so7PA4g+TmPZTc+EB1r9Ir++jCTP8Qxf2rRaXsS2zOj66boWHpvhW3pbpnE2xEnTz6bMRFo/s2WhMfugy9lkJMG3YjvaICEf//W7eIz+6W/EWATfbDeQLHexSBrFzyiS+lm1fvA0LlTzIMGCwk8sxnjC7aSSO4mMQmic9eufSrZs2RKa4Utf9GxlLHIAk8zkvZCXl1fso3yqkk8ExoHd7INfGsHXl170patITLjvbdu2mZaNZLz85PLJJ5/Q2LFji8uN0cQKJZ1ohFx43mOCH3VbJqcoWs1YL3D62bJepHjR0ChiVgTfim0zQdfPPHfs2FFilipvO71/eoHSz9Kj7UIyG8j0ZQHjzLO0gq+Px0zwwwmYcWBj34YMGRJWyIw5MRP8cDNemSsuQeknBMaSV7jSSCzrQmaLtkbBD8ck0ppGuFKPFamC4Fuh5LI2EPz/1vDNZsTGxTbjB7A0gi8/gJFsW53hR7JhjCnabJMFmGv8fHC5Rb8eYCaSxpKKfn3BKLJmg4iepVkJy7heIeMxE3zjdxb0sVsRfFm+CvfR1dfy9U9v3F5fyzf7bgWfz8/PN92lw7Fw2Yi3ZfJhXLQ13m/hmJit78hY9AMJ59eY20hyBcF3mZhbcTeVBT/SzgVjXd24A8dMxPRtuJTQuXNn090X0WybzfaM/UWzYZb7cOKkr4GbPQ3oBYXtmtXQowk+L0LKQcTI0hiv2aDI17BvrVu3DoksH7wozn/btGnTaVsfedcR8+f1hHAlHVnDN4rg8uXLQ6Wr119/nW6++eZQCUT/JLF3797QOo4UePanSZMmpl+YCjdYsN9jxoyhfv36FduPJPiRmPDTHK9L6Lfc8kDHh1zolvd6pDUH4z0DwbeioC5rk2qCb6yFGnds6NOnb6t/pNf/3WxXBy+8sbjJ2bK0qW8bzrbZIzhfL78dbMVGpFvQ+I1PbmssSRhLFpKRFHv9oi0Lnd63gQMHUvfu3UMuSGbr1q0Llb94himvleIfruSgL6ewLeOCNfep/5v+m8zc3siffeE1CG4nv2Us4zbeE/LvvL7Ai87vvvtuKB75d2b4wgsvhGbtRt/CsTf6Z7ZmpPeLyzfym9kyTlnK4xKTsV8zXrzGwwOK3q7+Xop073M7CL7LxNyKu6km+FaYoI29BGKZVdrbM6zZQMAV2zJ/I6J6QojfbQjY0ya8JPicKCvbMj2dUAcGB8F3YFIsuIRtmRYgua2JlwQfb8t03t0XrvzlPE/hkZEASjoevCc8JviWtmV6MI0ICQRsJwDBtx1p8g1C8JOfA3gAAk4kAMF3YlbK6BMEv4wAcTkIeJQABN+DiYXgezCpCAkEbCAAwbcBotNMQPCdlhH4AwKOIoBtmY5KRxmd8ZLgMwpN09YS0R/LiAWXg0DKE9i2bVvw4Ycfbpafn/91LDCUWBrb0VZV1QPp6elN8Xrk6DRVVb2GiGYLIZpHb+3sFnfccUelwYMH515xxRVdne0pvAMB5xMQQvyQm5vbPz8/f3Es3iZD8PHFK4sZ8toMf+TIkbN69Ohx9+WXX26RAJqBAAgYCXz//fc0f/785UuXLu26cuXKo7EQguDHQivBbb0m+Kqqtr7mmmumderUqW3Lli0TTBPdgYD7CezZs4ff8Ln1/fffH56Xl/dWrBFB8GMllsD2XhN8Rqeqars2bdo83KxZsz/98Y9/rFmvXr3Q2w2NR+3atalq1ao4ZwADLql5T/CviR06dOjXl19++cuPPvrouUAgUFAaKYLgl4Zagq7xouAzuuuuu65SnTp1Oo0aNeq7li1bpo0YMUI1IlVVddlll112EOdKkok3l71797Y+duzYufXr1w/VhuPdH/L+PwKRWPft2ze/efPm67t27VrtzTff5LJ4qQ4IfqmwJeYirwp+Yuihl9IQ8Pv9/YPB4JWBQODu0lyPa5xNAILv4PxA8B2cHI+65vP5nlMUpZkQ4maPhpjSYUHwHZx+CL6Dk+NR1/x+/xhN01oKIU4rs3k05JQKC4Lv4HRD8B2cHI+6hpKORxN7KiwIvoPzC8F3cHI86hoE36OJheA7P7EQfOfnyGseqqr6AhFdKIS40WuxIR4izPAdfBdA8B2cHI+6hhm+RxOLGb7zEwvBd36OvOYhBN9rGS0ZD2b4Ds4vBN/ByfGoa6qqvk5EjYQQ13k0xJQOC4Lv4PRD8B2cHI+6hhm+RxOLko7zEwvBd36OvOYhBN9rGU1yScfn860tX758N7wPP/qN5ff7uweDwUcDgcDV0VujBQiUnYDf75+uaRrv0ulcdmuw4DQCKOk4LSM6fzDDd3ByPOoaZvgeTSxKOs5PLATf+TnymocQfK9lNMklHVVV8YtXFu8pCL5FUGhmGwG/3z8uGAy2CAQCmbYZhSHHEEBJxzGpON0RCL6Dk+NR1zDD92hiUdJxfmIh+M7Pkdc8hOB7LaMo6bgmoxB816TKM476/f4ZmqZdIITo5JmgEEgxAZR0HHwzQPAdnByPuaaq6gJFUXZqmnYJEdVVFGV5MBg8p2LFioNzcnIOeizclA0Hgu/g1EPwHZwcj7mmqupmIrrYENZ3QojGHgs1pcOB4Ds4/RB8ByfHY65lZmbek5aWNo2IyulCmy2EuMtjoaZ0OBB8B6cfgu/g5HjMNVVVaxPRUiJqcyq0r9PS0rJzc3PXeyzUlA4Hgu/g9EPwHZwcD7rGs3xFUV5UFIV1AbN7D+YYgu/gpELw45ccVVXPSEtLaxwMBtNNevlFCLFDVdXWqXROUZQamqbNI6IzFEW5R9O0rwzxpyQXZnD06NF/v/XWW4fjd0cmxjIEPzGcS9ULBL9U2CJe1KtXrxo1a9bMPu+883rVq1evftWqVcsbL7jhCmtbAAAgAElEQVTqqqsO1qtX73hhYWGtVDu3efPmM/bv31+hbdu2v6Ra7JHyfu211+4+66yzPpo0adLXn3766ZtCiP/Yf3fG3yIEP/6MS90DBL/U6Ewv7NKly9nt2rV7sk2bNrd17ty5anq62eTe3j7dZu3gwYNUpUoVAhvzzH366af0/vvvv7Nhw4aH3njjjS1uyy8E38EZg+Dbm5zHH3/81uuuu27B9ddfX9Vey7CWSgRWrlxJH3zwwfQxY8YMcVvcyRD8lenp6Vl4H370W4Xfh69p2v34ubnorKy00DTtiZMnT47G7NUKLbSJRODll1/+evny5T2FEJ+5iVQyBB9vy7R4h2CGbxGUhWZjx46tct999y0766yz2llojiYgEJHAmjVrjj///PN/FEJscBMqCL6DswXBty85qqpelZGRsTA7O/tc+6zCUooTSFcUpchNDCD4Ds4WBN++5GRmZl7ap0+ft7p3797IPquwlKoEdu7cSaNGjbp0zpw5X7iJAQTfwdmC4NuXHAi+fSxhiWj9+vU0efLkHm+88cYiN/GA4Ds4WxB8+5IDwbePJSxB8C3fA/iJQ8uoCIJvnVW0lhD8aIRwPhYCmOFbpAXBtwiKCIJvHZWllpqmrSOiyy01RiMQiEAAgm/x9oDgWwQFwbcOykLLrKysP0yePHlRgwYNWlpojiYgEJEABN/iDQLBtwgKgm8dlIWWKOlYgIQmsRLAtsxoxCD40Qj97zxq+NZZRWsJwY9GCOdjIYBtmRZpQfAtgsIM3zooCy2tCP6RI0do2LBhNGvWrNMsjhs3jvddW+gp9ibGflevXk1t27YNa2jNmjU0fvx4ysnJoZo1a4ba8b/5KKuPbLtdu/99GXnevHl04403UkFBAfXv3z/24Gy4wixeG8yGTBjjtZpnlHQsZgCCbxEUBN86KAstrQi+NGMUGCkKVsXAgjslmrBYd+zYMSTy/P937dpFU6ZMocqVK59mSvrSpUuXEoIfa5/G9nLQWbt2LeXm5lLTpk1DTXhQ6dOnD8Ur9mh+xyte7nfr1q20ePHi0CAv/52VlUXDhw+n3r17R3QNgh8tc6fOQ/AtgoLgWwdloWVZBF/OoPPz80uIoYVuT2vy8ssvU0ZGRvHMfN++fTRkyBAaO3ZsschGsxuPGS8L+6RJk0zj4/5WrFhR5qeHaHGFOx9rvIWFhdSsWbOoPFnwhw4dSlOnTg21lYNe/fr1o8YKwbeYTQi+RVAQfOugLLa0ui3TTGDkTDdauSWSK2Z2jaJjJZRYBTCaTR50eEbLTxhmJSEWwrlz51Lfvn1Nnzqi2S/r+VjiLQ1P6Z/kwAwildS4PQTfYlYh+BZBQfCtg7LQMpZtmeFq5PoZvrHuri+xyHPVq1cn/kERXhO466676JVXXin2lEskTZo0CZVL5NGqVavQDLtRo0Yl1hKM5Rujf7K/9u3bF5ciIvlnxCXLJlyvj1bK4GvN6vzyOj43ePBgmjNnDs2cOTMU+4ABA0IlqsmTJ9Po0aPJGI9cf9Dz0A+sZvnQ+yDtLV26tARP2S/7rF+bCRcnD+rbtm2LOruH4Fv4wMkmqqpuSU9Pvxbvw///9r4Ezoki+/9Vzww3yCkCHogXf3BFAXVFVDwQFVGZpHpmGHBZXUFhdRX1h8sKIpciCoKLCgpyODBJZUYQDw4FFBBUQNhVLl1kRVgYruF2YJL6f142Pds0yaQz6SSd5NXnMx80XfXqvW9Vf6vq1euq8KAFzsN/WQjROnxuylEZAtG4dDRyMRKIRrAaue7YsQOmTZvm98Mj0WkErveH40xZv9kayq0QTLZWTk+AeDuVRmYakRkHAL1++ro1vCIh/FD7G1h3y5YtKzZ8NduxDvSLb9y4EZDE27dv79cX7UPXVjAiRvz0g2uwOvUuJrRpxYoV/kEFZ9444Gj7EGj7Cy+8AA8//LDfbRNqFo/5cEAaMGBAhbvNxBtFYZnhQKIZfjiE/vecwjLNYxUuZ6SEr49UQdka2eNGaijXDBLb5MmTK0jN6AtGYgpH+OFko6sh3AzfjAw9XmYJP9hKAuXoN5qNhGskWKOfPJjfXCuDLiRcOYQa4PQ2aAPM/v37zyB842pEK2PchMZ8mMK5crTyFJYZ7o0LPCfCNwkUuXTMA2UiZ6SEbwx71FcRjLj1JKXNXKtC+OFkGwkQwzKNRGxGht4eXGXgYOVwOCp1ZxiJWJOhr2/Lli1nEG5VCN9oTzDCx8EgGDlrLiVtho//j4NsqKgnzYYNGzb4VwDBIqOCdS/y4Zt46TALEb5JoIjwzQNlIqeVhK/NGvV+Zj2xaW6LqhB+ONlmZ/i4QgmlXzCiNLpR9JBq7o6HHnqoIt5fT6CVuVSqQvjGMsEIX79fYVyt6F06Zjd8MZ/Z2T3WR4Rv4qUjwjcJUiAbuXQiw6uy3JESvp40jHKD+cT1pIf50TdtJHyNfHDzdt26dXD//ff7Y8E1VxASTjjZmkvJ6KfW12dGhtEmjWT37NlzRmim0QdudP8EI2e9bmYJH/c/tP0FPZbB7A02KC5ZssTvSkOXjhZqiasNHBiGDBniN1cbpFAnJOyuXbtWuYMR4ZuEjmb4JoGiGb55oEzmDBeWGexL21ARHca8oSJC9L5ijdxRXXQ5rF271lRUiXH/QNtfQL/1zJkz4a233qr4OlirL5R+4VwWONPHSBotGTee8XejX1xbSeh/x3K4n4HyFi1a5BeHG9lIlNqXzKjrM888U/HhE5I+5tVH8Rhlaq4aLUxW01NrJ22AQTmaXvrfMH+wqCfE1GyUEs3wTb5wNMOPACgi/MjACpM7krBMSysmYZUiEMnHTnaCkmb4JluDZvgmgSLCNw+UiZyRuHRMiKMsFiGQrIQfMJ/CMsP1A855KQC0FULsCpc33Z+rqnqzlPINIUS7dMciWvuJ8KNF0PryRrdTos7rqYplFJZpEjXO+X+8Xm/74uLi/5gskrbZAoQ/UghxS9qCYJHhRPgWAUli/AiQS8dkR+Cc/wwAtwkh8F9KlSDAOe8OAI8JIe4loKJDgAg/Ovyo9JkIEOGb7BGc802KojhcLtdmk0XSNpvT6cxVFOV+t9udl7YgWGQ4Eb5FQJIYmuFH0gc45+sVRfmTy+VaH0m5dMyrquojPp/vWo/H0y8d7bfa5nBhmVbXR/JSFwGa4ZtsW875Kinlsx6P5yuTRdI2G+d8EAC0EEI8nbYgWGR4z549G02aNGk5XWJuEaBpLoYI32QH4Jx/LqUc4/F4PjdZJG2zOZ3OFxRFYW63e3jagmCR4ZzzDg6H44OcnJwLLBJJYggBhTEmkwkGFm9lOeevAcBSIcTH8a472epzOp2jAeCgx+NBzChFgQDnvMUdd9zxYb9+/dpHIYaKEgJ+BNatW/fz2LFjrxdC7EsmSBJB+IIxVuh2u4uSCahE6Kqq6jsA8I3b7cZ/KUWJwLBhw95+4IEH+l9zzTVRSqLi6YwAxuAXFBQs2bhxY6+5c+fuTyYs4k74qqpOl1J+KYSYkUxAJUJXzvkHUsrZHo+nOBH1p1qd2dnZ7Tt37vyGqqqd8GAzSoRApAjs27cPPvroo80LFy58wu12fxZp+UTnjzvhO53O8Yqi7HS73RMSbbzd6+ecr5FSDqINbutayul03jRy5MibWrdu/fCuXbtaHT9+HKpVq1ZRQcOGDQGvJsSDvIypqs+8Xi9ccskllsqsqi5WlSsvL4fMzEw/RFbJ1ONtN5k1atTAw9hObNiw4bvVq1eP9ng8n1rXK+MnKe6Ezzn/m5Sylsfj+Vv8zEzOmjjnu71e73XFxcW/JqcF9tZ62LBhj5w4caJNVlbWCU3T7OzsJR07diwdMmQIN2of6bPDhw9fePTo0WvKyspa3XTTTY/v3r27VbQyY6FnpDJLS0tblZaW3tayZUv/Jb2R4hJpfTbBrERV1ToAsCuZj4WJO+E7nc4/AcANHo/nYXvTQWK145xj59ojhMB/KSURAjk5OX/y+Xx4O3lTKeUUxtgUIcTJJDIhrKqc82Vom8fjKQybmTLYBoFEEP7djLEnhRDdbIOCDRVxOBzXK4rydyHEtTZUj1QyIHDffffVrVGjRn8p5aMA8KuUcrLH4xGpCpSqqmOllF2FEBT1lESNHHfCdzgcbRVFKRZCXJFEOMVdVVVVH5VSdhRC4IqIkk0RcDgcHRVFGQkAt0gp3YHZ/GqbqmupWpzztQCwUAjxvKWCSVjMEIg74fft27fG8ePHjwshMmJmVQoI5py/J6Vc4/F4pqSAOSllQqAPPwgA+NdMSjmLMbZYCJEWRK81pqqqA6WUdwkheqRUA6ewMXEnfMSSc77V5/PdX1RUtCWFsY3KNM75v/DgNJfL9X1UgqiwZQg4nc5OiqI8KKXsAwCfAMBsIcSHllWQhII457sURbnH5XJtTEL1007lRBE++jY9QghX2iFuwuDA5eXzhRCXmMhOWWKMAOccAwzwALt6jLHZ5eXlsyhy6r+gq6o63Ofz1fB4PM/FuBlIvAUIJITwnU7nXxVFaeR2u5+xwIaUE6Gq6hAAOM/tdj+RcsYliUGqqt4qpfwjAGC0jRsAZgghFiaJ+nFTMzs7+6KMjIwtv/32W6MFCxZUhLfGTQGqKCIEEkL4nPPbAGCUEKJTRNqmSWbO+QYp5ZMej2d5mphsCzPxgDUAQHdNLgBsZYzNk1IuEEL8ZAsFbaoE5xxX7Lh5O82mKpJaAQQSQvj9+vXLOnTo0LEaNWo0nD179nFqjf8h4HQ6uzDGJgkhriJcYo8ARtlkZGTkSinxQys8COtDn8/3SVFREUagUDKBgNPp5Iyxh4QQd5vITlkSiEBCCB/t5Zx/FFgmexJov+2q5pwXMsa+crvdk2ynXIooxDnHEEokqZ4AsJsx9jFjbKHL5VqTIibG1QzOOZ5Ncez06dPnzps3rzSulVNlESGQMMJ3Op0DAl/c4hKaEgDk5OS0x9nlvn37zl++fHk5gWIdAqqqOgCgp5QSQwg3Sik/DYRSrrOulvSVxDlfgOGpqfyxWSq0bsIIPzc3t7nX693eoEGDulOnTj2dCmBGawPnHI+MXiWEGB+trHQvn5ube0F5efkDjDEk+FvQx4wEzxhb4nK5tqU7Plbbj7ezSSlbeTyeP1stm+RZh0DCCD/g1sHNniVCiKnWmZScklRVVaWUfxVC0GHtVWtCxjnH4zr6AgDuf9SSUi5WFOWzjIyMpcl2bnnVIEhcqcBRIJOFEB0TpwXVHA6BhBK+qqr3SClHCiEwOiJtE+e8CQBswI0vt9u9KG2BiNDw3NzcluXl5d0YY0j0+LcOffGB+xZWRiiOskeBQJcuXTKbNGlyqkGDBtVpxR4FkDEumlDCD8zyv5RSvpnOp+5xzj9kjG10u91DY9zeSS2ec57BGLvV5/PlMcZwJYS3mCySUi7KyspaRLP4xDYv5/wHDGkVQvwzsZpQ7aEQSDjhO53Oexlj44QQ/y8dm8npdL6Fd0h4PJ6cdLQ/nM0BV8GtAIB/XQDgWwA4zhgb4Xa7V4UrT8/jh0Bg4/Zdj8czP361Uk2RIJBwwkdlVVWdiWe/u93uwZEon+x5OedvAsDFFL/8v5bknN/HGLtASqmR/E7G2DKfz7e8evXqywoKCo4ke7unqv6qqr6Nrkm3243/UrIhArYg/JycnEt8Pt9Yxpgbkw1xslSlu+++u3qdOnXmSCkv9Xg87SwVnmTCAtE0t6KrJjCLRws+k1Iuy8zMXFZYWLg7yUxKW3Xxi1vGWLnb7c5LWxBsbrgtCB8xcjqdtzPGinw+H174kaEoCh4elhJn5nPOewohPkA7s7OzW2VkZMwBgDVCiCdt3j8sVw8J3ufzdfD5fEjyeMRGU8YYHiGxFEleCLHV8kpJYEwRCHwsiJe+XM8Yw4tuV/l8vqbVq1cfSCuymEIfsXDbEH7AtYOHqWF4ogIAHRhjwu12qxFbZaMCqqpulVKePnXq1N3VqlW7CADmAgAenTDORmrGTBXO+TmMsZullDcBwM0AgFf9/YbknpGRsczlcqFPnlISI8A53wQAxj24fwshWiaxWSmpuq0IP3B41VI8hjaA9g+ZmZm3z507d28you90Oscwxv4a0B0vxzgFAFOFEDjDT8mEBI/kjiQfIPirAQAjsb5UFOVLt9uN4ZK+lDQ+TY1yOByP4nWcuDLXQTCNbmuzX4ewDeGrqtpDSjkaAH6nwcQYOwQAeckYm845RztwP6J1wJ4yABiSal/R5ufn1ysrK7s5QPD4RSvuSfgJnjG2QgjxJQBI+3V90sgqBALfkeDR0dr9tj8qipLrcrnWW1UHybEGAdsQPprDOf8ZAIzLwLeEEHjuTlIlVVWnB85T1+v9g6Io2cn8aX8QF41xBr+CCD6puqolyuIsnzH2JmMMOYVm95agar2QqAm/S5cuLZs0aVLfqJoQYkOAxJEQzkiVPZNS4hn5uYyxS/G+UADAWX539P1WVWa8y+HlJQCAx0bUCRiOLgw8RbBcCNHUBC5NhBB4VG/CU8+ePRtlZGR0VhTlJiklfhGN7fOFzkWDM/ikTnl5eU19Pt95Pp/vrPch0Hfw2IazoqnoGVTgwhhrIKVEV2VdRVFudrlc3xFmQXkvbF9ijDUvLy//RyxuVasS4XPOL37++efPv+qqq9TVq1d3LSkpqW184++///79+Nv8+fMbV+XZ9OnTm2/fvr3WL7/8UrNz584HmjZteipamVXVJdJyP/30U61NmzbVq1+//ql69eqV169f/3TNmjV9TZs2LQtnw7Fjx+T06dPZgQMHlm3evPldIQRuiMUtBQ61ww3WzoE/HHhXonsGj8B1u91vpMoMPicn5/JWrVr1adasWbdmzZqdm5WVpfdB+zEP117R9PFI+5Xddfnqq68alJaWZk2ZMsXfZ1PNPu0ljHU7lJeXw8GDB/fv27fv67Vr1771wQcfWHZfcMSEn5eX1/aaa655qXv37j3atGkTcyI6ffo0ZGVlxbweKysoKyuD6tWrRyXyH//4ByxatGj5t99++4wQImZH+OI3EFJKP7kH/j034INfKaVcWVRU9HVUhti0MO6xdOjQ4aXrrruu+6234icAlKJF4MiRI1CrVi3IzMTITErRIoAc8P333382b968u4QQ3mjlYfmICf/FF1+cdO+99z7evr22P2OFGiQjGAJff/01LFu27P1Fixb90arz8fFLVikluso6M8aQ6DMZYxg5g7P4lS6Xy7LZhJ1bdfLkyX/r3LnzqKuuoovF7NxO6a6b1+uFjIyMQYyxCVZgERHh9+zZs12PHj0K//jHP2qRJ1boQDIqQWDFihVbJ0+e3N3lcv2rKkDl5ORc6/V6bwyQ+414VysA4Oa4n+TT9UMnKeWHAIBn5VMiBGyNwPbt20uGDBlytxVRTxERvtPpzB04cOD0Ll261LQ1QqmnXD3G2FEMf5NSjlcUpbuUEpd53+hNDZwmiaSuuWdaBWL//eTu9XpXFRcX/zv14InMoj59+lz4+uuv/9CwYUNtUz0yAZSbEIgjAtu2bYO5c+c+O3z48FejrTYiwsdNrvHjx29t3rx5tPVSeZMIbN68GaZMmdJv9+7dq6SUkxljeGIkpv4AgFER2uaqn+gBYC1jDE+RRILfUlRUtMVkVWmTzeFw5A0aNGhOp04YcESJELA3Aj/++CO88847U8aNG/dotJpGRPhYmZSSPqKJFvUIyiPhv/baaxOOHDnSFQCu1BU9GAj7xIFgpaIoq6pXr75y9uzZxyMQn5ZZcR9j8ODB8zt0SOt7d9Ky7ZPR6J07d+Kkb/zo0aOfjlb/iAgfz65/7rnnFtCLEi3s5su/9dZbsHz58pNSSqMbbTsOAEIIPJuGUgQIEOFHABZlTTgCRPgJb4L4KTB+/Hj45ptv9vt8vqN4TyueLhmofYeiKA+kS1SNlYgT4VuJJsmKNQJI+KtWrXowLy9vdrR10Qw/WgRjXD7gwx9YUlJSdPr06csVRekYOHkS/x3h8XjejbEKKSeeCD/lmjQdDPo9Yyzqb2KI8G3eVZDwZ82apb788st4VAMlCxCQUmK/pxM7LcCSRMQeAZzhv/POO6+MHDky6hsBifBj315W1NCMMbbHCkEkAyA3N7fL0KFDl8XjS3HCmxCIFoGE+fDxvPqXX355batWGN5NKR4IaGGZEydOfCce9aVDHeTSSYdWTh0bE0b4CCGFZca3I2k+/IkTJ+KF55QsQIAI3wIQSUTcEEgY4ZsJy1y1ahV07ozf/wRP77//PuTn51cJrAMHDvjLLlq0yF/eKMtY98qVK+HGG/F7JPPp5MmT8NRTT0GLFi1g6NChQQtu3boVnnjiCZg0aRJccUVsr90lwjffdmZzmiX8cH0Z66usj40cOdKvUqh+ZFZfK/KFsqVdu3bgcrli1o/19fbv3x8mTJgANWsG/1Bfe/duuummCo6w6l3TZE+ZMqUCzmi4yIo2MSvD1oSPRgRrOPy9oKAAevfuDd26dfP/d6NGjczafEY+jfj37NlzVmfFul999VUYMGBAxPL1nWLEiBG2eFGJ8KvURSotZJbwsY9iwklGsD6NhH7bbbdFPKmw3iJzEo02aP+/Zs2amJA+kvW0adPgxRdfhF9++QVycnJg8uTJQfHSv3tWE7E26OjlahzSsmXLSgchc8jGNpftwzJDET7CooEfDaFiY82aNQuwQ+3YseOMwQPrnj17NvTp0yfkTMLYPChny5YtePZ5xYtd2Qw/ts17pnQifOvRNkv4S5YsATwVFicmoWaf+PvVV591x4/1SlsgMZQNSMQOhyOqCY7+HdJUxQFz+/btpuVWxhtVNV8jdlzpG1dalT2ran0xLGffsMxwDYczo6KioirPKrChiouL4eabb/bPGvSdNVLCDzXrsRPhU1imta9RVcIyw/VpazWMjbRgNlgx0w2FTaQurVhgjIPOuHHjQnJNtFwUm5Y6U6rtwzLDNZzm2tH8n0b/WjiXj0b4jzzySMWKQVuuBSN8o+9f8yVqy8yNG/97BDz6M2fOnAl4nAESPi7Xtf0Iva8WVynYUTS3FP7/wIEDYcaMGfD222/juRdg9FdqNuubMgL/KYVlWvhmVSUss7I+jW2Lq0rst4MGDQJcvT7zzDP+vSC9P9rYDzWTtNVuuOfG90Tvogimg3FGa3aGb/T36+vR+jq6TLGP44Rr06ZN8M9//rPiHcL+/8ILL1TsteEDzcbKZAfTz/iu6b0EGn6hXECaPKMXQN+VtPfy888/B7fb7X93NV21Z/p3OVgbZGdn+9u6KmXN7GcmzIdvNiwzHOHrfWoaWNqLYaaR9ISPjacfpS+88MIzXDraS4SdH5d1xhnNiRMn/D5adAHpfbX6xkP5u3bt8vv61q9f7x8EtEEJXUHaoKAROOqk91dqL4m2OYby8Dcz+xgUlmkh0wdEmXXp6GsOty+FefWTDo0AjL9pK0d0gWAfefbZZ8/od5U9RxJ9+OGH/Rus+n6NhIZ7Y3odgqEWajWLfV2b0ASbzGD/RjvQ3631db1LVtNFe4e0uo0z/MpkB9sn0XhCPwEMJyNYm1VG+MG4SL+6x3d0xYoV/ncfU6g2QNefMdjDbNlwgSUJI3w02ExYZjjC18/wNcLWk5/2MoTa4DESvn6QePfdd+GTTz6p8OHrQdeiA/QE3Lhx46CEH6rRUUaoGb5G6MZBxqiDcQCojNLIh29vwkfttNm1vg8b3wFjn9Cea/0s3PNQUTb62SiuMiqbRBhnpxqyxpW2flWivZ/6CQ+uZvWRPWYIvzK3jyYb6zKuivTvGl6faHxu1E8fAWRm8qjhihiEI21tsmfskfoVXSjeqKxsuCiuhBG+mbBMBCMc4etn5GvXrvXPyPUdNVQH0oA2Ej7+rg0Sd955J1x66aUVhK+fnWudQT+gtG7dOuaEH24AIMK3ntQrk2jlDN8s4Wv5tNmitrLUVp7hniMx4XsSKqwx2KBjxCDcexnqvdPLxhVtVQjfjOxghK4nfLRHvxrX7KvM9nA+eqN3oLJZOpJ2qDYwDuDG9qysbLjen9SEb4zS0Y+w2tLGSJBGQIIRPubRZOl9bsE2bfSxvfGY4WuNry27w+1R6O2lGX641yHy54ki/HDfkVT2PJgvW2+5FYSvkRbK1Q8s+hUqEldVCN+MbLMz/Mr0M8b4a5O7YFFIxigdM6St37vT4x9N2XA9OGnDMivbBNH72YK5YfSghCL8YMu7YFEIet+iftbTtm1bYIxVbNpqS61wLhmji8Y4YOHzpUuXmg5PI8IP9wpE9zwawg8WvVWZS0fLj/1M7/8NNvsO9xxnn3qyw36GBNy1a9egbqVQM/zKItCMMevB+rKR8I3vEJIu7jMYV9fhZAcjTeO7FU5GsJ6h8U6wOHxtMqZ9E6TXWVuF4YeeOIkcM2YMDBkyJGQbRFPWRI+2Z1hmKF+jZlCwLxONvsXKvsjTR7sEi3IxE6Vj/AYAG2rYsGF+Qi4pKfHvtmPCfHhukH5mjl/Ydu/e3f8c6x88eDD06tWr4v9x3wHl6b8G7tixo3+DTosG0rAw8y0CnZZp4lWIMEukYZnGPq1foen7o/a75prQ9yPsW1o/06ur78PhnhtXAFp9CxcuPKOPBvPjV2aDET5jXv2GrjFAQfvSXNMd+zRG8Oi/iEf5wWTofzdyAMrRR8npcQqlX2XdQJvp69/BYO+fPh/ii3/4m7biCdUGOGBEU7Yy3W0flhnh+5fy2bGDYjLuxm/YsMH/cZiJ4xkoLNPCXlKVsMxoqw82EUGZ+PvixYsB956CfTCoPcePAilFj4A2QEfiVo2+1ugkJMyHbzYsMzrzUqt0qP2IytxSegQoLNP6/lAVl060WoRyU86fPx8wcACDF7QNXb0fWntuYlIQrYppU14/E6/KeVvxBiphhI+GmgnLjDcgdq8vmJvL7AyDNm2tb91EEH6okMhgsft6i60+V8Z6NJNXYrIQf8II31sKztYAABS7SURBVGxYZvJ2AftpToRvfZskgvCtt4IkpgsCRPjp0tIAQIRvfWMT4VuPKUmMHQK2D8uMnenpJ5kI3/o2J8K3HlOSGHME7BmWGXOz06wCCsu0vsEjDcu0XgOSSAiYR4DCMs1jlSo5KSzTwpbMyclp98orr2zAg/YoEQJ2RyBhPvxu3bpdOn369C3NmzfPsDtIqaLftm3bMD67x6hRoz5KFZsSbYfD4XA8/vjj7ltuuUVJtC5UPyEQDgH8WKy4uHj0iBEjng+XN9xzFi6D8bmU8jsASI4rfiI1zob5P/zwwyN4AUpRUdF/L/KlFDUCnPMbOOceznnzqIWRAEIgxgisXr0a79rInzp16pxoq4qI8Lt06ZKZm5s7p0ePHrx5c3pXogU/XPnDhw/D9OnTV61cufLB4uLi7eHy03NzCDzwwAP1O3XqNDc/P/8u6sfmMKNciUFASgnvvffe+k8++eTBoqKiH6LVIiLCx8qys7Pv6NGjx+vdu3dv26RJk2jrp/IhEDh+/DjMnz//X8XFxU8VFRUtIKCsRSAnJ+febt26jc3JyWmDZ99QIgRsisCmCRMm/HHQoEHfWKFfxISPlXLO77rhhhuGXHbZZR3btGlTEw8Yw9MugyW8JYeenY1MKFxq164NTZo0OTl37tyV8+bNe9Ptds+zoqFJxtkIcM6vcLvdfU6cOPHnXbt2nZOVlXVGJmyj3bt3w6lTp84qTM8IF2OnsKpP4MoeT+o8evToZ3feeWceY2y/Ve9vlQgfK8/NzW0ppbyyQ4cO5z777LPrx44de8vhw4fP1StWv379vf/3f//3pR2e7dix4w8jR45UPR7PtXbWs23btt/l5+cXqaraQAhx0KqGJjmhEcjLy2t6xRVX5JWVlZ2xZB0zZowoKipquW7dumuNpenZ2bjs37//akVRfuvatetswuzMHhNJf2GMndq1a9f3hw8fXjdv3rzgM+kqvtBVJvwq1pewYpzzowDQTAhxLGFKUMWEQAojoKrqIz6f71qPx9Mvhc1MatPSifDXAcBdQoh9Sd1ipDwhYFMEVFUdKaW8Xghxp01VTHu10onwf1QUpZfL5fo27VudACAEYoCA0+kcDQBej8czLAbiSaQFCKQN4auqusTn8630eDwvWoAbiSAECAEDApzzjYyx591uN0WV2bR3pA3hc847A8ByAGgthPjJpu1BahECSYkA57wFACwTQlyelAakidJpQ/jYnqqqPiqlHJqRkXFtYWHh7jRpYzKTEIg5Ak6ncyJj7KgQIurP/2OubBpXkFaEj+3MOf8LAIxijDndbjcdV5DGnZ9MtwYBh8NxmaIo/1AUpZ3L5dpmjVSSEgsE0o7wEUSn05nNGBvDGPvc7XYPjAWwJJMQSAcEOOfVAGAtY+xdt9s9KR1sTmYb05LwscGys7PPVxTlWcbYHwDgr0KIt5K5IUl3QiDeCOTm5jb3er2fSinnU2ROvNGvWn1pS/gaXE6nswtjDN08bQDgRSFE1CfSVa0pqBQhkDwIqKp6j5SyQEo5yuPxvJY8mqe3pmlP+Frzq6r6gJQSvxDEKIPXhRB/T++uQdYTAsERcDqd4xhj2VLKQR6PZz7hlDwIEOEb2srpdN6pKMqDUkonALyjKMqbLpdrc/I0KWlKCMQGAXw3GGOvM8bWlJeXDysuLv41NjWR1FghQIQfAlnOeRvGmCql7AUABxljM0pKSt5dvnx5eawag+QSAnZEIDs7u1lmZuY4KWX7gNvTZUc9SafwCBDhh8cI4/cf8Pl8DhwAAACvGpwrhPCYKEpZCIFkRoBxzkcCwGDG2OjS0tJxixcvPp7MBqW77kT4EfQAzvl5jLEeUsr7AeAOACiSUrrJjxkBiJQ1KRDgnD+L0WsAIBRFeY3i65Oi2cIqSYQfFqLgGbKzsy9SFKU7DgAAcJuUEi8q+aBhw4ZFU6dOPV1FsVSMEEgoAk6n82nGGJL95wAwUQhhyU1LCTWKKq9AgAjfgs6Qm5t7gc/nu0tKeQ8AdAeApYyxBTgICCF2WVAFiSAEYoZAnz59apeVlQ2SUj7JGMO4+slCiNUxq5AEJwwBInyLoe/Vq1eD8vLyrj6frxtj7C4A2McY+8Tn833k8Xi+srg6EkcIVBkBvKpUSnk3Ywy/Np+mKMoUl8u1vsoCqaDtESDCj3ETBT7sQn9/V4zxZ4wtlFJuBIA5QohfYlw9iScEzkKAc459sT8AlEop9/p8vmnFxcXbCarUR4AIP45tnJOTc4nX672VMfYYAFwIADullIsBYInH40GfKSVCIGYIOJ3OBxljjwJALQCYIoR4GwBkzCokwbZDgAg/gU2iquqNUkq8Dg5nXFci8TPGlpSXly+mGZf1DcM5x0vKcaBtyBir4fP58JuKwz6fb1dxcfG/ra8x8RIDZ0a9yBi7HQA2SynfpqiyxLdLojQgwk8U8oZ6e/bseW5WVpaf/AODAN69i38Tq1WrtrygoOCITVRNGjVycnIub9pQ6Vs9U+lSt3ZGo/MaZdRu0SSrdoM6mbWrVWNZXi94j5zwntxz8PSxnXtPnzxy3Fdadkp+/2vJqWlCiC+SxtAginLOMYLsD1LKe6WUMwFgtcfjmZXMNpHu0SNAhB89hjGR4HA4rmeM5TDG2gJAFwDAS9iRhL6oXbv28hkzZvwWk4pTQGi/h/P6N6yrPNK6ZY1mN19dp/nFzfEEX3PpwBEvfPPD8dI135/Yc/Skb+meA74X5s6du99c6cTm4pxfF1gtPggAB5DoGWOzhBAnE6sZ1W4XBIjw7dISlegxfPhwZdOmTbcAwC1SSvwXBwA/+eNf27Ztlw8fPtyXBKbEVMVHHsp9pGmjrL90v6HeFb+/slZmtJX9vPsUuJeW7ig5UL50Z8mpfkIIb7QyY1FeVVX8GBBJ/mp0C/p8vplFRUVfx6IukpncCBDhJ2H79e3bt8aJEye0AQDJvzEA7GCM4Z29X7jd7lVJaFaVVc7Ozm51SYua73f7fd3f3X5t3TpVFhSi4I87y+D9hYe2/LTr5N/mzPEUWy2/KvI45xcGXDZI9HsBYNaxY8dmfvrpp2VVkUdl0gMBIvwUaGe8QJox1l5KieSPA8EVeGE7Y+wL/HO5XN+mgJlBTfhD75z8yy+q/uLjvMkldWspMTWzcMmhvd9sOrl4wuQCJNmEpMBtbU8AQAd016Dbhr6GTUhTJGWlRPhJ2WyVK52Xl9e4vLxcI38cAFpoA4CUcneqHPz2xMC8MR0vq923zz0NmsWrGddvPQlzFx/84tU35iC+cUkOh6Ojoih5AIAnt24CgI+PHTs2mWbzcYE/pSohwk+p5gxuDK4AAjN/JP8OgdDElQDg/0vGGeKTA/MndGlf+8H7bzqnYbyb8F+/lsHUeQe/emXS+zfGqm6M2srIyBjEGLsVw0illHOllHOKioq2xKpOkpv6CBDhp34bn2VhIDa7MwB0Zozhvxcj8Usp/QOAx+PBf237Qc7A/r0G39a+9jPZt9bHvYuEJPTrT5l3YNlrbxTcZqUCAZcNzubvQ5IHgO89Hs+rVtZBstIXASL89G37CssDHyT5B4DAH0Z7VKwAAqsAW4T24VEVXdrXnTXQ2fiCRDfdN5tOeAuXHJo2YfIcPKagyiknJ+dar9f7SODk1U1I9GVlZXMWLFhwospCqSAhEAQBInzqFmchENgEbufz+W4MrABwIFjDGPMPApmZmSvnzJlzKN7Qcc4zWressXHEI+fhtwm2SDM+Prj7k6+O9BVCLIlEIVxlZWZm5kopcwGgLgD82+fzPUEum0hQpLyRIkCEHyliaZi/X79+WaWlpf7Zv5RSWwVskVJ+ryjKx1LKVfE4BnrQn/MLBzga5VzSorqtWmHolP/8c9Rr71+lV4pzPgUAeiqKcpd2AiUOWEjwjDEk+QuklN8wxgqFEEttZRApk7IIEOGnbNPG1jDO+Q2B89ORfXHz8kBgH2BVRkbGKqtvSMrJybny5mtqfTogu/H5sbUscukbfzwJ7310cOzEt+Y8h6WdTud4xtjDAFBPSjkSv4/QEf2XSPJHjx4VFGUTOdZUIjoEiPCjw49KBxBwOBxXoftHUZROUkocAPBjoB04+w8MAFGdsz7o8fzPhj/c9Pa6tTJsifnI6Xu3DXt5VmvO+XDG2AAppbahfCoQSjknIyOjsLCwcKctDSCl0gIBIvy0aOb4G6mq6q0+n+8CxhiSP/41BwD8AngVDgJXXnnlKuNxELm5uc29Xi+6OTYyxp5wuVz/Qs3xq9Kbr6698s+8ScI3akMhufGnk/Bqwb7FZad81wPAObp8B6WUKh1/Hf8+SDWejQARPvWKuCAQuAD+xsBGMA4A1+gHgOrVq686ffp0B7wUPnBUxHc+n+8xPBPmqYH5E/+iNn7iombmD0GLi1G6Sr7+4QRMKCzx+XyA5+1k6euXUs7yeDx/iLdOVB8hYESACJ/6REIQ4JzXwdm/bgDADeESxpjeR48hioMvv6jG6NH9m52xKZoQpSupdH9pOfrxD6zdchIvAS/zer2XKopykZSyuRAC7zmmRAgkHAEi/IQ3ASmgIcA5x4uzf29A5Ph5DbPYpKdb4C1Ntk74MdYkceD5v79dMNrWipJyaYsAEX7aNr29DO/Zs2ejzMzMLwGgTUCzw3jnKgDUufSC6o3GPBr6uJwDpSch/+mPYdGKn0MatbKwF9zYHk+YiCxpsocOvMFU+Wfe2L38tTcK8DgESoSA7RAgwrddk6SnQk6nsxNjDI8e3sQYWyOl/NLr9W67qFnN4S883LTPOXXCR+cUfLgJVqz9FSYMuQ1q1vjfcfir1u+CHb8ehvz7tLHEHMb6gcTsgDH0nT0/jBo3G6+rpEQI2A4BInzbNQkppEfgmcfzvxz3ePObzKASivDNlA2VJ9IZ/ivvl+wYPGImnk1EiRCwHQJE+LZrElJIj8BzT/Ve/9JjzTCiJ2wKRvgbNpf4Z/tXXFy1QzUjJfzpCw7sWrjm6DVCCLyPmBIhYCsEiPBt1RykjBGBvz3d+5+j+jcz5SIJRvjzP/sJWl/SsILw0b0zcPhnMGPs3fD23A0wpXAj9M9td4YbCPN0zp3jV2Xemz3hrbkbwKwP3/X5ob3uJQc7FRcXb6fWJATshgARvt1ahPQ5A4Hnn+7z/cj+5g5LQ8Lv/czHZ5Rv1/pccE3s4Sd8PZFrv2PmnL8sgMnD7/Bvym79+SA8MfJzmDT0dn+Zqa6N8GbBhorn4ZpHfF5aIpaW3iiE+ClcXnpOCMQbASL8eCNO9UWEwJCnem8c/Zi5GPxgM/wJ762Fe7q0OmuGrw0CRpfNyMmrodUF51Rs8OIAoB8Qwik/+5ND/1mw6vC18ThMLpwu9JwQMCJAhE99wtYIPPuX/DWvDGyOxxWETWZ8+JpLJxjht27V0B/e2ef+NhWEH6kPf2Lhvl8Wrd57OR2MFra5KEMCECDCTwDoVKV5BJ4akPfRK4+36J6ZEb6rVhalo/ny9x866ffhByP89m2awlNjlkKLpnX9PntMkRL+i9P2bBs+djZeIk+JELAdAuHfItupTAqlEwJ/fjT/b0/lNB7VqkX4c3Qqi8OfPe8H/8bs+k17QxI++vC1fQAt7l6/L2AmFn/wm7u/eeX1AlMrknRqR7LVHggQ4dujHUiLEAg4HI6Ofe5ptKiyy8rNfGn7/qvdoeX551RE3+CmLW7Uos9e+0IX8+DHWfjbsIl4uRfA+L/eCotW7jAVpbOvtBxemrF32oQ35/yJGpQQsCMCRPh2bBXS6QwERjz34LahDzW9zO6wLP766JF35u+/3+PxLLe7rqRfeiJAhJ+e7Z5UVg8a2GvhqEebdatZXbG13iOm79n2wsvkv7d1I6W5ckT4ad4BksF8zvltD97T0HPvjfUa2FXfkkPlMHZ2iWv83wvwvlpKhIAtESDCt2WzkFJGBP46qPeGMY82a2dXZN6Zd+DXz9cdv9Plcm22q46kFyFAhE99ICkQeKhvbt/e3Rr8/dYOdWrbTeHSY14Y+d7ez8e/UXCH3XQjfQgBPQJE+NQfkgaBwU/2/valx5p1ZDbrtePnlvzy1T+O3VFUVPRj0oBJiqYlAjZ7ddKyDchokwg4HI7rb7+unnisZ2PbXGa+futJmL3w0BuvTy54wqQZlI0QSBgCRPgJg54qrgoCTw7o9XrO7Q0G/P53tc64KLwqsqItc+S4F8bM2Pvt2IkF10Uri8oTAvFAgAg/HihTHZYi8PSf85cNdDbucnHz8F/fWlqxQdiId/ds3fzL6a6FhYU7Y1kPySYErEKACN8qJElOXBEY/Jf8bx5Xm1zbokliJvovzSzZ/t22E72FEHjxOiVCICkQIMJPimYiJY0I9O3bt8a59U9/8ch9ja679PzqcQNISoCXZu79acOPJ/8khPgibhVTRYSABQgQ4VsAIolIHAKDHs//7L7O9Trdck2dmrHWYmfJaZjywf7vf/r1dG+Xy7Ux1vWRfELAagSI8K1GlOTFHYEnH80bdcF51fo85mh8YayOX/ho5eGDy9cfW3/gWLUeM2bM+C3uRlKFhIAFCBDhWwAiiUg8Ag6Ho22r82tM6fS7Oq0fuLleI6s0+m7bSfhgeemmnSXlo2fMKvzvRbeUCIEkRYAIP0kbjtQOjoCqqt1anpc1vM3FNS668/q6zZo1jnxT97dTElZsOH7ky++O7Tx8zFv4xpQ5owhvQiAVECDCT4VWJBvOQgBn/BedV/3JGjUyrrvw3KyG7S6r2fSCpllZTRpkQrXM/3V7CQAHD5fDrn2nYfPPv+3d+ktZ6eFj3h2/7iuf4Ha7FxG0hEAqIUCEn0qtSbYERaBnz57nZmVldWzeOOMWRWGXM2D1mcIywSd9XgknpIR/HznhXXP46Ok1RUVFWwhGQiBVESDCT9WWJbsIAUKAEDAgQIRPXYIQIAQIgTRBgAg/TRqazCQECAFCgAif+gAhQAgQAmmCABF+mjQ0mUkIEAKEABE+9QFCgBAgBNIEASL8NGloMpMQIAQIASJ86gOEACFACKQJAkT4adLQZCYhQAgQAkT41AcIAUKAEEgTBIjw06ShyUxCgBAgBIjwqQ8QAoQAIZAmCPx/4sRYtx6TOCEAAAAASUVORK5CYII=;fontSize=15;" parent="1" vertex="1">
          <mxGeometry x="-440" y="30" width="100.94" height="170" as="geometry" />
        </mxCell>
        <mxCell id="x99btNPnGnlGqi2Zv7ce-19" value="Own instance of Strategy&lt;br style=&quot;font-size: 15px;&quot;&gt;step function" style="text;html=1;align=center;verticalAlign=middle;resizable=0;points=[];autosize=1;fontSize=15;" parent="1" vertex="1">
          <mxGeometry x="-620" y="70" width="180" height="40" as="geometry" />
        </mxCell>
        <mxCell id="MWNhhg4DmTbggFdNVIW7-78" value="&lt;span style=&quot;&quot;&gt;&quot;Performance&quot;&lt;br style=&quot;font-size: 15px&quot;&gt;SQS queue&lt;/span&gt;" style="outlineConnect=0;fontColor=#232F3E;gradientColor=#F34482;gradientDirection=north;fillColor=#BC1356;strokeColor=#ffffff;dashed=0;verticalLabelPosition=middle;verticalAlign=middle;align=right;html=1;fontSize=15;fontStyle=0;aspect=fixed;shape=mxgraph.aws4.resourceIcon;resIcon=mxgraph.aws4.sqs;labelBackgroundColor=#ffffff;labelPosition=left;" parent="1" vertex="1">
          <mxGeometry x="340" y="176" width="78" height="78" as="geometry" />
        </mxCell>
        <mxCell id="_WtmEupXQIVc-U1mj9OQ-1" value="" style="outlineConnect=0;dashed=0;verticalLabelPosition=bottom;verticalAlign=top;align=center;html=1;shape=mxgraph.aws3.redis;fillColor=#2E73B8;gradientColor=none;" vertex="1" parent="1">
          <mxGeometry x="-680" y="260" width="30" height="33" as="geometry" />
        </mxCell>
        <mxCell id="_WtmEupXQIVc-U1mj9OQ-2" value="" style="outlineConnect=0;dashed=0;verticalLabelPosition=bottom;verticalAlign=top;align=center;html=1;shape=mxgraph.aws3.redis;fillColor=#2E73B8;gradientColor=none;" vertex="1" parent="1">
          <mxGeometry x="-590" y="160" width="30" height="33" as="geometry" />
        </mxCell>
        <mxCell id="_WtmEupXQIVc-U1mj9OQ-3" value="" style="outlineConnect=0;dashed=0;verticalLabelPosition=bottom;verticalAlign=top;align=center;html=1;shape=mxgraph.aws3.redis;fillColor=#2E73B8;gradientColor=none;" vertex="1" parent="1">
          <mxGeometry x="-810" y="150" width="30" height="33" as="geometry" />
        </mxCell>
        <mxCell id="_WtmEupXQIVc-U1mj9OQ-4" value="" style="outlineConnect=0;dashed=0;verticalLabelPosition=bottom;verticalAlign=top;align=center;html=1;shape=mxgraph.aws3.redis;fillColor=#2E73B8;gradientColor=none;" vertex="1" parent="1">
          <mxGeometry x="660" y="330" width="30" height="33" as="geometry" />
        </mxCell>
        <mxCell id="_WtmEupXQIVc-U1mj9OQ-5" value="" style="outlineConnect=0;dashed=0;verticalLabelPosition=bottom;verticalAlign=top;align=center;html=1;shape=mxgraph.aws3.redis;fillColor=#2E73B8;gradientColor=none;" vertex="1" parent="1">
          <mxGeometry x="660" y="390" width="30" height="33" as="geometry" />
        </mxCell>
        <mxCell id="_WtmEupXQIVc-U1mj9OQ-6" value="" style="outlineConnect=0;dashed=0;verticalLabelPosition=bottom;verticalAlign=top;align=center;html=1;shape=mxgraph.aws3.redis;fillColor=#2E73B8;gradientColor=none;" vertex="1" parent="1">
          <mxGeometry x="20" y="570" width="30" height="33" as="geometry" />
        </mxCell>
        <mxCell id="_WtmEupXQIVc-U1mj9OQ-7" value="" style="outlineConnect=0;dashed=0;verticalLabelPosition=bottom;verticalAlign=top;align=center;html=1;shape=mxgraph.aws3.redis;fillColor=#2E73B8;gradientColor=none;" vertex="1" parent="1">
          <mxGeometry x="140" y="450" width="30" height="33" as="geometry" />
        </mxCell>
        <mxCell id="_WtmEupXQIVc-U1mj9OQ-8" value="" style="outlineConnect=0;dashed=0;verticalLabelPosition=bottom;verticalAlign=top;align=center;html=1;shape=mxgraph.aws3.redis;fillColor=#2E73B8;gradientColor=none;" vertex="1" parent="1">
          <mxGeometry x="230" y="380" width="30" height="33" as="geometry" />
        </mxCell>
        <mxCell id="_WtmEupXQIVc-U1mj9OQ-9" value="" style="outlineConnect=0;dashed=0;verticalLabelPosition=bottom;verticalAlign=top;align=center;html=1;shape=mxgraph.aws3.redis;fillColor=#2E73B8;gradientColor=none;" vertex="1" parent="1">
          <mxGeometry x="-300" y="540" width="30" height="33" as="geometry" />
        </mxCell>
        <mxCell id="_WtmEupXQIVc-U1mj9OQ-10" value="" style="outlineConnect=0;dashed=0;verticalLabelPosition=bottom;verticalAlign=top;align=center;html=1;shape=mxgraph.aws3.redis;fillColor=#2E73B8;gradientColor=none;" vertex="1" parent="1">
          <mxGeometry x="-390" y="340" width="30" height="33" as="geometry" />
        </mxCell>
        <mxCell id="_WtmEupXQIVc-U1mj9OQ-11" value="" style="outlineConnect=0;dashed=0;verticalLabelPosition=bottom;verticalAlign=top;align=center;html=1;shape=mxgraph.aws3.redis;fillColor=#2E73B8;gradientColor=none;" vertex="1" parent="1">
          <mxGeometry x="-350" y="410" width="30" height="33" as="geometry" />
        </mxCell>
        <mxCell id="_WtmEupXQIVc-U1mj9OQ-12" value="" style="outlineConnect=0;dashed=0;verticalLabelPosition=bottom;verticalAlign=top;align=center;html=1;shape=mxgraph.aws3.redis;fillColor=#2E73B8;gradientColor=none;" vertex="1" parent="1">
          <mxGeometry x="-260" y="600" width="30" height="33" as="geometry" />
        </mxCell>
        <mxCell id="_WtmEupXQIVc-U1mj9OQ-13" value="" style="outlineConnect=0;dashed=0;verticalLabelPosition=bottom;verticalAlign=top;align=center;html=1;shape=mxgraph.aws3.redis;fillColor=#2E73B8;gradientColor=none;" vertex="1" parent="1">
          <mxGeometry x="-210" y="660" width="30" height="33" as="geometry" />
        </mxCell>
      </root>
    </mxGraphModel>
  </diagram>
</mxfile>
